<svg width="106" height="125" viewBox="0 0 106 125" fill="none" xmlns="http://www.w3.org/2000/svg">
<g opacity="0.3">
<rect x="2" y="37.0001" width="9" height="9" fill="#019771"/>
<rect x="74" y="94.0001" width="7" height="7" fill="#019771"/>
<rect x="59" y="6.10352e-05" width="7" height="7" fill="#019771"/>
<rect x="104" y="8.00006" width="2" height="2" fill="#019771"/>
</g>
<g opacity="0.1">
<rect x="18" y="100" width="8" height="8" fill="#01161E"/>
<rect x="84" y="37.0001" width="5" height="5" fill="#01161E"/>
<rect y="122" width="3" height="3" fill="#01161E"/>
<rect x="32" y="53.0001" width="21" height="21" fill="#01161E"/>
</g>
<rect x="28" y="32.0001" width="1.4" height="32" fill="#01161E"/>
<rect x="38" y="32.0001" width="1.4" height="32" fill="#01161E"/>
<rect x="58" y="32.0001" width="1.4" height="32" fill="#01161E"/>
<rect x="48" y="32.0001" width="1.4" height="32" fill="#01161E"/>
<path d="M25.3816 52.7001H31.9816V59.3001H25.3816V52.7001Z" fill="#F9FCFB" stroke="#019771" stroke-width="1.4"/>
<path d="M35.4075 40.7001H42.0075V47.3001H35.4075V40.7001Z" fill="#F9FCFB" stroke="#019771" stroke-width="1.4"/>
<path d="M45.4451 37.2001H52.0451V43.8001H45.4451V37.2001Z" fill="#F9FCFB" stroke="#019771" stroke-width="1.4"/>
<path d="M55.4408 48.7001H62.0408V55.3001H55.4408V48.7001Z" fill="#F9FCFB" stroke="#019771" stroke-width="1.4"/>
</svg>
