<svg width="106" height="125" viewBox="0 0 106 125" fill="none" xmlns="http://www.w3.org/2000/svg">
<g opacity="0.3">
<rect x="2" y="37" width="9" height="9" fill="#019771"/>
<rect x="74" y="94" width="7" height="7" fill="#019771"/>
<rect x="59" width="7" height="7" fill="#019771"/>
<rect x="104" y="8" width="2" height="2" fill="#019771"/>
</g>
<g opacity="0.1">
<rect x="18" y="100" width="8" height="8" fill="#01161E"/>
<rect x="84" y="37" width="5" height="5" fill="#01161E"/>
<rect y="122" width="3" height="3" fill="#01161E"/>
<rect x="32" y="53" width="21" height="21" fill="#01161E"/>
</g>
<g clip-path="url(#clip0)">
<path d="M54.8127 67.591L54.8179 65.9294L59.7354 65.9141L44.2997 50.4784L45.4783 49.2998L60.9141 64.7356L60.9294 59.8181L62.591 59.8129L62.5667 67.5668L54.8127 67.591Z" fill="#01161E"/>
<path d="M31.6431 27.8649L31.6379 29.5265L26.7204 29.5418L42.1561 44.9775L40.9775 46.156L25.5417 30.7203L25.5264 35.6378L23.8648 35.643L23.8891 27.8891L31.6431 27.8649Z" fill="#019771"/>
<path d="M41.2749 31.7561C42.7942 30.2863 45.2053 30.2863 46.7246 31.7561C47.9503 32.9418 49.6546 33.4956 51.3432 33.2568C53.4363 32.9607 55.3869 34.3779 55.7522 36.46C56.0468 38.1398 57.1001 39.5896 58.6066 40.3889C60.4739 41.3796 61.219 43.6727 60.2907 45.5718C59.5417 47.104 59.5417 48.896 60.2907 50.4282C61.219 52.3273 60.4739 54.6204 58.6066 55.6111C57.1001 56.4104 56.0468 57.8602 55.7522 59.54C55.3869 61.6221 53.4363 63.0393 51.3432 62.7432C49.6546 62.5044 47.9503 63.0582 46.7246 64.2439C45.2053 65.7137 42.7942 65.7137 41.2749 64.2439C40.0492 63.0582 38.3449 62.5044 36.6563 62.7432C34.5632 63.0393 32.6126 61.6221 32.2474 59.54C31.9527 57.8602 30.8994 56.4104 29.3929 55.6111C27.5256 54.6204 26.7805 52.3273 27.7088 50.4282C28.4578 48.896 28.4578 47.104 27.7088 45.5718C26.7805 43.6727 27.5256 41.3796 29.3929 40.3889C30.8994 39.5896 31.9527 38.1398 32.2474 36.46C32.6126 34.3779 34.5632 32.9607 36.6563 33.2568C38.3449 33.4956 40.0492 32.9418 41.2749 31.7561Z" fill="#FEFEFE" stroke="#01161E" stroke-width="1.61"/>
<path d="M43.1623 40.4323C43.5657 39.8559 44.4343 39.8559 44.8377 40.4323L47.0191 43.5497C47.1512 43.7383 47.3456 43.8767 47.5697 43.9414L51.271 45.01C51.9554 45.2075 52.2239 46.0166 51.7887 46.5704L49.4356 49.5656C49.2932 49.7469 49.2189 49.9708 49.2253 50.1994L49.3314 53.9772C49.351 54.6757 48.6483 55.1757 47.976 54.9416L44.3402 53.6754C44.1202 53.5988 43.8798 53.5988 43.6598 53.6754L40.024 54.9416C39.3517 55.1757 38.649 54.6757 38.6686 53.9772L38.7747 50.1994C38.7811 49.9708 38.7068 49.7469 38.5644 49.5656L36.2113 46.5704C35.7761 46.0166 36.0446 45.2075 36.729 45.01L40.4303 43.9414C40.6544 43.8767 40.8488 43.7384 40.9809 43.5497L43.1623 40.4323Z" fill="#019771"/>
</g>
<defs>
<clipPath id="clip0">
<rect x="24" y="28" width="40" height="40" fill="white"/>
</clipPath>
</defs>
</svg>
