<svg width="106" height="125" viewBox="0 0 106 125" fill="none" xmlns="http://www.w3.org/2000/svg">
<g opacity="0.3">
<rect x="2.00024" y="37.0001" width="9" height="9" fill="#019771"/>
<rect x="74.0002" y="94.0001" width="7" height="7" fill="#019771"/>
<rect x="59.0002" y="0.00012207" width="7" height="7" fill="#019771"/>
<rect x="104" y="8.00012" width="2" height="2" fill="#019771"/>
</g>
<g opacity="0.1">
<rect x="18.0002" y="100" width="8" height="8" fill="#01161E"/>
<rect x="84.0002" y="37.0001" width="5" height="5" fill="#01161E"/>
<rect x="0.000244141" y="122" width="3" height="3" fill="#01161E"/>
<rect x="32.0002" y="53.0001" width="21" height="21" fill="#01161E"/>
</g>
<g clip-path="url(#clip0)">
<path d="M34.4341 56.0001C32.7867 56.0001 31.4687 54.819 31.1941 53.3158H27.2952C26.9657 53.3158 26.746 53.1011 26.746 52.779V48.9674C25.2084 48.699 24.0002 47.4106 24.0002 45.8C24.0002 44.1895 25.2084 42.9011 26.746 42.6327V38.8211C26.746 38.499 26.9657 38.2843 27.2952 38.2843H31.1941C31.4687 36.7811 32.7867 35.6 34.4341 35.6C36.0816 35.6 37.3996 36.7811 37.6741 38.2843H41.5731C41.9026 38.2843 42.1223 38.499 42.1223 38.8211V43.1158C42.1223 43.4379 41.9026 43.6527 41.5731 43.6527C40.365 43.6527 39.3765 44.619 39.3765 45.8C39.3765 46.9811 40.365 47.9474 41.5731 47.9474C41.9026 47.9474 42.1223 48.1622 42.1223 48.4843V52.779C42.1223 53.1011 41.9026 53.3158 41.5731 53.3158H37.6741C37.3996 54.819 36.0816 56.0001 34.4341 56.0001Z" fill="#F1F9F7"/>
<path d="M34.4341 56.0001C32.7867 56.0001 31.4687 54.819 31.1941 53.3158H27.2952C26.9657 53.3158 26.746 53.1011 26.746 52.779V48.9674C25.2084 48.699 24.0002 47.4106 24.0002 45.8C24.0002 44.1895 25.2084 42.9011 26.746 42.6327V38.8211C26.746 38.499 26.9657 38.2843 27.2952 38.2843H31.1941C31.4687 36.7811 32.7867 35.6 34.4341 35.6C36.0816 35.6 37.3996 36.7811 37.6741 38.2843H41.5731C41.9026 38.2843 42.1223 38.499 42.1223 38.8211V43.1158C42.1223 43.4379 41.9026 43.6527 41.5731 43.6527C40.365 43.6527 39.3765 44.619 39.3765 45.8C39.3765 46.9811 40.365 47.9474 41.5731 47.9474C41.9026 47.9474 42.1223 48.1622 42.1223 48.4843V52.779C42.1223 53.1011 41.9026 53.3158 41.5731 53.3158H37.6741C37.3996 54.819 36.0816 56.0001 34.4341 56.0001ZM27.8443 52.2422H31.6884C32.0179 52.2422 32.2375 52.4569 32.2375 52.779C32.2375 53.9601 33.226 54.9264 34.4341 54.9264C35.6423 54.9264 36.6308 53.9601 36.6308 52.779C36.6308 52.4569 36.8504 52.2422 37.1799 52.2422H41.024V48.9674C39.4863 48.699 38.2782 47.4106 38.2782 45.8C38.2782 44.1895 39.4863 42.9011 41.024 42.6327V39.3579H37.1799C36.8504 39.3579 36.6308 39.1432 36.6308 38.8211C36.6308 37.64 35.6423 36.6737 34.4341 36.6737C33.226 36.6737 32.2375 37.64 32.2375 38.8211C32.2375 39.1432 32.0179 39.3579 31.6884 39.3579H27.8443V43.1158C27.8443 43.4379 27.6247 43.6527 27.2952 43.6527C26.087 43.6527 25.0985 44.619 25.0985 45.8C25.0985 46.9811 26.087 47.9474 27.2952 47.9474C27.6247 47.9474 27.8443 48.1622 27.8443 48.4843V52.2422Z" fill="black"/>
<path d="M41.5731 68H37.1799C36.8504 68 36.6308 67.7804 36.6308 67.4509C36.6308 66.2428 35.6423 65.2543 34.4341 65.2543C33.226 65.2543 32.2375 66.2428 32.2375 67.4509C32.2375 67.7804 32.0179 68 31.6884 68H27.2952C26.9657 68 26.746 67.7804 26.746 67.4509V63.5519C25.2084 63.2773 24.0002 61.9594 24.0002 60.3119C24.0002 58.6645 25.2084 57.3465 26.746 57.0719V53.1729C26.746 52.8434 26.9657 52.6238 27.2952 52.6238H31.6884C32.0179 52.6238 32.2375 52.8434 32.2375 53.1729C32.2375 54.3811 33.226 55.3695 34.4341 55.3695C35.6423 55.3695 36.6308 54.3811 36.6308 53.1729C36.6308 52.8434 36.8504 52.6238 37.1799 52.6238H41.5731C41.9026 52.6238 42.1223 52.8434 42.1223 53.1729V57.5662C42.1223 57.8956 41.9026 58.1153 41.5731 58.1153C40.365 58.1153 39.3765 59.1038 39.3765 60.3119C39.3765 61.5201 40.365 62.5085 41.5731 62.5085C41.9026 62.5085 42.1223 62.7282 42.1223 63.0577V67.4509C42.1223 67.7804 41.9026 68 41.5731 68Z" fill="#F1F9F7"/>
<path d="M41.4545 68H37.0909C36.7636 68 36.5455 67.7714 36.5455 67.4286C36.5455 66.1714 35.5636 65.1429 34.3636 65.1429C33.1636 65.1429 32.1818 66.1714 32.1818 67.4286C32.1818 67.7714 31.9636 68 31.6364 68H27.2727C26.9455 68 26.7273 67.7714 26.7273 67.4286V63.3714C25.2 63.0857 24 61.7143 24 60C24 58.2857 25.2 56.9143 26.7273 56.6286V52.5714C26.7273 52.2286 26.9455 52 27.2727 52H31.6364C31.9636 52 32.1818 52.2286 32.1818 52.5714C32.1818 53.8286 33.1636 54.8571 34.3636 54.8571C35.5636 54.8571 36.5455 53.8286 36.5455 52.5714C36.5455 52.2286 36.7636 52 37.0909 52H41.4545C41.7818 52 42 52.2286 42 52.5714V57.1429C42 57.4857 41.7818 57.7143 41.4545 57.7143C40.2545 57.7143 39.2727 58.7429 39.2727 60C39.2727 61.2571 40.2545 62.2857 41.4545 62.2857C41.7818 62.2857 42 62.5143 42 62.8571V67.4286C42 67.7714 41.7818 68 41.4545 68ZM37.5818 66.8571H40.9091V63.3714C39.3818 63.0857 38.1818 61.7143 38.1818 60C38.1818 58.2857 39.3818 56.9143 40.9091 56.6286V53.1429H37.5818C37.3091 54.7429 36 56 34.3636 56C32.7273 56 31.4182 54.7429 31.1455 53.1429H27.8182V57.1429C27.8182 57.4857 27.6 57.7143 27.2727 57.7143C26.0727 57.7143 25.0909 58.7429 25.0909 60C25.0909 61.2571 26.0727 62.2857 27.2727 62.2857C27.6 62.2857 27.8182 62.5143 27.8182 62.8571V66.8571H31.1455C31.4182 65.2571 32.7273 64 34.3636 64C36 64 37.3091 65.2571 37.5818 66.8571Z" fill="#01161E"/>
<path d="M56.3121 48.8679C54.6647 48.8679 53.3467 47.6597 53.0721 46.1221H49.1731C48.8436 46.1221 48.624 45.9024 48.624 45.5729V41.674C47.0863 41.3994 45.8782 40.0814 45.8782 38.434C45.8782 36.7865 47.0863 35.4685 48.624 35.194V31.295C48.624 30.9655 48.8436 30.7458 49.1731 30.7458H53.0721C53.3467 29.2082 54.6647 28.0001 56.3121 28.0001C57.9596 28.0001 59.2775 29.2082 59.5521 30.7458H63.4511C63.7806 30.7458 64.0002 30.9655 64.0002 31.295V35.6882C64.0002 36.0177 63.7806 36.2373 63.4511 36.2373C62.243 36.2373 61.2545 37.2258 61.2545 38.434C61.2545 39.6421 62.243 40.6306 63.4511 40.6306C63.7806 40.6306 64.0002 40.8502 64.0002 41.1797V45.5729C64.0002 45.9024 63.7806 46.1221 63.4511 46.1221H59.5521C59.2775 47.6597 57.9596 48.8679 56.3121 48.8679Z" fill="#019771"/>
<path d="M55.8511 68H51.4579C51.1284 68 50.9087 67.7804 50.9087 67.4509C50.9087 66.2428 49.9202 65.2543 48.7121 65.2543C47.504 65.2543 46.5155 66.2428 46.5155 67.4509C46.5155 67.7804 46.2958 68 45.9663 68H41.5731C41.2436 68 41.024 67.7804 41.024 67.4509V63.5519C39.4863 63.2773 38.2782 61.9594 38.2782 60.3119C38.2782 58.6645 39.4863 57.3465 41.024 57.0719V53.1729C41.024 52.8434 41.2436 52.6238 41.5731 52.6238H45.9663C46.2958 52.6238 46.5155 52.8434 46.5155 53.1729C46.5155 54.3811 47.504 55.3695 48.7121 55.3695C49.9202 55.3695 50.9087 54.3811 50.9087 53.1729C50.9087 52.8434 51.1284 52.6238 51.4579 52.6238H55.8511C56.1806 52.6238 56.4002 52.8434 56.4002 53.1729V57.0719C57.9379 57.3465 59.146 58.6645 59.146 60.3119C59.146 61.9594 57.9379 63.2773 56.4002 63.5519V67.4509C56.4002 67.7804 56.1806 68 55.8511 68Z" fill="#F1F9F7"/>
<path d="M55.6843 68H51.2633C50.9317 68 50.7106 67.7714 50.7106 67.4286C50.7106 66.1714 49.7159 65.1429 48.5001 65.1429C47.2843 65.1429 46.2896 66.1714 46.2896 67.4286C46.2896 67.7714 46.0685 68 45.737 68H41.3159C40.9843 68 40.7633 67.7714 40.7633 67.4286V63.3714C39.2159 63.0857 38.0001 61.7143 38.0001 60C38.0001 58.2857 39.2159 56.9143 40.7633 56.6286V52.5714C40.7633 52.2286 40.9843 52 41.3159 52H45.737C46.0685 52 46.2896 52.2286 46.2896 52.5714C46.2896 53.8286 47.2843 54.8571 48.5001 54.8571C49.7159 54.8571 50.7106 53.8286 50.7106 52.5714C50.7106 52.2286 50.9317 52 51.2633 52H55.6843C56.0159 52 56.237 52.2286 56.237 52.5714V56.6286C57.7843 56.9143 59.0001 58.2857 59.0001 60C59.0001 61.7143 57.7843 63.0857 56.237 63.3714V67.4286C56.237 67.7714 56.0159 68 55.6843 68ZM51.7606 66.8571H55.1317V62.8571C55.1317 62.5143 55.3528 62.2857 55.6843 62.2857C56.9001 62.2857 57.8949 61.2571 57.8949 60C57.8949 58.7429 56.9001 57.7143 55.6843 57.7143C55.3528 57.7143 55.1317 57.4857 55.1317 57.1429V53.1429H51.7606C51.4843 54.7429 50.158 56 48.5001 56C46.8422 56 45.5159 54.7429 45.2396 53.1429H41.8685V57.1429C41.8685 57.4857 41.6475 57.7143 41.3159 57.7143C40.1001 57.7143 39.1054 58.7429 39.1054 60C39.1054 61.2571 40.1001 62.2857 41.3159 62.2857C41.6475 62.2857 41.8685 62.5143 41.8685 62.8571V66.8571H45.2396C45.5159 65.2571 46.8422 64 48.5001 64C50.158 64 51.4843 65.2571 51.7606 66.8571Z" fill="black"/>
</g>
<defs>
<clipPath id="clip0">
<rect x="24.0002" y="28.0001" width="40" height="40" fill="white"/>
</clipPath>
</defs>
</svg>
