<svg width="106" height="125" viewBox="0 0 106 125" fill="none" xmlns="http://www.w3.org/2000/svg">
<g opacity="0.3">
<rect x="1.99988" y="37.0001" width="9" height="9" fill="#019771"/>
<rect x="73.9999" y="94.0001" width="7" height="7" fill="#019771"/>
<rect x="58.9999" y="6.10352e-05" width="7" height="7" fill="#019771"/>
<rect x="104" y="8.00006" width="2" height="2" fill="#019771"/>
</g>
<g opacity="0.1">
<rect x="17.9999" y="100" width="8" height="8" fill="#01161E"/>
<rect x="83.9999" y="37.0001" width="5" height="5" fill="#01161E"/>
<rect x="-0.00012207" y="122" width="3" height="3" fill="#01161E"/>
<rect x="31.9999" y="53.0001" width="21" height="21" fill="#01161E"/>
</g>
<path fill-rule="evenodd" clip-rule="evenodd" d="M46 33H32V47H46V33ZM54.67 51.33H33.33V53.67H54.67V51.33ZM33.33 50H32V51.33V53.67V55H33.33H54.67H56V53.67V51.33V50H54.67H33.33ZM54.67 58.33H33.33V60.67H54.67V58.33ZM33.33 57H32V58.33V60.67V62H33.33H54.67H56V60.67V58.33V57H54.67H33.33Z" fill="#019771"/>
<path fill-rule="evenodd" clip-rule="evenodd" d="M58.67 30.33H29.33V66.67H58.67V30.33ZM29.33 29H28V30.33V66.67V68H29.33H58.67H60V66.67V30.33V29H58.67H29.33ZM49 33.3H56V34.63H49V33.3ZM56 37.3H49V38.63H56V37.3ZM49 41.3H56V42.63H49V41.3ZM56 45.3H49V46.63H56V45.3Z" fill="#01161E"/>
</svg>
