<svg width="106" height="125" viewBox="0 0 106 125" fill="none" xmlns="http://www.w3.org/2000/svg">
<g opacity="0.3">
<rect x="1.99988" y="37.0001" width="9" height="9" fill="#019771"/>
<rect x="73.9999" y="94.0001" width="7" height="7" fill="#019771"/>
<rect x="58.9999" y="6.10352e-05" width="7" height="7" fill="#019771"/>
<rect x="104" y="8.00006" width="2" height="2" fill="#019771"/>
</g>
<g opacity="0.1">
<rect x="17.9999" y="100" width="8" height="8" fill="#01161E"/>
<rect x="84" y="37.0001" width="5" height="5" fill="#01161E"/>
<rect x="-0.00012207" y="122" width="3" height="3" fill="#01161E"/>
<rect x="31.9999" y="53.0001" width="21" height="21" fill="#01161E"/>
</g>
<g clip-path="url(#clip0)">
<path d="M63 43.3739L62.2147 40L59.6855 42.367L60.6781 42.6686L57.3815 54.9716L47.7793 52.2744L47 52.3739L38.1865 61.287L25.8025 54.1225L25.1365 55.2737L38.387 62.9396L38.4124 62.9642L47.5142 53.5814L57.0373 56.2564L57.0324 56.2744L58.3171 56.6187L61.9514 43.0554L63 43.3739Z" fill="#019771"/>
<path fill-rule="evenodd" clip-rule="evenodd" d="M30.7381 38H32.4306C32.208 36.2273 32.6812 34.4376 33.7525 33C35.4366 30.8333 38.6784 29.7167 43.3263 29.6667C47.9743 29.6167 51.3677 30.825 53.2622 33C54.2401 34.1862 54.8278 35.6402 54.9463 37.1667C53.9022 36.5333 52.4707 35.9167 51.275 36.3333C49.2458 37.0083 48.168 39.3333 47.6796 40.775C47.1764 40.4238 46.6398 40.033 46.0889 39.6316C45.764 39.395 45.4341 39.1547 45.103 38.9167C43.5203 37.7022 41.861 36.5888 40.1351 35.5833C39.3395 35.2131 38.4662 35.0359 37.5876 35.0663C36.709 35.0967 35.8504 35.334 35.0829 35.7583C34.2651 36.2859 33.6579 37.0783 33.3652 38H33.0507V39.6667H33.0537V49.6667H33.057V51.3333H33.0537V52.8583C33.0559 55.1054 33.9588 57.2597 35.5643 58.8486C37.1697 60.4375 39.3466 61.3311 41.617 61.3333H46.3829C48.6534 61.3311 50.8302 60.4375 52.4356 58.8486C54.0411 57.2597 54.944 55.1054 54.9463 52.8583L54.9462 38H56.6892C56.7362 35.806 55.9862 33.6682 54.5758 31.975C52.3697 29.4083 48.6732 28.0667 43.5705 28H43.0906C38.0384 28.0667 34.4346 29.4 32.4221 31.9417C31.108 33.6782 30.5064 35.8426 30.7381 38Z" fill="#F1F9F7"/>
<path fill-rule="evenodd" clip-rule="evenodd" d="M30.7381 38C30.5064 35.8426 31.108 33.6782 32.4221 31.9417C34.4346 29.4 38.0384 28.0667 43.0906 28H43.5705C48.6732 28.0667 52.3697 29.4083 54.5758 31.975C55.9862 33.6682 56.7362 35.806 56.6892 38C56.6892 38 56.4808 39.0705 56 39.5C55.6603 39.8035 54.9463 40 54.9463 40V52.8583C54.944 55.1054 54.0411 57.2597 52.4356 58.8486C50.8302 60.4375 48.6534 61.3311 46.3829 61.3333H41.617C39.3466 61.3311 37.1697 60.4375 35.5643 58.8486C33.9588 57.2597 33.0559 55.1054 33.0537 52.8583V51.3333H33.057V49.6667H33.0537V40.6128C33.0537 40.6128 32 40.5 31.5 40C31.0354 39.5354 30.7381 38 30.7381 38ZM32.5 38H32.8979H33C33.2927 37.0783 34.2651 36.2859 35.0829 35.7583C35.8504 35.334 36.709 35.0967 37.5876 35.0663C38.4662 35.0359 39.3395 35.2131 40.1351 35.5833C41.861 36.5888 43.5203 37.7022 45.103 38.9167C45.4341 39.1547 45.764 39.395 46.0889 39.6316C46.6398 40.033 47.1764 40.4238 47.6796 40.775C48.168 39.3333 49.2458 37.0083 51.275 36.3333C52.4707 35.9167 53.9022 36.5333 54.9463 37.1667C54.8278 35.6402 54.2401 34.1862 53.2622 33C51.3677 30.825 47.9743 29.6167 43.3263 29.6667C38.6784 29.7167 35.4366 30.8333 33.7525 33C32.6812 34.4376 32.2775 36.2273 32.5 38ZM53.2622 52.8583C53.2622 53.7524 53.0843 54.6377 52.7386 55.4638C52.3928 56.2898 51.8861 57.0403 51.2473 57.6726C50.6085 58.3048 49.8501 58.8063 49.0155 59.1484C48.1809 59.4906 47.2863 59.6667 46.3829 59.6667H41.617C39.7925 59.6667 38.0427 58.9494 36.7526 57.6726C35.4625 56.3957 34.7377 54.664 34.7377 52.8583V39.9833C34.6739 39.4449 34.7575 38.8994 34.9797 38.4039C35.2019 37.9084 35.5545 37.4811 36.0007 37.1667C36.533 36.8643 37.1386 36.7116 37.7522 36.725C38.3313 36.7141 38.9059 36.8279 39.4362 37.0583C41.0758 38.044 42.6559 39.1237 44.1684 40.2917L44.4037 40.4625C45.5931 41.326 46.8086 42.2085 47.7722 42.8417C47.8867 42.9163 48.0179 42.9622 48.1544 42.9752C48.2908 42.9883 48.4285 42.9682 48.5553 42.9167C48.6826 42.8651 48.7953 42.7835 48.8833 42.6789C48.9714 42.5743 49.0322 42.4499 49.0605 42.3167C49.271 41.2833 50.1888 38.5 51.8729 37.9417C52.3614 37.8674 52.8608 37.9616 53.2875 38.2083L53.2622 52.8583Z" fill="#01161E"/>
<rect x="45.665" y="42.665" width="9.67" height="4.67" fill="#F1F9F7" stroke="#01161E" stroke-width="1.33"/>
<rect x="32.665" y="42.665" width="9.67" height="4.67" fill="#F1F9F7" stroke="#01161E" stroke-width="1.33"/>
</g>
<defs>
<clipPath id="clip0">
<rect x="23.9999" y="28.0001" width="40" height="40" fill="white"/>
</clipPath>
</defs>
</svg>
