<svg width="106" height="125" viewBox="0 0 106 125" fill="none" xmlns="http://www.w3.org/2000/svg">
<g opacity="0.3">
<rect x="2" y="37" width="9" height="9" fill="#019771"/>
<rect x="74" y="94" width="7" height="7" fill="#019771"/>
<rect x="59" width="7" height="7" fill="#019771"/>
<rect x="104" y="8" width="2" height="2" fill="#019771"/>
</g>
<g opacity="0.1">
<rect x="18" y="100" width="8" height="8" fill="#01161E"/>
<rect x="84" y="37" width="5" height="5" fill="#01161E"/>
<rect y="122" width="3" height="3" fill="#01161E"/>
<rect x="32" y="53" width="21" height="21" fill="#01161E"/>
</g>
<path d="M58.3561 50.6505C58.7755 49.1725 59 47.6125 59 46C59 36.6112 51.3888 29 42 29C32.6112 29 25 36.6112 25 46C25 55.3888 32.6112 63 42 63C43.6125 63 44.022 64.4194 45.5 64C46.5353 64.4154 54.3162 64 55.5 64C60.4706 64 53.5 55 59 54C59 52.8162 58.7715 51.6858 58.3561 50.6505Z" fill="#FEFEFE"/>
<path fill-rule="evenodd" clip-rule="evenodd" d="M45.1331 63.6225C44.0013 63.8558 42.831 63.9788 41.6329 63.9788C31.9099 63.9788 24 55.909 24 45.9894C24 36.0698 31.9099 28 41.6329 28C43.8306 28 45.9336 28.4157 47.8758 29.1683L47.9396 29.1361C47.9459 29.1488 47.9579 29.1746 47.972 29.2072C54.5709 31.8108 59.2658 38.3492 59.2658 45.9894C59.2658 46.8978 59.1995 47.7908 59.0714 48.6634C58.8572 48.3442 58.6317 48.2804 58.4226 48.2213C58.2693 48.178 58.1248 48.1371 58 48C57.9313 47.9245 57.8964 47.755 57.8578 47.5668C57.8049 47.3096 57.7448 47.0175 57.5813 46.8834C57.5971 46.5871 57.6062 46.2895 57.6062 45.9894C57.6062 39.368 53.7129 33.6601 48.1413 31.1128C48.099 31.2868 48.0396 31.465 47.9538 31.6453C47.9773 31.6674 48.0019 31.6898 48.024 31.71L48.0301 31.7156C48.2471 31.9132 48.5753 32.2125 48.813 32.6976C49.3764 33.8476 49.0304 35.0751 47.7845 36.3467C47.2049 36.938 46.9738 37.6563 46.9817 37.8997C47.4024 38.411 47.8583 39.6584 48.0417 40.1922C48.6865 42.0698 48.6018 42.6366 48.2205 43.0256C47.6372 43.6207 47.0435 43.8413 46.4705 43.8413C45.4549 43.8413 44.5043 43.1491 43.7871 42.6269L43.7853 42.6256L43.7277 42.5837C43.5669 42.4668 43.4064 42.3501 43.2456 42.2408C42.4065 41.6703 41.8851 40.8322 41.4658 40.1581L41.4649 40.1566C41.2645 39.8337 41.0429 39.4772 40.8579 39.2889C40.5799 39.4705 40.0949 39.9361 39.7559 40.2616C38.7203 41.2563 37.5466 42.3831 36.2866 42.3831C34.4822 42.3831 33.7072 40.7589 33.2911 39.8861C33.2143 39.7253 33.1089 39.5048 33.0625 39.4434C33.0625 39.4434 31.7987 38.0085 31.2955 36.9172C30.6449 36.9507 29.2882 37.1619 28.0668 37.4002C26.5429 39.8963 25.6596 42.8389 25.6596 45.9894C25.6596 52.3932 29.3002 57.9437 34.5797 60.6061V60.381C34.5797 59.9137 34.9515 59.5344 35.4095 59.5344H35.8584L35.8804 59.5105C35.8907 59.4993 35.9015 59.4875 35.9132 59.4751C35.9688 59.4154 36.0343 59.3465 36.1136 59.2656C36.1347 59.2436 36.1555 59.2237 36.1762 59.2039C35.9658 58.7899 36.0775 58.3103 36.1696 57.9149C36.1966 57.7998 36.2372 57.6254 36.2393 57.5636V56.676C36.2393 56.4051 36.3663 56.1511 36.5808 55.992C36.7948 55.832 37.0716 55.7879 37.3238 55.8705L38.6772 56.3158C38.7116 56.3272 38.7461 56.3412 38.7788 56.3568C39.1556 56.5388 39.6331 56.712 39.7808 56.72C39.7746 56.7173 39.7822 56.7049 39.7925 56.6899C39.7939 56.6877 39.7955 56.6855 39.797 56.6833C39.8064 56.6697 39.8167 56.6549 39.8206 56.6434C39.8194 56.5158 39.9791 56.4199 40.1344 56.3267C40.2589 56.2519 40.3806 56.1789 40.4143 56.0925C40.5238 56.858 40.7158 57.5968 40.9811 58.2997C40.7525 58.4246 40.5 58.5 39.7758 58.4131C39.2402 58.4131 38.4718 58.0792 38.1171 57.9103L37.8794 57.832C37.8673 57.9196 37.8507 58.0072 37.8321 58.0944C38.1665 58.1528 38.4249 58.298 38.5718 58.6595C38.8137 59.2559 38.3739 59.705 38.1374 59.9458C37.8234 60.2662 37.5794 60.3771 37.3201 60.43C37.3141 60.4356 37.3077 60.4421 37.3011 60.4488L37.2873 60.4626C37.2262 60.525 37.1749 60.5796 37.1302 60.6272L37.1118 60.6468C36.8264 60.9507 36.6152 61.1306 36.2393 61.1975V61.3274C37.925 61.9462 39.7406 62.2857 41.6329 62.2857C42.1624 62.2857 42.684 62.2516 43.2001 62.1994C43.7861 62.7439 44.4344 63.2222 45.1331 63.6225ZM46.5568 30.4889C45.0051 29.9746 43.3509 29.6931 41.6329 29.6931C36.7745 29.6931 32.419 31.9204 29.4865 35.4239C31.8892 35.0442 32.1904 35.2935 32.4202 35.4857C32.6065 35.6415 32.7223 35.8616 32.7467 36.0999C32.8895 36.4935 33.8582 37.8633 34.254 38.2671C34.4674 38.4843 34.6063 38.7754 34.7822 39.1441L34.783 39.1458C35.2004 40.0207 35.5763 40.6904 36.2862 40.6904C36.8881 40.6904 37.8879 39.7301 38.6177 39.0292C39.6454 38.0421 40.533 37.1915 41.4582 37.6626C42.0745 37.977 42.4586 38.5946 42.8654 39.2487L42.8666 39.2506C43.2365 39.8454 43.6189 40.4603 44.1658 40.8322C44.3604 40.9642 44.555 41.1056 44.7495 41.2474C45.9482 42.1211 46.4008 42.3141 46.8352 42.0123C46.7083 41.2483 45.9984 39.3549 45.7191 38.9977C44.8649 38.127 45.4843 36.2988 46.6108 35.1496C47.6426 34.0965 47.4144 33.6301 47.3281 33.4548C47.2323 33.2593 47.0891 33.1285 46.9232 32.9774L46.9221 32.9764C46.5906 32.6734 45.9027 32.0445 46.4552 30.9168C46.5253 30.7733 46.5514 30.6265 46.5568 30.4889Z" fill="#01161E"/>
<path d="M41.4161 53.4076C41.4115 53.2797 41.4092 53.1513 41.4092 53.0222C41.4092 52.5356 41.8141 51.969 41.8782 51.5C41.2314 51.3445 39.758 51.1901 39.3762 51.1901C39.1634 51.1901 38.9916 51.1842 38.8622 51.1731V50.393H39.4102C40.0803 50.393 40.3437 50.1649 40.6981 49.7886L40.7296 49.7553C40.7707 49.7117 40.8166 49.6631 40.8698 49.6091C40.9437 49.5338 41.0893 49.4665 41.2461 49.4148L41.8782 49.9777C41.9452 49.7532 42.0497 49.576 42.1565 49.3952C42.2337 49.2644 42.3121 49.1317 42.3782 48.9777C42.4301 48.8567 42.5306 48.7873 42.6318 48.7176C42.7265 48.6523 42.8217 48.5866 42.8782 48.4777C42.8782 48.4777 42.4306 48.2043 42.2564 47.9668C42.0821 47.7293 41.7975 47.5985 41.5088 47.6328C41.3138 47.6527 40.3106 47.7852 39.6965 48.4121C39.6236 48.4865 39.5625 48.5511 39.5089 48.6079L39.5023 48.6148C39.4884 48.6295 39.4755 48.6435 39.4633 48.6567C39.4598 48.6605 39.4563 48.6643 39.4528 48.6681C39.4425 48.6792 39.4327 48.6897 39.4231 48.6995H38.0324C37.5743 48.6995 37.2026 49.0788 37.2026 49.5461V51.5909C37.2026 52.879 38.7713 52.9327 39.3683 52.9327H39.3741C39.5745 52.9327 40.4591 53.2265 41.1988 53.4076C41.2281 53.4403 41.388 53.3755 41.4161 53.4076Z" fill="#01161E"/>
<path fill-rule="evenodd" clip-rule="evenodd" d="M33.0807 47.3769C33.3027 47.4603 33.4794 47.636 33.5665 47.8603C33.9457 48.8364 34.4897 50.0377 34.695 50.2701C35.1356 50.7192 35.2356 51.3354 34.9589 51.9141C34.7971 52.2523 34.544 52.5249 34.2544 52.8199C34.1623 52.9139 33.993 53.2246 33.8698 53.451C33.4956 54.1375 33.1084 54.8478 32.3584 54.8478C31.6145 54.8478 31.0104 54.2667 30.8971 54.1503C30.6465 53.8925 30.5843 53.5014 30.7424 53.1767C30.8303 52.9934 31.0473 52.4402 31.0863 51.9213C30.5743 51.7761 30.3578 51.4815 30.2715 51.211C30.0408 51.0802 29.5379 50.8902 29.0928 50.7712C28.6692 50.6578 28.4044 50.2281 28.4891 49.7896L28.9256 47.5196C29.0019 47.1225 29.3429 46.836 29.7396 46.836H31.4854C31.5829 46.836 31.6796 46.8533 31.7713 46.8876L33.0807 47.3769ZM32.7396 52.0698C32.845 51.9035 32.9571 51.7498 33.0807 51.6237L33.0896 51.6145C33.1626 51.5397 33.2911 51.4079 33.3798 51.2999C32.9658 50.7479 32.4629 49.5822 32.1634 48.8377L31.3381 48.5291H30.4225L30.2615 49.3651C31.2046 49.7029 31.5975 50.0584 31.7613 50.3534C32.5737 50.6222 32.7517 51.2597 32.7517 51.7672C32.7517 51.8688 32.7475 51.9699 32.7396 52.0698Z" fill="#01161E"/>
<path d="M61.9999 60.1882C61.9999 58.8577 61.5969 57.573 60.8343 56.473C60.2858 55.6818 59.5795 55.0248 58.761 54.5365C59.7247 53.6343 60.3276 52.3592 60.3276 50.9466C60.3276 48.2191 58.0828 46 55.3238 46C53.6877 46 52.1551 46.7999 51.2242 48.1129C50.9877 48.0789 50.746 48.0605 50.5 48.0605C50.254 48.0605 50.0123 48.0789 49.7758 48.1129C48.8448 46.7999 47.3122 46 45.6762 46C42.9171 46 40.6723 48.2191 40.6723 50.9466C40.6723 52.3592 41.2753 53.6343 42.239 54.5365C41.4205 55.0247 40.7141 55.6818 40.1657 56.473C39.4031 57.573 39 58.8577 39 60.1882V62.9396H43.8238V65H57.1763V62.9396H62L61.9999 60.1882ZM55.3238 47.2209C57.402 47.2209 59.0927 48.8922 59.0927 50.9467C59.0927 53.0011 57.402 54.6725 55.3238 54.6725C55.2865 54.6725 55.2493 54.672 55.212 54.6709C55.2148 54.663 55.2172 54.655 55.22 54.6472C55.2843 54.4669 55.338 54.2817 55.381 54.0926C55.384 54.0791 55.3875 54.0658 55.3904 54.0523C55.4016 54.0013 55.4114 53.9498 55.421 53.8981C55.4255 53.8737 55.4301 53.8494 55.4342 53.8249C55.442 53.7788 55.4491 53.7325 55.4555 53.6861C55.46 53.6538 55.4641 53.6215 55.468 53.5891C55.4729 53.5481 55.4776 53.507 55.4815 53.4657C55.4855 53.4235 55.4884 53.3813 55.4913 53.339C55.4935 53.3057 55.4963 53.2725 55.4978 53.239C55.5012 53.1671 55.5031 53.0951 55.5034 53.0231C55.5034 53.0178 55.5038 53.0126 55.5038 53.0072C55.5038 53.0044 55.5036 53.0015 55.5036 52.9986C55.5035 52.9251 55.5013 52.852 55.498 52.7791C55.497 52.7579 55.4957 52.7368 55.4944 52.7157C55.4908 52.6537 55.486 52.592 55.4802 52.5307C55.4788 52.5168 55.4777 52.5029 55.4763 52.489C55.2897 50.7061 54.1503 49.18 52.5065 48.4741C53.2148 47.6875 54.2394 47.2209 55.3238 47.2209ZM49.1959 49.5113C49.208 49.5069 49.2201 49.5028 49.2322 49.4986C49.2696 49.4853 49.3074 49.4727 49.3454 49.4606C49.3742 49.4515 49.4031 49.4427 49.4323 49.4343C49.4535 49.4281 49.4747 49.4222 49.496 49.4163C49.534 49.406 49.5723 49.3959 49.6109 49.3867C49.8961 49.3182 50.1936 49.2811 50.4998 49.2811C50.8063 49.2813 51.1039 49.3185 51.3893 49.387C51.4276 49.3962 51.4656 49.4062 51.5034 49.4165C51.525 49.4224 51.5467 49.4284 51.5681 49.4346C51.5969 49.443 51.6255 49.4517 51.654 49.4606C51.6924 49.4729 51.7307 49.4856 51.7686 49.499C51.7802 49.5031 51.7919 49.507 51.8035 49.5113C53.064 49.972 54.009 51.081 54.2229 52.4267C54.2246 52.4375 54.2262 52.4483 54.2278 52.4591C54.2347 52.5047 54.2404 52.5507 54.2455 52.5967C54.2474 52.6137 54.2494 52.6306 54.251 52.6477C54.2551 52.6897 54.2581 52.7321 54.2608 52.7746C54.262 52.7927 54.2635 52.8109 54.2644 52.8291C54.267 52.8834 54.2684 52.938 54.2686 52.9928C54.2686 52.9976 54.2689 53.0022 54.2689 53.007C54.2689 53.0092 54.2687 53.0115 54.2687 53.0137C54.2686 53.0668 54.267 53.1195 54.2647 53.1721C54.2639 53.1886 54.2632 53.2051 54.2622 53.2216C54.2593 53.2724 54.2555 53.3229 54.2505 53.3731C54.2486 53.3925 54.246 53.4119 54.2438 53.4312C54.24 53.4637 54.2358 53.4961 54.2313 53.5283C54.2277 53.5534 54.2241 53.5786 54.22 53.6036C54.2138 53.6416 54.2069 53.6794 54.1995 53.717C54.1929 53.7505 54.1856 53.7839 54.1781 53.8173C54.1736 53.8373 54.1689 53.8574 54.164 53.8774C54.152 53.9269 54.1388 53.9761 54.1247 54.0251C54.1191 54.0446 54.1138 54.0642 54.1079 54.0835C54.0993 54.1115 54.09 54.1394 54.0808 54.1672C54.0734 54.1895 54.0658 54.2116 54.058 54.2337C54.0491 54.2588 54.0403 54.284 54.031 54.3089C54.015 54.3512 53.9982 54.3931 53.9807 54.4347C53.9729 54.4532 53.9646 54.4716 53.9565 54.4901C53.9413 54.5247 53.9256 54.5591 53.9093 54.5932C53.9074 54.5972 53.9055 54.6013 53.9036 54.6053C53.8977 54.6174 53.8919 54.6295 53.8859 54.6416C53.8676 54.6785 53.8486 54.7149 53.8291 54.7511C53.8215 54.7651 53.8142 54.7793 53.8064 54.7933L53.8049 54.7959C53.7835 54.8344 53.7612 54.8722 53.7386 54.9098C53.7296 54.9247 53.7207 54.9397 53.7115 54.9544C53.6868 54.994 53.6614 55.0332 53.6353 55.0718C53.619 55.0958 53.6021 55.1193 53.5853 55.1429C53.571 55.1629 53.5568 55.183 53.5422 55.2027C53.5232 55.2282 53.5039 55.2534 53.4842 55.2785C53.4709 55.2955 53.4574 55.3125 53.4439 55.3293C53.4231 55.3549 53.4022 55.3805 53.3808 55.4055C53.3675 55.4211 53.3539 55.4364 53.3404 55.4517C53.3181 55.4769 53.296 55.5022 53.2731 55.5268C53.2595 55.5414 53.2455 55.5554 53.2316 55.5698C53.1945 55.6086 53.1564 55.6465 53.1176 55.6836C53.0946 55.7057 53.0717 55.7278 53.0481 55.7492C53.0318 55.764 53.0151 55.7784 52.9985 55.793C52.9714 55.8168 52.9442 55.8403 52.9165 55.8632C52.9024 55.8749 52.8882 55.8864 52.8739 55.8979C52.8404 55.9249 52.8064 55.9513 52.7719 55.9772C52.7625 55.9842 52.7533 55.9913 52.7438 55.9983C52.1165 56.4593 51.3399 56.7326 50.4999 56.7326C49.6598 56.7326 48.8832 56.4593 48.2558 55.9981C48.2465 55.9913 48.2375 55.9843 48.2283 55.9774C48.1936 55.9514 48.1595 55.9248 48.1258 55.8977C48.1117 55.8863 48.0975 55.8749 48.0836 55.8633C48.0557 55.8402 48.0285 55.8166 48.0013 55.7928C47.9848 55.7783 47.9681 55.764 47.9519 55.7492C47.9282 55.7277 47.9053 55.7056 47.8822 55.6835C47.8432 55.6462 47.8051 55.6082 47.7678 55.5693C47.7542 55.5551 47.7402 55.5412 47.7268 55.5268C47.7039 55.5022 47.6817 55.4768 47.6595 55.4516C47.646 55.4363 47.6324 55.4211 47.6191 55.4055C47.5977 55.3805 47.5768 55.3549 47.5561 55.3294C47.5425 55.3125 47.529 55.2956 47.5156 55.2785C47.4961 55.2535 47.4767 55.2283 47.4578 55.2028C47.4431 55.183 47.4289 55.1628 47.4146 55.1428C47.3978 55.1192 47.3809 55.0958 47.3647 55.0718C47.3385 55.0331 47.313 54.9938 47.2882 54.954C47.2791 54.9394 47.2704 54.9247 47.2615 54.91C47.2385 54.8719 47.2159 54.8335 47.1942 54.7945C47.1863 54.7802 47.1787 54.7656 47.1709 54.7512C47.1514 54.7149 47.1323 54.6784 47.114 54.6414C47.1074 54.6283 47.1011 54.6151 47.0947 54.6019C47.0937 54.5999 47.0928 54.5978 47.0919 54.5958C47.0748 54.5602 47.0584 54.5242 47.0424 54.4879C47.0348 54.4706 47.0271 54.4534 47.0198 54.436C47.0019 54.3935 46.9848 54.3507 46.9684 54.3075C46.9596 54.2842 46.9514 54.2606 46.9431 54.2371C46.9345 54.213 46.9263 54.1887 46.9182 54.1643C46.9095 54.138 46.9007 54.1116 46.8925 54.0851C46.8804 54.0455 46.8689 54.0056 46.8581 53.9655C46.8505 53.9374 46.8436 53.909 46.8367 53.8807C46.8312 53.8584 46.826 53.8361 46.821 53.8137C46.8148 53.7862 46.8086 53.7588 46.803 53.7312C46.7944 53.6883 46.7866 53.6451 46.7795 53.6016C46.7757 53.5782 46.7724 53.5547 46.769 53.5312C46.764 53.4965 46.7595 53.4616 46.7555 53.4265C46.7535 53.4093 46.7512 53.392 46.7494 53.3747C46.7443 53.3233 46.7404 53.2714 46.7374 53.2194C46.7366 53.2045 46.7359 53.1895 46.7352 53.1746C46.7327 53.1189 46.7309 53.0632 46.7309 53.007C46.7309 52.9468 46.7326 52.8871 46.7355 52.8275C46.7363 52.8114 46.7377 52.7953 46.7386 52.7792C46.7413 52.7345 46.7446 52.69 46.7489 52.6456C46.7504 52.6302 46.7522 52.6148 46.7539 52.5994C46.7592 52.5515 46.7652 52.5037 46.7723 52.4563C46.7737 52.4471 46.775 52.4378 46.7765 52.4286C46.9897 51.082 47.935 49.9724 49.1959 49.5113ZM41.9073 50.9467C41.9073 48.8923 43.598 47.2209 45.6762 47.2209C46.7607 47.2209 47.7852 47.6875 48.4935 48.474C46.8492 49.1801 45.7095 50.7069 45.5235 52.4906C45.5222 52.5027 45.5212 52.5148 45.5201 52.527C45.5139 52.5905 45.509 52.6543 45.5053 52.7185C45.5042 52.738 45.503 52.7575 45.502 52.7771C45.4985 52.8534 45.4961 52.93 45.4961 53.0072C45.4961 53.0851 45.4984 53.1628 45.5021 53.2404C45.5036 53.2717 45.5062 53.3026 45.5082 53.3337C45.5112 53.3784 45.5143 53.4231 45.5185 53.4676C45.5222 53.5072 45.5268 53.5466 45.5315 53.586C45.5356 53.6203 45.5399 53.6545 45.5447 53.6886C45.551 53.7335 45.5578 53.7782 45.5653 53.8227C45.5698 53.8491 45.5747 53.8755 45.5796 53.9019C45.5889 53.9517 45.5983 54.0014 45.6091 54.0506C45.6126 54.0669 45.6167 54.083 45.6204 54.0991C45.6623 54.2824 45.7144 54.4619 45.7764 54.6369C45.7803 54.6482 45.7838 54.6596 45.7878 54.6709C45.7506 54.672 45.7133 54.6725 45.6761 54.6725C43.598 54.6724 41.9073 53.0011 41.9073 50.9467ZM44.8591 58.7295C44.8455 58.7506 44.8326 58.7722 44.8192 58.7935C44.791 58.8385 44.763 58.8837 44.736 58.9293C44.7209 58.9548 44.7063 58.9804 44.6916 59.006C44.6673 59.0483 44.6433 59.0908 44.6199 59.1335C44.6052 59.1605 44.5908 59.1875 44.5764 59.2145C44.554 59.2571 44.532 59.2999 44.5106 59.3428C44.497 59.3698 44.4836 59.3967 44.4705 59.4238C44.4486 59.469 44.4276 59.5146 44.4068 59.5603C44.3955 59.5851 44.3839 59.6098 44.3729 59.6348C44.3488 59.6894 44.3259 59.7446 44.3033 59.7999C44.2967 59.816 44.2897 59.832 44.2833 59.8482C44.2547 59.9201 44.2273 59.9924 44.2014 60.0651C44.1955 60.0818 44.1901 60.0986 44.1843 60.1153C44.1648 60.1713 44.1458 60.2275 44.1278 60.284C44.1196 60.3099 44.112 60.336 44.1041 60.362C44.0896 60.4099 44.0753 60.4578 44.0619 60.506C44.0539 60.5347 44.0463 60.5634 44.0387 60.5922C44.0265 60.6385 44.0148 60.6849 44.0037 60.7315C43.9966 60.761 43.9897 60.7904 43.983 60.82C43.9724 60.8672 43.9625 60.9145 43.9529 60.962C43.9472 60.9905 43.9412 61.019 43.9359 61.0476C43.9262 61.0992 43.9175 61.1511 43.909 61.2031C43.9051 61.2275 43.9007 61.2518 43.897 61.2762C43.8855 61.3525 43.875 61.429 43.8663 61.5058L43.866 61.5086C43.8581 61.5785 43.8512 61.6485 43.8455 61.7187H40.235V60.1882C40.235 58.097 41.451 56.2197 43.3562 55.3274C44.0502 55.688 44.8392 55.8933 45.6762 55.8933C45.9182 55.8933 46.161 55.8756 46.402 55.8406C46.4395 55.8935 46.4777 55.9459 46.5172 55.9973C46.5305 56.0145 46.5443 56.0314 46.5579 56.0485C46.597 56.0978 46.6365 56.1466 46.6774 56.1944C46.6941 56.214 46.7113 56.2331 46.7284 56.2525C46.7666 56.2959 46.8055 56.3389 46.8453 56.3809C46.8662 56.4031 46.8874 56.4249 46.9087 56.4467C46.945 56.4837 46.9819 56.5202 47.0194 56.5562C47.0334 56.5696 47.0467 56.5839 47.0609 56.5973C47.0073 56.6293 46.9541 56.6622 46.9014 56.6957C46.8928 56.7011 46.8845 56.7069 46.8759 56.7124C46.8233 56.7462 46.7711 56.7807 46.7195 56.8159C46.7017 56.8282 46.6839 56.8405 46.6661 56.8528C46.6201 56.8849 46.5746 56.9175 46.5295 56.9506C46.5152 56.9611 46.5008 56.9714 46.4866 56.982C46.4292 57.0249 46.3724 57.0686 46.3164 57.1133C46.3042 57.123 46.2922 57.1331 46.28 57.143C46.2354 57.1791 46.1913 57.2158 46.1477 57.253C46.1308 57.2674 46.114 57.2819 46.0972 57.2965C46.0535 57.3346 46.0104 57.3731 45.9677 57.4123C45.9566 57.4225 45.9453 57.4325 45.9342 57.4428C45.8819 57.4915 45.8303 57.5411 45.7795 57.5916C45.7663 57.6047 45.7534 57.6181 45.7403 57.6313C45.7014 57.6705 45.6629 57.7102 45.6249 57.7504C45.6099 57.7664 45.5948 57.7824 45.5798 57.7986C45.5371 57.8447 45.495 57.8915 45.4536 57.9389C45.4471 57.9464 45.4404 57.9536 45.4339 57.9611C45.3866 58.0156 45.3404 58.0711 45.2949 58.1272C45.2822 58.1429 45.2697 58.1587 45.2572 58.1745C45.2229 58.2176 45.1892 58.261 45.1559 58.3049C45.1431 58.3219 45.1302 58.3387 45.1175 58.3558C45.0741 58.4144 45.0312 58.4735 44.9895 58.5336C44.9447 58.5982 44.9014 58.6636 44.8591 58.7295ZM45.0588 63.7792V62.9396V62.2486C45.0588 62.1809 45.0601 62.1134 45.0626 62.0461C45.0634 62.0239 45.0652 62.0019 45.0663 61.9798C45.0685 61.9349 45.0706 61.8899 45.0739 61.8452C45.076 61.818 45.0791 61.7911 45.0815 61.764C45.0851 61.7245 45.0883 61.6851 45.0928 61.6459C45.096 61.6172 45.1003 61.5887 45.104 61.56C45.1088 61.5227 45.1133 61.4854 45.1189 61.4483C45.1234 61.4187 45.1288 61.3894 45.1338 61.36C45.1398 61.3242 45.1454 61.2883 45.1522 61.2528C45.158 61.2227 45.1647 61.1929 45.1709 61.1629C45.1781 61.1284 45.1849 61.0937 45.1927 61.0594C45.1997 61.0291 45.2076 60.9991 45.215 60.969C45.2233 60.9354 45.2313 60.9017 45.2402 60.8683C45.2484 60.8379 45.2574 60.8079 45.266 60.7778C45.2754 60.745 45.2846 60.7122 45.2946 60.6797C45.3039 60.6494 45.3141 60.6193 45.324 60.5892C45.3345 60.5573 45.3446 60.5253 45.3557 60.4937C45.3662 60.4637 45.3775 60.434 45.3885 60.4042C45.4001 60.3729 45.4115 60.3414 45.4236 60.3102C45.4352 60.2806 45.4476 60.2514 45.4596 60.222C45.4723 60.1913 45.4848 60.1604 45.498 60.1299C45.5107 60.1006 45.5242 60.0715 45.5375 60.0424C45.5511 60.0125 45.5647 59.9824 45.5789 59.9527C45.5927 59.9237 45.6073 59.8951 45.6217 59.8663C45.6364 59.837 45.6509 59.8077 45.6661 59.7787C45.6811 59.7501 45.6967 59.7219 45.7122 59.6937C45.7279 59.665 45.7434 59.6364 45.7596 59.6081C45.7756 59.58 45.7923 59.5523 45.8088 59.5246C45.8255 59.4966 45.842 59.4686 45.8593 59.4409C45.8764 59.4134 45.894 59.3863 45.9116 59.359C45.9293 59.3317 45.9468 59.3045 45.965 59.2775C45.9831 59.2505 46.0018 59.2239 46.0204 59.1973C46.039 59.1707 46.0575 59.1442 46.0765 59.1179C46.0957 59.0916 46.1154 59.0655 46.1351 59.0395C46.1546 59.0137 46.174 58.9878 46.194 58.9624C46.2141 58.9367 46.2347 58.9114 46.2554 58.886C46.2758 58.8608 46.2963 58.8357 46.3172 58.8109C46.3382 58.786 46.3597 58.7614 46.3812 58.7369C46.4026 58.7124 46.4241 58.688 46.446 58.6638C46.468 58.6396 46.4904 58.6158 46.5127 58.592C46.5351 58.5682 46.5574 58.5446 46.5802 58.5213C46.6031 58.4979 46.6263 58.4748 46.6497 58.4518C46.673 58.4288 46.6964 58.4059 46.7201 58.3832C46.7437 58.3607 46.7677 58.3385 46.7919 58.3163C46.8161 58.2941 46.8404 58.272 46.8651 58.2501C46.8896 58.2284 46.9145 58.2069 46.9395 58.1856C46.9645 58.1642 46.9898 58.1429 47.0153 58.1219C47.0407 58.101 47.0663 58.0805 47.0921 58.06C47.1181 58.0394 47.1443 58.0189 47.1707 57.9987C47.1968 57.9788 47.2232 57.9592 47.2497 57.9396C47.2766 57.9198 47.3037 57.9002 47.3311 57.8809C47.3579 57.8619 47.385 57.8432 47.4122 57.8246C47.4401 57.8057 47.4682 57.7869 47.4964 57.7684C47.5239 57.7505 47.5516 57.7327 47.5795 57.7152C47.6083 57.6971 47.6373 57.6792 47.6665 57.6616C47.6947 57.6446 47.723 57.6279 47.7516 57.6114C47.7812 57.5942 47.8111 57.5773 47.8412 57.5606C47.87 57.5447 47.899 57.5288 47.9282 57.5133C47.9588 57.4971 47.9896 57.4812 48.0206 57.4654C48.05 57.4505 48.0795 57.4358 48.1093 57.4213C48.1327 57.4099 48.1563 57.3989 48.18 57.3879C48.874 57.7485 49.663 57.9537 50.5 57.9537C51.337 57.9537 52.126 57.7485 52.82 57.3879C52.8434 57.3989 52.8669 57.4098 52.8901 57.421C52.9202 57.4357 52.9501 57.4506 52.9798 57.4657C53.0104 57.4812 53.041 57.497 53.0712 57.513C53.1007 57.5287 53.1301 57.5447 53.1592 57.5609C53.1889 57.5774 53.2184 57.594 53.2477 57.611C53.2766 57.6277 53.3054 57.6448 53.3339 57.662C53.3627 57.6794 53.3913 57.697 53.4197 57.7148C53.448 57.7326 53.476 57.7505 53.5039 57.7688C53.5318 57.787 53.5596 57.8056 53.5871 57.8243C53.6146 57.8431 53.6419 57.8619 53.6691 57.8811C53.6962 57.9003 53.723 57.9197 53.7496 57.9393C53.7764 57.959 53.803 57.9788 53.8294 57.999C53.8556 58.019 53.8815 58.0393 53.9073 58.0597C53.9333 58.0803 53.9591 58.101 53.9846 58.122C54.01 58.1429 54.0351 58.164 54.06 58.1853C54.0852 58.2068 54.1102 58.2283 54.1349 58.2502C54.1593 58.2719 54.1835 58.2939 54.2075 58.3159C54.2318 58.3382 54.2561 58.3607 54.28 58.3835C54.3035 58.4059 54.3267 58.4286 54.3497 58.4514C54.3732 58.4746 54.3966 58.4978 54.4197 58.5214C54.4423 58.5446 54.4645 58.568 54.4867 58.5916C54.5093 58.6156 54.5319 58.6396 54.554 58.664C54.5757 58.6879 54.597 58.7121 54.6182 58.7364C54.6399 58.7611 54.6616 58.7859 54.6828 58.8111C54.7036 58.8357 54.7239 58.8606 54.7442 58.8856C54.7649 58.9111 54.7857 58.9366 54.806 58.9625C54.8258 58.9878 54.8452 59.0135 54.8645 59.0392C54.8843 59.0653 54.9041 59.0915 54.9233 59.118C54.9423 59.144 54.9608 59.1705 54.9792 59.197C54.9979 59.2237 55.0167 59.2504 55.0349 59.2775C55.0529 59.3043 55.0704 59.3314 55.0879 59.3585C55.1056 59.386 55.1234 59.4133 55.1406 59.441C55.1577 59.4684 55.1741 59.4963 55.1906 59.524C55.2073 59.5519 55.2241 59.5798 55.2402 59.6081C55.2563 59.6363 55.2718 59.6648 55.2874 59.6933C55.303 59.7217 55.3186 59.75 55.3336 59.7786C55.3488 59.8076 55.3633 59.8369 55.378 59.8662C55.3924 59.8949 55.407 59.9236 55.4209 59.9527C55.4351 59.9823 55.4486 60.0123 55.4621 60.0422C55.4755 60.0714 55.489 60.1005 55.5018 60.13C55.5149 60.1602 55.5272 60.1908 55.5398 60.2213C55.552 60.251 55.5645 60.2805 55.5762 60.3104C55.5883 60.3414 55.5996 60.3727 55.6111 60.4039C55.6222 60.4338 55.6335 60.4635 55.644 60.4936C55.6551 60.5254 55.6654 60.5576 55.6759 60.5896C55.6857 60.6196 55.6959 60.6494 55.7051 60.6797C55.7152 60.7122 55.7243 60.7451 55.7337 60.7779C55.7424 60.808 55.7514 60.8379 55.7595 60.8683C55.7685 60.9017 55.7764 60.9354 55.7848 60.969C55.7922 60.9991 55.8001 61.0291 55.807 61.0594C55.8148 61.0937 55.8216 61.1283 55.8289 61.1628C55.8351 61.1928 55.8418 61.2226 55.8475 61.2528C55.8542 61.288 55.8598 61.3236 55.8659 61.3592C55.8709 61.3889 55.8764 61.4184 55.8809 61.4483C55.8865 61.4851 55.8909 61.5223 55.8957 61.5592C55.8995 61.5881 55.9038 61.6168 55.9071 61.6458C55.9115 61.685 55.9148 61.7245 55.9183 61.7639C55.9208 61.791 55.9239 61.8179 55.9259 61.8451C55.9293 61.8898 55.9314 61.9349 55.9336 61.9799C55.9347 62.0019 55.9365 62.0239 55.9373 62.046C55.9398 62.1133 55.9411 62.1808 55.9411 62.2486V62.9395V63.7792H45.0588ZM57.1548 61.7187C57.1427 61.5701 57.1253 61.4223 57.1032 61.2754C57.0996 61.2522 57.0954 61.2291 57.0917 61.2059C57.0831 61.1527 57.0741 61.0997 57.0642 61.0468C57.0589 61.019 57.0532 60.9913 57.0476 60.9635C57.0379 60.9152 57.0278 60.867 57.017 60.8191C57.0104 60.7901 57.0036 60.7612 56.9967 60.7324C56.9854 60.6853 56.9735 60.6383 56.9612 60.5915C56.9537 60.5631 56.9463 60.5348 56.9384 60.5065C56.9248 60.4578 56.9104 60.4093 56.8957 60.3609C56.8879 60.3354 56.8805 60.3098 56.8724 60.2844C56.8542 60.227 56.8349 60.17 56.8151 60.1131C56.8095 60.0973 56.8045 60.0812 56.7988 60.0653C56.7727 59.9924 56.7454 59.9199 56.7167 59.8478C56.7105 59.8323 56.7038 59.8171 56.6975 59.8016C56.6747 59.7457 56.6513 59.6898 56.627 59.6344C56.6161 59.6098 56.6047 59.5855 56.5936 59.561C56.5726 59.5149 56.5514 59.4689 56.5293 59.4232C56.5164 59.3965 56.503 59.37 56.4898 59.3434C56.4681 59.3001 56.4459 59.2569 56.4232 59.214C56.409 59.1871 56.3948 59.1604 56.3802 59.1337C56.3567 59.0908 56.3327 59.0482 56.3082 59.0057C56.2935 58.9802 56.279 58.9547 56.264 58.9294C56.2368 58.8835 56.2087 58.8382 56.1803 58.7929C56.1671 58.7718 56.1543 58.7505 56.1408 58.7295C56.0985 58.6637 56.0552 58.5983 56.0103 58.5336C55.9686 58.4735 55.9257 58.4144 55.8822 58.3558C55.8696 58.3388 55.8568 58.322 55.8441 58.3052C55.8106 58.261 55.7767 58.2174 55.7424 58.1742C55.7299 58.1587 55.7177 58.1429 55.7051 58.1275C55.6594 58.0712 55.6131 58.0155 55.5657 57.9609C55.5595 57.9538 55.5532 57.9469 55.547 57.9398C55.5052 57.892 55.4628 57.8449 55.4197 57.7984C55.4049 57.7824 55.39 57.7666 55.3751 57.7507C55.3369 57.7103 55.2982 57.6703 55.2591 57.6308C55.2461 57.6178 55.2335 57.6047 55.2205 57.5918C55.1695 57.5413 55.1178 57.4915 55.0653 57.4427C55.0545 57.4326 55.0434 57.4228 55.0325 57.4128C54.9896 57.3734 54.9462 57.3347 54.9024 57.2965C54.8857 57.2819 54.8689 57.2675 54.8521 57.2531C54.8084 57.2158 54.7643 57.1791 54.7196 57.143C54.7075 57.1332 54.6955 57.1231 54.6833 57.1133C54.6274 57.0687 54.5706 57.025 54.5133 56.9821C54.4989 56.9714 54.4844 56.961 54.47 56.9505C54.425 56.9175 54.3798 56.885 54.334 56.8532C54.316 56.8407 54.298 56.8282 54.28 56.8159C54.2289 56.781 54.1773 56.7469 54.1252 56.7134C54.116 56.7075 54.1071 56.7014 54.0979 56.6956C54.0453 56.6622 53.9924 56.6295 53.9388 56.5975C53.9526 56.5845 53.9656 56.5706 53.9792 56.5574C54.0175 56.5208 54.0551 56.4836 54.0921 56.4457C54.1128 56.4246 54.1334 56.4034 54.1536 56.3819C54.1941 56.3392 54.2335 56.2956 54.2724 56.2515C54.2889 56.2328 54.3055 56.2141 54.3218 56.1951C54.3632 56.1466 54.4035 56.0971 54.4431 56.047C54.456 56.0307 54.4693 56.0145 54.482 55.998C54.5217 55.9464 54.5601 55.8938 54.5978 55.8407C54.8387 55.8757 55.0815 55.8934 55.3236 55.8934C56.1606 55.8934 56.9496 55.6882 57.6436 55.3275C59.5488 56.2198 60.7648 58.0971 60.7648 60.1882V61.7187H57.1548Z" fill="#019771" stroke="#019771" stroke-width="0.5"/>
</svg>
