<svg width="7" height="12" viewBox="0 0 7 12" fill="none" xmlns="http://www.w3.org/2000/svg">
<path d="M0.0945407 8.42603C-0.0308627 8.28916 -0.0308632 8.06726 0.0945407 7.93039L0.548667 7.43476C0.674071 7.29789 0.87739 7.29789 1.00279 7.43476L2.85816 9.45972L2.85816 0.358952C2.85816 0.165394 3.00193 0.00848371 3.17928 0.00848372L3.82151 0.00848375C3.99886 0.00848376 4.14262 0.165394 4.14262 0.358952L4.14262 9.45993L5.99818 7.43476C6.12359 7.29789 6.32691 7.29789 6.45231 7.43476L6.90644 7.9304C7.03184 8.06726 7.03184 8.28916 6.90644 8.42603L3.72755 11.8955C3.60215 12.0323 3.39883 12.0323 3.27342 11.8955L0.0945407 8.42603Z" fill="#FF2070"/>
</svg>
