<svg width="140" height="170" viewBox="0 0 140 170" fill="none" xmlns="http://www.w3.org/2000/svg">
<path d="M44.4453 0.0039842L95.8069 0.00398645C95.8069 0.00398645 102.411 -0.367 102.411 6.047C102.411 12.461 102.411 95.2439 102.411 95.2439C102.411 95.2439 100.977 102.224 112.008 102.224C123.039 102.224 137.401 102.224 137.401 102.224C137.401 102.224 142.582 102.482 138.314 106.58C134.045 110.677 74.3026 168.046 74.3026 168.046C74.3026 168.046 70.3122 172.443 65.7373 168.046C61.1623 163.649 0.703242 105.511 0.703242 105.511C0.703242 105.511 -1.9193 102.224 2.96452 102.224C7.84835 102.224 31.5174 102.224 31.5174 102.224C31.5174 102.224 37.6256 103.373 37.6256 94.5569C37.6256 85.7411 37.6256 5.75845 37.6256 5.75845C37.6256 5.75845 37.2065 0.00398389 44.4453 0.0039842Z" fill="#F1F9F7"/>
</svg>
