<svg width="7" height="12" viewBox="0 0 7 12" fill="none" xmlns="http://www.w3.org/2000/svg">
<path d="M6.90644 3.57238C7.03184 3.70925 7.03184 3.93115 6.90644 4.06802L6.45231 4.56365C6.32691 4.70052 6.12359 4.70052 5.99818 4.56365L4.14282 2.53869L4.14282 11.6395C4.14282 11.833 3.99905 11.9899 3.8217 11.9899L3.17947 11.9899C3.00212 11.9899 2.85835 11.833 2.85835 11.6395L2.85835 2.53848L1.00279 4.56365C0.877391 4.70052 0.674071 4.70052 0.548668 4.56365L0.094541 4.06802C-0.0308624 3.93115 -0.0308626 3.70925 0.0945409 3.57238L3.27343 0.10293C3.39883 -0.0339355 3.60215 -0.0339355 3.72755 0.10293L6.90644 3.57238Z" fill="#019771"/>
</svg>
