<svg width="140" height="170" viewBox="0 0 140 170" fill="none" xmlns="http://www.w3.org/2000/svg">
<path d="M95.5547 169.996L44.1931 169.996C44.1931 169.996 37.5885 170.367 37.5885 163.953C37.5885 157.539 37.5885 74.7561 37.5885 74.7561C37.5885 74.7561 39.0225 67.776 27.9918 67.776C16.9612 67.776 2.59925 67.776 2.59925 67.776C2.59925 67.776 -2.58241 67.5177 1.68646 63.4203C5.95533 59.3229 65.6974 1.95418 65.6974 1.95418C65.6974 1.95418 69.6878 -2.44273 74.2627 1.95418C78.8377 6.35109 139.297 64.4893 139.297 64.4893C139.297 64.4893 141.919 67.776 137.035 67.776C132.152 67.776 108.483 67.776 108.483 67.776C108.483 67.776 102.374 66.6273 102.374 75.4431C102.374 84.2589 102.374 164.242 102.374 164.242C102.374 164.242 102.794 169.996 95.5547 169.996Z" fill="#F1F9F7"/>
</svg>
