<svg width="106" height="125" viewBox="0 0 106 125" fill="none" xmlns="http://www.w3.org/2000/svg">
<g opacity="0.3">
<rect x="2" y="37.0001" width="9" height="9" fill="#019771"/>
<rect x="74" y="94.0001" width="7" height="7" fill="#019771"/>
<rect x="59" y="6.10352e-05" width="7" height="7" fill="#019771"/>
<rect x="104" y="8.00006" width="2" height="2" fill="#019771"/>
</g>
<g opacity="0.1">
<rect x="18" y="100" width="8" height="8" fill="#01161E"/>
<rect x="84" y="37.0001" width="5" height="5" fill="#01161E"/>
<rect y="122" width="3" height="3" fill="#01161E"/>
<rect x="32" y="53.0001" width="21" height="21" fill="#01161E"/>
</g>
<path fill-rule="evenodd" clip-rule="evenodd" d="M47.8369 33.0001H39.8369V35.6706H32.8369V42.6201L34.1669 43.0001V37.0006H53.5069V43.6651L54.8369 43.0001V35.6706L47.8369 35.6701V33.0001ZM46.5069 34.3301H41.1669V35.6701H46.5069V34.3301Z" fill="black"/>
<path d="M42 61.1706L38.5 58.6706L33.5 54.5L31.5 55V51.5C33 50.6667 41.6 50.5706 42 50.1706C42.4 49.7706 44.5 49.3372 45.5 49.1706L47.5 50.1706C48.5 51.0039 50.5 50.1 50.5 50.5C50.5 50.9 54.6667 50.3334 55.5 51L56 55L53.5 56.5V58.1706L52.5 58.6706H52L51 59.1706L50.5 60.6706H49L48.5 61.1706L47 61.6706L44.5 61.1706H42Z" fill="#F9FCFB"/>
<path d="M42.1435 60.9348L42.179 60.8864C41.1544 60.135 35.1013 55.058 33.6991 53.8804L35.8752 45.5291L36.496 45.2904C39.5177 45.3968 41.0743 45.2405 42.2384 45.1236C43.2477 45.0222 43.941 44.9527 45.1198 45.1367C46.2982 45.3206 47.9617 45.758 50.9038 46.6729L54.4222 54.9477C54.3204 55.0157 54.2185 55.0847 54.1164 55.1546C53.8961 55.3055 53.652 55.4779 53.3913 55.6652L53.3912 55.6652C53.1238 55.8577 53.0631 56.2305 53.2556 56.4979C53.448 56.7653 53.8208 56.826 54.0882 56.6336L42.1435 60.9348ZM42.1435 60.9348L42.179 60.8864C42.458 61.091 42.9079 61.1258 43.4391 61.0626C44.0459 60.9903 44.722 60.791 45.348 60.5856L45.3481 60.5855C45.6619 60.4835 45.9991 60.6552 46.1011 60.969C46.2032 61.2829 46.0315 61.62 45.7176 61.722C45.0367 61.9456 44.286 62.1663 43.5795 62.2504C42.7928 62.3441 42.0449 62.2696 41.4727 61.8499C40.3239 61.0075 33.3166 55.1204 32.6878 54.5919L32.6872 54.5926L32.6413 54.554C32.6328 54.5469 32.6245 54.5395 32.6165 54.532M42.1435 60.9348L32.6165 54.532M32.5981 54.514C32.4365 54.3489 32.3878 54.1088 32.461 53.8987L35.1738 44.5471L35.1821 44.5185L35.2099 44.5078L35.8393 44.2658L36.0848 44.1713L36.1276 44.1549L36.1267 44.1525L36.1826 44.131C36.2758 44.0952 36.3726 44.0842 36.4655 44.0949C39.4537 44.2034 40.9804 44.0501 42.1207 43.9355L42.1212 43.9355M32.5981 54.514L42.1212 43.9355M32.5981 54.514L32.5969 54.5155L32.6165 54.532M32.5981 54.514L32.6165 54.532M42.1212 43.9355L42.1221 43.9354C43.2261 43.8245 43.992 43.7476 45.2757 43.9478C46.5567 44.1476 48.3533 44.6233 51.523 45.6138L51.5488 45.6219L51.5598 45.6466L54.247 51.6537L55.2954 53.9975L55.6046 54.6887L55.6878 54.8746L55.6927 54.8855L55.6949 54.8846L55.7183 54.9398C55.7222 54.9489 55.7258 54.9581 55.7292 54.9673L55.7416 54.9949L55.739 54.996C55.8235 55.2659 55.706 55.5593 55.4592 55.6967C55.2352 55.8406 55.0123 55.9892 54.7901 56.1414C54.5346 56.3164 54.3031 56.4793 54.0883 56.6336L42.1212 43.9355Z" fill="black" stroke="black" stroke-width="0.12"/>
<path d="M42.1435 60.9348L42.179 60.8864C41.1544 60.135 35.1013 55.058 33.6991 53.8804L35.8752 45.5291L36.496 45.2904C39.5177 45.3968 41.0743 45.2405 42.2384 45.1236C43.2477 45.0222 43.941 44.9527 45.1198 45.1367C46.2982 45.3206 47.9617 45.758 50.9038 46.6729L54.4222 54.9477C54.3204 55.0157 54.2185 55.0847 54.1164 55.1546C53.8961 55.3055 53.652 55.4779 53.3913 55.6652L53.3912 55.6652C53.1238 55.8577 53.0631 56.2305 53.2556 56.4979C53.448 56.7653 53.8208 56.826 54.0882 56.6336L42.1435 60.9348ZM42.1435 60.9348L42.179 60.8864C42.458 61.091 42.9079 61.1258 43.4391 61.0626C44.0459 60.9903 44.722 60.791 45.348 60.5856L45.3481 60.5855C45.6619 60.4835 45.9991 60.6552 46.1011 60.969C46.2032 61.2829 46.0315 61.62 45.7176 61.722C45.0367 61.9456 44.286 62.1663 43.5795 62.2504C42.7928 62.3441 42.0449 62.2696 41.4727 61.8499C40.3239 61.0075 33.3166 55.1204 32.6878 54.5919L32.6872 54.5926L32.6413 54.554C32.6328 54.5469 32.6245 54.5395 32.6165 54.532M42.1435 60.9348L32.6165 54.532M32.5981 54.514C32.4365 54.3489 32.3878 54.1088 32.461 53.8987L35.1738 44.5471L35.1821 44.5185L35.2099 44.5078L35.8393 44.2658L36.0848 44.1713L36.1276 44.1549L36.1267 44.1525L36.1826 44.131C36.2758 44.0952 36.3726 44.0842 36.4655 44.0949C39.4537 44.2034 40.9804 44.0501 42.1207 43.9355L42.1212 43.9355M32.5981 54.514L42.1212 43.9355M32.5981 54.514L32.5969 54.5155L32.6165 54.532M32.5981 54.514L32.6165 54.532M42.1212 43.9355L42.1221 43.9354C43.2261 43.8245 43.992 43.7476 45.2757 43.9478C46.5567 44.1476 48.3533 44.6233 51.523 45.6138L51.5488 45.6219L51.5598 45.6466L54.247 51.6537L55.2954 53.9975L55.6046 54.6887L55.6878 54.8746L55.6927 54.8855L55.6949 54.8846L55.7183 54.9398C55.7222 54.9489 55.7258 54.9581 55.7292 54.9673L55.7416 54.9949L55.739 54.996C55.8235 55.2659 55.706 55.5593 55.4592 55.6967C55.2352 55.8406 55.0123 55.9892 54.7901 56.1414C54.5346 56.3164 54.3031 56.4793 54.0883 56.6336L42.1212 43.9355Z" fill="#019771" stroke="#019771" stroke-width="0.12"/>
<path d="M39.3515 51.3927C39.3309 51.3857 39.3104 51.3775 39.2902 51.368L39.2357 51.3425L39.2369 51.3399C38.4808 50.9639 38.1563 50.338 38.0986 49.6146C38.0398 48.8786 38.2567 48.0409 38.5677 47.2551C38.8792 46.4681 39.2877 45.727 39.6185 45.1822C39.784 44.9097 39.9303 44.6859 40.0355 44.5298C40.0881 44.4517 40.1305 44.3905 40.16 44.3485L40.194 44.3003C40.2027 44.2882 40.2057 44.2841 40.2054 44.2845L40.2054 44.2845C40.3888 44.0106 40.7596 43.9373 41.0334 44.1207C41.3072 44.3041 41.3805 44.6749 41.1971 44.9487M39.3515 51.3927L41.1971 44.9487M39.3515 51.3927C40.6023 51.9128 41.5656 51.2037 42.5774 50.459L42.5882 50.451C43.316 49.9153 44.0789 49.3564 45.0343 49.3948C45.9797 49.4328 47.1338 50.0582 48.6371 51.9376L48.6363 51.9382L48.6735 51.985C48.6957 52.013 48.7199 52.0384 48.7457 52.0612C48.9325 52.2524 49.9326 53.279 50.9381 54.3779C51.4423 54.929 51.9473 55.4976 52.3517 55.988C52.554 56.2332 52.7306 56.4584 52.8693 56.6516C53.0085 56.8457 53.1071 57.0045 53.1557 57.1178L39.3515 51.3927ZM41.1971 44.9487C41.1968 44.9491 41.1954 44.9511 41.1929 44.9545C41.1283 45.0436 40.3452 46.1239 39.7842 47.3094C39.4922 47.9264 39.2635 48.5657 39.2251 49.1047C39.2059 49.3738 39.2345 49.614 39.323 49.8131C39.4052 49.9981 39.5404 50.1506 39.744 50.2589M41.1971 44.9487L39.744 50.2589M39.744 50.2589L39.7441 50.2586L39.7983 50.2841C39.8038 50.2866 39.809 50.2892 39.814 50.2918C40.124 50.415 40.446 50.3591 40.791 50.1974C41.1381 50.0347 41.4988 49.7695 41.8818 49.4876L41.8887 49.4825C42.8002 48.8116 43.8011 48.0748 45.0394 48.0962C46.2838 48.1177 47.7475 48.9026 49.5924 51.2191C49.7536 51.3839 50.7894 52.4462 51.8483 53.6123C52.3801 54.1979 52.9183 54.8103 53.3545 55.3485C53.789 55.8845 54.1277 56.3533 54.2547 56.6498C54.42 57.0354 54.4621 57.4667 54.3813 57.8727C54.3033 58.2646 54.1116 58.6375 53.8056 58.9295C53.5033 59.2179 53.0965 59.4216 52.5895 59.48C52.0603 59.5411 51.4198 59.4396 50.6757 59.1017L50.6747 59.1039L50.6199 59.0783C50.5501 59.0457 50.4893 59.0013 50.4391 58.9484L46.2015 54.7108C45.9678 54.4771 45.9678 54.0981 46.2015 53.8644C46.4352 53.6307 46.8142 53.6307 47.0479 53.8644L51.2233 58.0397C51.7321 58.263 52.1398 58.3283 52.4538 58.2921C52.6868 58.2653 52.8612 58.1798 52.9822 58.0643C53.1 57.9519 53.1757 57.8034 53.2076 57.6431C53.2428 57.4658 53.2253 57.2803 53.1557 57.1178L39.744 50.2589Z" fill="#019771" stroke="#019771" stroke-width="0.12"/>
<path d="M44.9833 56.2085L44.9836 56.2082C44.7408 55.9848 44.3627 56.0005 44.1393 56.2433L44.1393 56.2433C43.9159 56.4861 43.9316 56.8641 44.1744 57.0875L44.1743 57.0875L44.215 57.0434L44.1744 57.0875L44.9833 56.2085ZM44.9833 56.2085L44.9836 56.2082L48.937 59.8575L48.8963 59.9016L48.937 59.8575C49.1023 60.0101 49.4154 60.1156 49.7386 60.115C49.9035 60.1146 50.0585 60.0836 50.1811 60.0174L50.1811 60.0174C50.2769 59.9657 50.3537 59.887 50.3972 59.7747C50.3972 59.7747 50.3972 59.7747 50.3972 59.7747L44.9833 56.2085ZM51.5104 60.2052L51.5104 60.2052C51.3543 60.608 51.0807 60.8897 50.7471 61.0697C50.4415 61.2347 50.0889 61.3072 49.7388 61.3079C49.1357 61.3091 48.5056 61.0856 48.1277 60.7367L51.5104 60.2052ZM51.5104 60.2052C51.6906 59.7402 51.6986 59.1283 51.4388 58.3488M51.5104 60.2052L51.4388 58.3488M51.4388 58.3488C51.4388 58.3488 51.4388 58.3488 51.4388 58.3489L51.3819 58.3677L51.4388 58.3488Z" fill="#019771" stroke="#019771" stroke-width="0.12"/>
<path d="M43.8096 58.653L43.8087 58.6522C43.5736 58.421 43.1956 58.4241 42.9644 58.6592L42.9644 58.6592C42.7332 58.8943 42.7363 59.2723 42.9714 59.5035L42.9717 59.5037L45.6915 62.1461L45.6906 62.147L45.7335 62.189C45.7445 62.1998 45.7558 62.2101 45.7675 62.2199L45.7769 62.2291L45.7776 62.2283C45.8194 62.2619 45.8646 62.289 45.912 62.3098C46.1173 62.4196 46.8739 62.7909 47.6212 62.7223C47.9992 62.6876 48.3766 62.5401 48.677 62.1896C48.9763 61.8404 49.1939 61.2955 49.2662 60.4757L49.2662 60.4756C49.2946 60.1463 49.0507 59.8563 48.7214 59.8279C48.3922 59.7995 48.1022 60.0434 48.0738 60.3726L43.8096 58.653ZM43.8096 58.653L46.5116 61.2776C46.6562 61.3502 47.0128 61.5033 47.3478 61.4548C47.5156 61.4305 47.6774 61.3557 47.8067 61.1932C47.9371 61.0293 48.0386 60.771 48.0737 60.3727L43.8096 58.653Z" fill="#019771" stroke="#019771" stroke-width="0.12"/>
<path d="M50.498 44.7025L56.9741 41.8097L62.1509 53.3994L55.6749 56.2921L50.498 44.7025Z" stroke="black" stroke-width="1.33"/>
<path d="M35.9451 43.2106L29.093 41.3785L25.8143 53.641L32.6663 55.4731L35.9451 43.2106Z" stroke="black" stroke-width="1.33"/>
</svg>
