<svg width="106" height="71" viewBox="0 0 106 71" fill="none" xmlns="http://www.w3.org/2000/svg">
<path d="M25.675 63.24C27.787 63.24 29.451 62.792 30.667 61.896C31.883 61 32.779 59.688 33.355 57.96C33.931 56.168 34.283 53.992 34.411 51.432C34.603 48.872 34.699 45.896 34.699 42.504V28.488C34.699 25.16 34.603 22.216 34.411 19.656C34.283 17.032 33.931 14.856 33.355 13.128C32.779 11.336 31.883 9.992 30.667 9.096C29.451 8.2 27.787 7.752 25.675 7.752C23.563 7.752 21.899 8.2 20.683 9.096C19.467 9.992 18.571 11.336 17.995 13.128C17.419 14.856 17.035 17.032 16.843 19.656C16.715 22.216 16.651 25.16 16.651 28.488V42.504C16.651 45.896 16.715 48.872 16.843 51.432C17.035 53.992 17.419 56.168 17.995 57.96C18.571 59.688 19.467 61 20.683 61.896C21.899 62.792 23.563 63.24 25.675 63.24ZM25.675 70.152C17.099 70.152 10.699 67.176 6.475 61.224C2.251 55.208 0.139 46.632 0.139 35.496C0.139 24.36 2.251 15.816 6.475 9.86399C10.699 3.848 17.099 0.839996 25.675 0.839996C34.251 0.839996 40.651 3.848 44.875 9.86399C49.099 15.816 51.211 24.36 51.211 35.496C51.211 46.632 49.099 55.208 44.875 61.224C40.651 67.176 34.251 70.152 25.675 70.152ZM58.2775 58.44L77.2855 39.624C80.2295 36.744 82.6295 33.8 84.4855 30.792C86.4055 27.784 87.3655 24.488 87.3655 20.904V18.12C87.3655 14.408 86.3735 11.592 84.3895 9.672C82.4695 7.752 79.8775 6.792 76.6135 6.792C74.4375 6.792 72.5815 7.08 71.0455 7.65599V8.232C72.0695 8.936 72.9015 9.768 73.5415 10.728C74.1815 11.688 74.5015 12.84 74.5015 14.184C74.5015 16.296 73.8615 18.12 72.5815 19.656C71.3015 21.192 69.3815 21.96 66.8215 21.96C64.5175 21.96 62.6295 21.224 61.1575 19.752C59.6855 18.216 58.9495 16.2 58.9495 13.704C58.9495 11.912 59.3975 10.248 60.2935 8.712C61.2535 7.112 62.5975 5.736 64.3255 4.584C66.1175 3.432 68.2935 2.536 70.8535 1.89599C73.4135 1.192 76.3255 0.839996 79.5895 0.839996C87.3975 0.839996 93.3815 2.44 97.5415 5.64C101.766 8.84 103.878 13.416 103.878 19.368C103.878 22.056 103.366 24.52 102.342 26.76C101.382 28.936 100.07 30.984 98.4055 32.904C96.8055 34.824 94.9495 36.648 92.8375 38.376C90.7255 40.04 88.5175 41.736 86.2135 43.464L69.1255 56.136V56.52H98.9815V48.072H105.894V69H58.2775V58.44Z" fill="#F1F9F7"/>
</svg>
