<svg width="108" height="71" viewBox="0 0 108 71" fill="none" xmlns="http://www.w3.org/2000/svg">
<path d="M25.675 63.24C27.787 63.24 29.451 62.792 30.667 61.896C31.883 61 32.779 59.688 33.355 57.96C33.931 56.168 34.283 53.992 34.411 51.432C34.603 48.872 34.699 45.896 34.699 42.504V28.488C34.699 25.16 34.603 22.216 34.411 19.656C34.283 17.032 33.931 14.856 33.355 13.128C32.779 11.336 31.883 9.992 30.667 9.096C29.451 8.2 27.787 7.752 25.675 7.752C23.563 7.752 21.899 8.2 20.683 9.096C19.467 9.992 18.571 11.336 17.995 13.128C17.419 14.856 17.035 17.032 16.843 19.656C16.715 22.216 16.651 25.16 16.651 28.488V42.504C16.651 45.896 16.715 48.872 16.843 51.432C17.035 53.992 17.419 56.168 17.995 57.96C18.571 59.688 19.467 61 20.683 61.896C21.899 62.792 23.563 63.24 25.675 63.24ZM25.675 70.152C17.099 70.152 10.699 67.176 6.475 61.224C2.251 55.208 0.139 46.632 0.139 35.496C0.139 24.36 2.251 15.816 6.475 9.86399C10.699 3.848 17.099 0.839996 25.675 0.839996C34.251 0.839996 40.651 3.848 44.875 9.86399C49.099 15.816 51.211 24.36 51.211 35.496C51.211 46.632 49.099 55.208 44.875 61.224C40.651 67.176 34.251 70.152 25.675 70.152ZM62.9815 62.664H77.8615V12.936L61.9255 18.504L59.4295 13.128L81.5095 1.992H93.4135V62.664H107.814V69H62.9815V62.664Z" fill="#F1F9F7"/>
</svg>
