<svg width="107" height="71" viewBox="0 0 107 71" fill="none" xmlns="http://www.w3.org/2000/svg">
<path d="M25.675 63.24C27.787 63.24 29.451 62.792 30.667 61.896C31.883 61 32.779 59.688 33.355 57.96C33.931 56.168 34.283 53.992 34.411 51.432C34.603 48.872 34.699 45.896 34.699 42.504V28.488C34.699 25.16 34.603 22.216 34.411 19.656C34.283 17.032 33.931 14.856 33.355 13.128C32.779 11.336 31.883 9.992 30.667 9.096C29.451 8.2 27.787 7.752 25.675 7.752C23.563 7.752 21.899 8.2 20.683 9.096C19.467 9.992 18.571 11.336 17.995 13.128C17.419 14.856 17.035 17.032 16.843 19.656C16.715 22.216 16.651 25.16 16.651 28.488V42.504C16.651 45.896 16.715 48.872 16.843 51.432C17.035 53.992 17.419 56.168 17.995 57.96C18.571 59.688 19.467 61 20.683 61.896C21.899 62.792 23.563 63.24 25.675 63.24ZM25.675 70.152C17.099 70.152 10.699 67.176 6.475 61.224C2.251 55.208 0.139 46.632 0.139 35.496C0.139 24.36 2.251 15.816 6.475 9.86399C10.699 3.848 17.099 0.839996 25.675 0.839996C34.251 0.839996 40.651 3.848 44.875 9.86399C49.099 15.816 51.211 24.36 51.211 35.496C51.211 46.632 49.099 55.208 44.875 61.224C40.651 67.176 34.251 70.152 25.675 70.152ZM80.1655 70.152C76.7095 70.152 73.6055 69.8 70.8535 69.096C68.1655 68.456 65.8935 67.56 64.0375 66.408C62.2455 65.256 60.8695 63.912 59.9095 62.376C58.9495 60.776 58.4695 59.08 58.4695 57.288C58.4695 54.792 59.1735 52.808 60.5815 51.336C62.0535 49.8 63.9415 49.032 66.2455 49.032C68.7415 49.032 70.6615 49.8 72.0055 51.336C73.3495 52.808 74.0215 54.632 74.0215 56.808C74.0215 57.896 73.6695 58.952 72.9655 59.976C72.3255 61 71.5575 61.896 70.6615 62.664V63.24C72.5815 63.816 74.7255 64.104 77.0935 64.104C81.4455 64.104 84.6775 63.272 86.7895 61.608C88.9015 59.88 89.9575 56.84 89.9575 52.488V49.32C89.9575 45.352 88.8695 42.376 86.6935 40.392C84.5175 38.408 80.9975 37.416 76.1335 37.416H70.2775V30.312H76.1335C80.7415 30.312 84.0375 29.384 86.0215 27.528C88.0695 25.608 89.0935 23.016 89.0935 19.752V17.448C89.0935 13.992 88.1015 11.368 86.1175 9.576C84.1335 7.72 81.5095 6.792 78.2455 6.792C77.0295 6.792 75.8775 6.856 74.7895 6.984C73.7655 7.112 72.9015 7.33599 72.1975 7.65599V8.232C73.2215 8.744 74.0535 9.544 74.6935 10.632C75.3975 11.72 75.7495 12.904 75.7495 14.184C75.7495 16.36 75.0775 18.216 73.7335 19.752C72.4535 21.224 70.5655 21.96 68.0695 21.96C65.7015 21.96 63.7815 21.224 62.3095 19.752C60.9015 18.216 60.1975 16.2 60.1975 13.704C60.1975 11.976 60.6455 10.344 61.5415 8.808C62.4375 7.208 63.7815 5.832 65.5735 4.68C67.3655 3.464 69.5415 2.536 72.1015 1.89599C74.7255 1.192 77.7335 0.839996 81.1255 0.839996C97.4455 0.839996 105.606 6.248 105.606 17.064C105.606 19.24 105.062 21.256 103.974 23.112C102.95 24.968 101.574 26.6 99.8455 28.008C98.1175 29.416 96.1655 30.568 93.9895 31.464C91.8135 32.36 89.6375 32.936 87.4615 33.192V33.96C89.8295 34.216 92.1655 34.728 94.4695 35.496C96.7735 36.264 98.7895 37.32 100.518 38.664C102.31 40.008 103.75 41.672 104.838 43.656C105.926 45.576 106.47 47.848 106.47 50.472C106.47 56.424 104.262 61.192 99.8455 64.776C95.4935 68.36 88.9335 70.152 80.1655 70.152Z" fill="#F1F9F7"/>
</svg>
