<svg width="106" height="125" viewBox="0 0 106 125" fill="none" xmlns="http://www.w3.org/2000/svg">
<g opacity="0.3">
<rect x="2" y="37" width="9" height="9" fill="#019771"/>
<rect x="74" y="94" width="7" height="7" fill="#019771"/>
<rect x="59" width="7" height="7" fill="#019771"/>
<rect x="104" y="8" width="2" height="2" fill="#019771"/>
</g>
<g opacity="0.1">
<rect x="18" y="100" width="8" height="8" fill="#01161E"/>
<rect x="84" y="37" width="5" height="5" fill="#01161E"/>
<rect y="122" width="3" height="3" fill="#01161E"/>
<rect x="32" y="53" width="21" height="21" fill="#01161E"/>
</g>
<path d="M58.8047 43.2762C58.8706 43.3406 58.968 43.3643 59.0563 43.3386C59.1455 43.3123 59.2135 43.2411 59.2323 43.152L61.9946 30.2984C62.0123 30.2167 61.9859 30.1316 61.9256 30.0727C61.8652 30.0133 61.777 29.988 61.6943 30.0054L48.5214 32.6996C48.4301 32.7179 48.3571 32.7843 48.3302 32.8714C48.3038 32.9585 48.3281 33.0526 48.3941 33.1169L50.9307 35.5919L47.6733 38.7712C45.5542 37.6823 43.1829 37.1071 40.8026 37.1071C32.6405 37.1071 26 43.5881 26 51.554C26 59.5195 32.6405 66 40.8026 66C48.9647 66 55.6052 59.519 55.6052 51.554C55.6052 48.784 54.7891 46.0917 53.2431 43.7539L56.2686 40.8012L58.8047 43.2762Z" fill="#FEFEFE"/>
<path d="M58.8047 43.2762C58.8706 43.3406 58.968 43.3643 59.0563 43.3386C59.1455 43.3123 59.2135 43.2411 59.2323 43.152L61.9946 30.2984C62.0123 30.2167 61.9859 30.1316 61.9256 30.0727C61.8652 30.0133 61.777 29.988 61.6943 30.0054L48.5214 32.6996C48.4301 32.7179 48.3571 32.7843 48.3302 32.8714C48.3038 32.9585 48.3281 33.0526 48.3941 33.1169L50.9307 35.5919L47.6733 38.7712C45.5542 37.6823 43.1829 37.1071 40.8026 37.1071C32.6405 37.1071 26 43.5881 26 51.554C26 59.5195 32.6405 66 40.8026 66C48.9647 66 55.6052 59.519 55.6052 51.554C55.6052 48.784 54.7891 46.0917 53.2431 43.7539L56.2686 40.8012L58.8047 43.2762ZM52.7389 43.546C52.6537 43.6291 52.6405 43.7598 52.7069 43.8583C54.2712 46.1536 55.0979 48.8147 55.0979 51.554C55.0979 59.2463 48.6847 65.505 40.8026 65.505C32.9205 65.505 26.5077 59.2463 26.5077 51.554C26.5077 43.8608 32.921 37.6021 40.8031 37.6021C43.1616 37.6021 45.5116 38.1872 47.5988 39.294C47.6951 39.3459 47.8194 39.3296 47.899 39.2514L51.4688 35.7671C51.5165 35.7206 51.5429 35.6577 51.5429 35.5919C51.5429 35.5261 51.516 35.4632 51.4688 35.4167L49.0844 33.0902L61.4184 30.5672L58.8316 42.602L56.4476 40.2755C56.3487 40.179 56.188 40.179 56.089 40.2755L52.7389 43.546Z" fill="#01161E" stroke="#01161E" stroke-width="1.33"/>
<path d="M41.9504 53.9127C41.9504 53.5391 41.8416 53.2429 41.6241 53.0242C41.4113 52.8009 41.0473 52.5959 40.5319 52.409C40.0165 52.2222 39.5721 52.0377 39.1986 51.8554C38.8251 51.6686 38.5035 51.4567 38.234 51.2198C37.9693 50.9783 37.7612 50.6958 37.6099 50.3722C37.4634 50.0487 37.3901 49.6637 37.3901 49.2171C37.3901 48.4471 37.6454 47.816 38.156 47.3239C38.6667 46.8318 39.3452 46.5447 40.1915 46.4627V45H41.3262V46.4832C42.1631 46.5971 42.818 46.9343 43.2908 47.4947C43.7636 48.0506 44 48.7729 44 49.6614H41.9504C41.9504 49.1146 41.8322 48.7068 41.5957 48.438C41.3641 48.1646 41.052 48.0279 40.6596 48.0279C40.2719 48.0279 39.9716 48.1349 39.7589 48.3491C39.5461 48.5587 39.4397 48.8503 39.4397 49.224C39.4397 49.5703 39.5437 49.8482 39.7518 50.0578C39.9598 50.2674 40.3452 50.4816 40.9078 50.7003C41.4752 50.919 41.9409 51.1264 42.305 51.3223C42.669 51.5137 42.9764 51.7324 43.227 51.9784C43.4775 52.2199 43.669 52.4979 43.8014 52.8123C43.9338 53.1222 44 53.4844 44 53.8991C44 54.6737 43.7494 55.3025 43.2482 55.7855C42.747 56.2685 42.0567 56.5533 41.1773 56.6399V58H40.0496V56.6467C39.0804 56.5464 38.3286 56.2161 37.7943 55.6556C37.2648 55.0906 37 54.341 37 53.4069H39.0496C39.0496 53.9492 39.182 54.3661 39.4468 54.6577C39.7163 54.9448 40.1017 55.0883 40.6028 55.0883C41.0189 55.0883 41.3475 54.9835 41.5887 54.7739C41.8298 54.5598 41.9504 54.2727 41.9504 53.9127Z" fill="#019771"/>
</svg>
