<svg width="106" height="125" viewBox="0 0 106 125" fill="none" xmlns="http://www.w3.org/2000/svg">
<g opacity="0.3">
<rect x="2" y="37" width="9" height="9" fill="#019771"/>
<rect x="74" y="94" width="7" height="7" fill="#019771"/>
<rect x="59" width="7" height="7" fill="#019771"/>
<rect x="104" y="8" width="2" height="2" fill="#019771"/>
</g>
<g opacity="0.1">
<rect x="18" y="100" width="8" height="8" fill="#01161E"/>
<rect x="84" y="37" width="5" height="5" fill="#01161E"/>
<rect y="122" width="3" height="3" fill="#01161E"/>
<rect x="32" y="53" width="21" height="21" fill="#01161E"/>
</g>
<circle cx="50" cy="49" r="11" fill="#FEFEFE"/>
<path d="M50.5 34H49.5L49.4843 35.0157V40.2191C49.4843 40.2191 49.9391 40.2191 50.5 40.2191C51.0609 40.2191 51.5157 40.2191 51.5157 40.2191V36.0757C57.3654 36.5914 61.969 41.5184 61.969 47.5C61.969 53.8238 56.8242 58.9686 50.5004 58.9686C44.1767 58.9686 39.0314 53.8238 39.0314 47.5C39.0314 43.8508 40.7936 40.3859 43.7451 38.2306C43.4146 37.7775 42.5473 36.5901 42.5473 36.5901C39.0739 39.126 37 43.2045 37 47.5C37 54.9437 43.0559 61 50.5 61C57.9437 61 64 54.9441 64 47.5C64 40.0559 57.9441 34 50.5 34Z" fill="#01161E"/>
<rect x="44" y="43" width="8" height="2" transform="rotate(30 44 43)" fill="#019771"/>
<path d="M49.6112 47.8662L52.6112 53.0624L54.3433 52.0624L51.3433 46.8662L49.6112 47.8662Z" fill="#01161E"/>
<rect x="27" y="42" width="8" height="2" fill="#019771"/>
<rect x="29" y="52" width="6" height="2" fill="#019771"/>
<rect x="25" y="47" width="10" height="2" fill="#019771"/>
<path d="M49 46H52V49H49V46Z" fill="#01161E"/>
</svg>
