<svg width="106" height="125" viewBox="0 0 106 125" fill="none" xmlns="http://www.w3.org/2000/svg">
<g opacity="0.3">
<rect x="2" y="37" width="9" height="9" fill="#019771"/>
<rect x="74" y="94" width="7" height="7" fill="#019771"/>
<rect x="59" width="7" height="7" fill="#019771"/>
<rect x="104" y="8" width="2" height="2" fill="#019771"/>
</g>
<g opacity="0.1">
<rect x="18" y="100" width="8" height="8" fill="#01161E"/>
<rect x="84" y="37" width="5" height="5" fill="#01161E"/>
<rect y="122" width="3" height="3" fill="#01161E"/>
<rect x="32" y="53" width="21" height="21" fill="#01161E"/>
</g>
<circle cx="43.5" cy="47.5" r="9.655" fill="#FEFEFE" stroke="#01161E" stroke-width="1.61"/>
<path d="M48.2259 44.1097L46.8424 44.4804L46.1126 41.7569C46.0502 41.524 45.8096 41.3772 45.5877 41.4367C45.3658 41.4961 45.2309 41.7436 45.2933 41.9765L45.3797 42.299L39.124 46.2029L37.2996 46.6917C36.6168 46.8747 36.2242 47.5944 36.4162 48.3111L37.0596 50.7121C37.2516 51.4288 37.9515 51.8558 38.6343 51.6729L39.9125 51.3304L40.4587 51.184L47.8064 51.4237L47.8928 51.7462C47.9552 51.9791 48.1958 52.1259 48.4177 52.0664C48.6396 52.007 48.7745 51.7596 48.7121 51.5267L47.9824 48.8032L49.383 48.4279C49.9292 48.2815 49.7443 47.8318 49.5955 47.2763L48.9857 45.0008C48.8369 44.4453 48.7551 43.9679 48.2259 44.1097ZM39.8309 50.4112L38.399 50.7949C38.1771 50.8544 37.9584 50.7209 37.896 50.488L37.2526 48.087C37.1902 47.8541 37.3129 47.6292 37.5348 47.5697L38.9667 47.186L39.8309 50.4112ZM47.5519 50.474L40.6961 50.2946L39.7695 46.8365L45.6171 43.2532L47.5519 50.474ZM49.1093 47.4066C49.1285 47.4782 49.0794 47.5682 49.0112 47.5865L47.7642 47.9206L47.0776 45.3584L48.3246 45.0243C48.3929 45.006 48.4804 45.0594 48.4996 45.131L49.1093 47.4066Z" fill="#01161E" stroke="#01161E" stroke-width="0.7"/>
<path d="M44.3334 61.5433V59.4597H42.6666V61.5433C42.0296 61.7425 41.485 62.1634 41.1316 62.7295C40.7782 63.2957 40.6392 63.9698 40.74 64.6295C40.8408 65.2893 41.1746 65.8912 41.6809 66.326C42.1872 66.7609 42.8326 67 43.5 67C44.1674 67 44.8128 66.7609 45.3191 66.326C45.8254 65.8912 46.1592 65.2893 46.26 64.6295C46.3608 63.9698 46.2218 63.2957 45.8684 62.7295C45.515 62.1634 44.9704 61.7425 44.3334 61.5433Z" fill="#FEFEFE"/>
<path d="M34.4569 55.3759L32.9984 56.8344C32.6004 56.622 32.1575 56.5077 31.7065 56.501C31.3344 56.4996 30.9658 56.5726 30.6223 56.7157C30.2788 56.8589 29.9673 57.0692 29.7063 57.3344C29.1998 57.8608 28.9162 58.5625 28.9146 59.293C28.9181 60.0354 29.2008 60.7494 29.7063 61.2932C30.2501 61.7988 30.9641 62.0814 31.7065 62.085C32.1898 62.0944 32.6669 61.9763 33.09 61.7426C33.513 61.5088 33.867 61.1678 34.1163 60.7537C34.3656 60.3397 34.5013 59.8672 34.5099 59.384C34.5185 58.9008 34.3996 58.4238 34.1652 58.0012L35.6237 56.5427L34.4569 55.3759Z" fill="#FEFEFE"/>
<path d="M56.3774 56.7157C56.7209 56.8589 57.0323 57.0692 57.2933 57.3344C57.81 57.8637 58.0993 58.5741 58.0993 59.3138C58.0993 60.0535 57.81 60.7639 57.2933 61.2932C56.7495 61.7988 56.0356 62.0814 55.2931 62.085C54.5626 62.0834 53.8609 61.7997 53.3345 61.2932C53.0693 61.0322 52.859 60.7207 52.7159 60.3772C52.5727 60.0337 52.4997 59.6651 52.5011 59.293C52.5078 58.842 52.6221 58.3991 52.8345 58.0012L51.376 56.5427L52.5428 55.3759L54.0013 56.8344C54.3992 56.622 54.8421 56.5077 55.2931 56.501C55.6652 56.4996 56.0339 56.5726 56.3774 56.7157Z" fill="#FEFEFE"/>
<path d="M44.3334 35.5403V33.4567C44.9704 33.2575 45.515 32.8366 45.8684 32.2704C46.2218 31.7043 46.3608 31.0302 46.26 30.3704C46.1592 29.7107 45.8254 29.1088 45.3191 28.674C44.8128 28.2391 44.1674 28 43.5 28C42.8326 28 42.1872 28.2391 41.6809 28.674C41.1746 29.1088 40.8408 29.7107 40.74 30.3704C40.6392 31.0302 40.7782 31.7043 41.1316 32.2704C41.485 32.8366 42.0296 33.2575 42.6666 33.4567V35.5403H44.3334ZM43.5 29.6646C43.7225 29.6646 43.9401 29.7306 44.1251 29.8542C44.3101 29.9778 44.4543 30.1536 44.5395 30.3591C44.6246 30.5647 44.6469 30.791 44.6035 31.0092C44.5601 31.2275 44.4529 31.4279 44.2956 31.5853C44.1382 31.7426 43.9378 31.8498 43.7195 31.8932C43.5013 31.9366 43.275 31.9144 43.0694 31.8292C42.8638 31.744 42.6881 31.5998 42.5645 31.4148C42.4409 31.2298 42.3749 31.0122 42.3749 30.7897C42.3749 30.4913 42.4934 30.2051 42.7044 29.9941C42.9154 29.7831 43.2016 29.6646 43.5 29.6646Z" fill="#019771"/>
<path d="M44.3337 61.5433V59.4597H42.6668V61.5433C42.0298 61.7425 41.4853 62.1634 41.1318 62.7295C40.7784 63.2957 40.6395 63.9698 40.7403 64.6295C40.841 65.2893 41.1748 65.8912 41.6811 66.326C42.1875 66.7609 42.8328 67 43.5002 67C44.1677 67 44.813 66.7609 45.3193 66.326C45.8257 65.8912 46.1595 65.2893 46.2602 64.6295C46.361 63.9698 46.2221 63.2957 45.8687 62.7295C45.5152 62.1634 44.9707 61.7425 44.3337 61.5433ZM43.5002 65.3354C43.2777 65.3354 43.0602 65.2694 42.8752 65.1458C42.6901 65.0222 42.5459 64.8464 42.4608 64.6408C42.3756 64.4352 42.3533 64.209 42.3967 63.9908C42.4402 63.7725 42.5473 63.572 42.7047 63.4147C42.862 63.2573 43.0625 63.1502 43.2807 63.1068C43.499 63.0633 43.7252 63.0856 43.9308 63.1708C44.1364 63.2559 44.3121 63.4002 44.4358 63.5852C44.5594 63.7702 44.6254 63.9877 44.6254 64.2103C44.6254 64.5087 44.5068 64.7949 44.2958 65.0059C44.0848 65.2169 43.7987 65.3354 43.5002 65.3354Z" fill="#019771"/>
<path d="M60.2103 44.7079C59.615 44.7075 59.0352 44.8972 58.5554 45.2496C58.0756 45.6019 57.721 46.0984 57.5433 46.6665H55.4597V48.3334H57.5433C57.6974 48.826 57.9849 49.2662 58.3741 49.6052C58.7633 49.9442 59.2388 50.1687 59.7479 50.2538C60.2569 50.3388 60.7796 50.2811 61.2578 50.087C61.7361 49.893 62.1512 49.5701 62.457 49.1544C62.7628 48.7386 62.9474 48.2463 62.9903 47.7319C63.0332 47.2176 62.9327 46.7014 62.6999 46.2408C62.4672 45.7801 62.1113 45.393 61.6718 45.1224C61.2323 44.8518 60.7264 44.7084 60.2103 44.7079ZM60.2103 48.6251C59.9877 48.6251 59.7702 48.5591 59.5852 48.4354C59.4002 48.3118 59.2559 48.1361 59.1708 47.9305C59.0856 47.7249 59.0633 47.4987 59.1068 47.2804C59.1502 47.0622 59.2573 46.8617 59.4147 46.7044C59.572 46.547 59.7725 46.4398 59.9908 46.3964C60.209 46.353 60.4352 46.3753 60.6408 46.4605C60.8464 46.5456 61.0221 46.6898 61.1458 46.8748C61.2694 47.0599 61.3354 47.2774 61.3354 47.4999C61.3354 47.7983 61.2169 48.0845 61.0059 48.2955C60.7949 48.5065 60.5087 48.6251 60.2103 48.6251Z" fill="#019771"/>
<path d="M26.7897 50.2919C27.385 50.2924 27.9648 50.1026 28.4446 49.7503C28.9244 49.398 29.279 48.9015 29.4567 48.3334H31.5403V46.6665H29.4567C29.3026 46.1739 29.015 45.7337 28.6259 45.3947C28.2367 45.0557 27.7612 44.8312 27.2521 44.7461C26.7431 44.6611 26.2204 44.7188 25.7421 44.9128C25.2639 45.1069 24.8488 45.4298 24.543 45.8455C24.2372 46.2612 24.0525 46.7536 24.0097 47.2679C23.9668 47.7823 24.0673 48.2984 24.3001 48.7591C24.5328 49.2197 24.8887 49.6068 25.3282 49.8774C25.7677 50.148 26.2736 50.2915 26.7897 50.2919ZM26.7897 46.3748C27.0122 46.3748 27.2298 46.4408 27.4148 46.5644C27.5998 46.6881 27.744 46.8638 27.8292 47.0694C27.9144 47.275 27.9366 47.5012 27.8932 47.7194C27.8498 47.9377 27.7427 48.1382 27.5853 48.2955C27.4279 48.4529 27.2275 48.56 27.0092 48.6034C26.791 48.6469 26.5647 48.6246 26.3591 48.5394C26.1536 48.4543 25.9778 48.3101 25.8542 48.125C25.7306 47.94 25.6646 47.7225 25.6646 47.4999C25.6646 47.2015 25.7831 46.9154 25.9941 46.7043C26.2051 46.4933 26.4913 46.3748 26.7897 46.3748Z" fill="#019771"/>
<path d="M57.2933 37.6655C57.7998 37.1391 58.0835 36.4374 58.0851 35.7069C58.0815 34.9644 57.7989 34.2505 57.2933 33.7067C56.7495 33.2011 56.0356 32.9185 55.2931 32.9149C54.5626 32.9165 53.8609 33.2002 53.3345 33.7067C53.0693 33.9677 52.859 34.2791 52.7159 34.6226C52.5727 34.9661 52.4997 35.3348 52.5011 35.7069C52.5078 36.1579 52.6221 36.6008 52.8345 36.9987L51.376 38.4572L52.5428 39.624L54.0013 38.1655C54.3992 38.3779 54.8421 38.4922 55.2931 38.4989C55.6652 38.5003 56.0339 38.4273 56.3774 38.2841C56.7209 38.141 57.0323 37.9307 57.2933 37.6655ZM56.0849 36.4987C55.8689 36.6759 55.5948 36.7664 55.3159 36.7527C55.0369 36.739 54.773 36.622 54.5755 36.4245C54.378 36.227 54.261 35.9631 54.2473 35.6841C54.2336 35.4052 54.3241 35.1311 54.5013 34.9151C54.712 34.7065 54.9966 34.5894 55.2931 34.5894C55.5896 34.5894 55.8742 34.7065 56.0849 34.9151C56.1934 35.0165 56.2799 35.1391 56.339 35.2753C56.3982 35.4115 56.4287 35.5584 56.4287 35.7069C56.4287 35.8554 56.3982 36.0023 56.339 36.1385C56.2799 36.2747 56.1934 36.3973 56.0849 36.4987Z" fill="#019771"/>
<path d="M34.4569 55.3759L32.9984 56.8344C32.6004 56.622 32.1575 56.5077 31.7065 56.501C31.3344 56.4996 30.9658 56.5726 30.6223 56.7157C30.2788 56.8589 29.9673 57.0692 29.7063 57.3344C29.1998 57.8608 28.9162 58.5625 28.9146 59.293C28.9181 60.0354 29.2008 60.7494 29.7063 61.2932C30.2501 61.7988 30.9641 62.0814 31.7065 62.085C32.1898 62.0944 32.6669 61.9763 33.09 61.7426C33.513 61.5088 33.867 61.1678 34.1163 60.7537C34.3656 60.3397 34.5013 59.8672 34.5099 59.384C34.5185 58.9008 34.3996 58.4238 34.1652 58.0012L35.6237 56.5427L34.4569 55.3759ZM32.4983 60.0847C32.3969 60.1932 32.2743 60.2798 32.1381 60.3389C32.0019 60.3981 31.855 60.4286 31.7065 60.4286C31.558 60.4286 31.4111 60.3981 31.2749 60.3389C31.1387 60.2798 31.0161 60.1932 30.9148 60.0847C30.7988 59.99 30.7077 59.8683 30.6496 59.7303C30.5915 59.5923 30.5681 59.4421 30.5814 59.293C30.5747 59.1445 30.6011 58.9964 30.6588 58.8595C30.7164 58.7225 30.8039 58.6001 30.9148 58.5012C31.1255 58.2925 31.41 58.1755 31.7065 58.1755C32.0031 58.1755 32.2876 58.2925 32.4983 58.5012C32.6974 58.7168 32.808 58.9995 32.808 59.293C32.808 59.5865 32.6974 59.8692 32.4983 60.0847Z" fill="#019771"/>
<path d="M57.2933 57.3344C57.0323 57.0692 56.7209 56.8589 56.3774 56.7157C56.0339 56.5726 55.6652 56.4996 55.2931 56.501C54.8421 56.5077 54.3992 56.622 54.0013 56.8344L52.5428 55.3759L51.376 56.5427L52.8345 58.0012C52.6221 58.3991 52.5078 58.842 52.5011 59.293C52.4997 59.6651 52.5727 60.0337 52.7159 60.3772C52.859 60.7207 53.0693 61.0322 53.3345 61.2932C53.8609 61.7997 54.5626 62.0834 55.2931 62.085C56.0356 62.0814 56.7495 61.7988 57.2933 61.2932C57.81 60.7639 58.0993 60.0535 58.0993 59.3138C58.0993 58.5741 57.81 57.8637 57.2933 57.3344ZM56.0849 60.0847C55.9835 60.1932 55.8609 60.2798 55.7247 60.3389C55.5885 60.3981 55.4416 60.4286 55.2931 60.4286C55.1446 60.4286 54.9977 60.3981 54.8615 60.3389C54.7253 60.2798 54.6027 60.1932 54.5013 60.0847C54.3947 59.9825 54.3102 59.8595 54.2528 59.7233C54.1955 59.5871 54.1666 59.4407 54.168 59.293C54.1695 59.0716 54.2363 58.8555 54.36 58.6719C54.4837 58.4882 54.6589 58.3452 54.8635 58.2607C55.0682 58.1761 55.2932 58.1539 55.5105 58.1967C55.7277 58.2395 55.9275 58.3454 56.0849 58.5012C56.1934 58.6026 56.2799 58.7252 56.339 58.8614C56.3982 58.9976 56.4287 59.1445 56.4287 59.293C56.4287 59.4415 56.3982 59.5884 56.339 59.7246C56.2799 59.8608 56.1934 59.9834 56.0849 60.0847Z" fill="#019771"/>
<path d="M31.7065 38.4989C32.1575 38.4922 32.6004 38.3779 32.9984 38.1655L34.4569 39.624L35.6237 38.4572L34.1652 36.9987C34.3775 36.6008 34.4918 36.1579 34.4985 35.7069C34.4999 35.3348 34.4269 34.9661 34.2838 34.6226C34.1407 34.2791 33.9303 33.9677 33.6651 33.7067C33.1387 33.2002 32.437 32.9165 31.7065 32.9149C30.9641 32.9185 30.2501 33.2011 29.7063 33.7067C29.2008 34.2505 28.9181 34.9644 28.9146 35.7069C28.9162 36.4374 29.1998 37.1391 29.7063 37.6655C29.9673 37.9307 30.2788 38.141 30.6223 38.2841C30.9658 38.4273 31.3344 38.5003 31.7065 38.4989ZM30.9148 34.9151C31.0137 34.8042 31.1361 34.7168 31.273 34.6591C31.41 34.6015 31.5581 34.575 31.7065 34.5818C31.855 34.575 32.0031 34.6015 32.14 34.6591C32.277 34.7168 32.3994 34.8042 32.4983 34.9151C32.6197 35.0148 32.7189 35.1387 32.7895 35.279C32.8601 35.4193 32.9006 35.5728 32.9083 35.7297C32.916 35.8865 32.8908 36.0433 32.8342 36.1898C32.7777 36.3363 32.6911 36.4694 32.5801 36.5805C32.469 36.6915 32.336 36.7781 32.1894 36.8346C32.0429 36.8911 31.8862 36.9163 31.7293 36.9086C31.5724 36.9009 31.4189 36.8605 31.2786 36.7899C31.1384 36.7193 31.0144 36.6201 30.9148 36.4987C30.8063 36.3973 30.7197 36.2747 30.6606 36.1385C30.6014 36.0023 30.5709 35.8554 30.5709 35.7069C30.5709 35.5584 30.6014 35.4115 30.6606 35.2753C30.7197 35.1391 30.8063 35.0165 30.9148 34.9151Z" fill="#019771"/>
</svg>
