<svg width="106" height="125" viewBox="0 0 106 125" fill="none" xmlns="http://www.w3.org/2000/svg">
<g opacity="0.3">
<rect x="2" y="37" width="9" height="9" fill="#019771"/>
<rect x="74" y="94" width="7" height="7" fill="#019771"/>
<rect x="59" width="7" height="7" fill="#019771"/>
<rect x="104" y="8" width="2" height="2" fill="#019771"/>
</g>
<g opacity="0.1">
<rect x="18" y="100" width="8" height="8" fill="#01161E"/>
<rect x="84" y="37" width="5" height="5" fill="#01161E"/>
<rect y="122" width="3" height="3" fill="#01161E"/>
<rect x="32" y="53" width="21" height="21" fill="#01161E"/>
</g>
<path d="M53.9596 47.5C53.9596 45.4313 53.3462 43.409 52.1969 41.6889C51.0476 39.9689 49.414 38.6283 47.5028 37.8366C45.5915 37.0449 43.4885 36.8378 41.4595 37.2414C39.4306 37.645 37.5669 38.6411 36.1041 40.1039C34.6413 41.5667 33.6451 43.4304 33.2415 45.4594C32.8379 47.4884 33.0451 49.5914 33.8367 51.5026C34.6284 53.4139 35.969 55.0474 37.6891 56.1967C39.4091 57.3461 41.4314 57.9595 43.5001 57.9595C46.2707 57.9485 48.9248 56.843 50.884 54.8838C52.8431 52.9247 53.9486 50.2706 53.9596 47.5Z" fill="#FEFEFE"/>
<path d="M53.9594 47.5C53.9594 45.4313 53.3459 43.409 52.1966 41.6889C51.0473 39.9689 49.4138 38.6283 47.5025 37.8366C45.5913 37.0449 43.4882 36.8378 41.4593 37.2414C39.4303 37.645 37.5666 38.6411 36.1038 40.1039C34.641 41.5667 33.6448 43.4304 33.2413 45.4594C32.8377 47.4884 33.0448 49.5914 33.8365 51.5026C34.6281 53.4139 35.9688 55.0474 37.6888 56.1967C39.4089 57.3461 41.4311 57.9595 43.4998 57.9595C46.2705 57.9485 48.9246 56.843 50.8837 54.8838C52.8429 52.9247 53.9484 50.2706 53.9594 47.5ZM39.5827 55.3342V53.834C39.5827 52.7951 39.9954 51.7988 40.73 51.0642C41.4646 50.3296 42.4609 49.9169 43.4998 49.9169C44.5387 49.9169 45.5351 50.3296 46.2697 51.0642C47.0043 51.7988 47.417 52.7951 47.417 53.834V55.3342C46.2068 55.9625 44.8633 56.2904 43.4998 56.2904C42.1363 56.2904 40.7928 55.9625 39.5827 55.3342ZM43.4998 47.4583C43.0365 47.4582 42.5837 47.3202 42.1991 47.0619C41.8145 46.8036 41.5155 46.4367 41.3402 46.0078C41.1648 45.579 41.1211 45.1076 41.2146 44.6539C41.3081 44.2001 41.5345 43.7844 41.865 43.4598C42.1956 43.1351 42.6153 42.9162 43.0707 42.8309C43.526 42.7457 43.9965 42.7979 44.4221 42.9809C44.8477 43.1639 45.2092 43.4695 45.4606 43.8587C45.7119 44.2479 45.8417 44.7031 45.8334 45.1664C45.8225 45.778 45.5718 46.3609 45.1354 46.7896C44.6989 47.2182 44.1116 47.4584 43.4998 47.4583ZM49.0838 54.2507V53.834C49.0797 52.7004 48.7306 51.5949 48.083 50.6644C47.4354 49.734 46.52 49.0227 45.4584 48.6251C46.0706 48.2765 46.5812 47.774 46.9393 47.1673C47.2975 46.5606 47.4909 45.8708 47.5003 45.1664C47.5003 44.1054 47.0788 43.0878 46.3286 42.3376C45.5784 41.5874 44.5608 41.1659 43.4998 41.1659C42.4388 41.1659 41.4213 41.5874 40.6711 42.3376C39.9208 43.0878 39.4994 44.1054 39.4994 45.1664C39.5088 45.8708 39.7022 46.5606 40.0603 47.1673C40.4185 47.774 40.929 48.2765 41.5413 48.6251C40.4797 49.0227 39.5642 49.734 38.9166 50.6644C38.269 51.5949 37.92 52.7004 37.9159 53.834V54.2507C36.9135 53.4342 36.1055 52.4047 35.5505 51.2371C34.9955 50.0694 34.7074 48.7928 34.7071 47.5C34.7071 46.3453 34.9346 45.2019 35.3765 44.1351C35.8183 43.0684 36.466 42.0991 37.2825 41.2826C38.0989 40.4661 39.0682 39.8184 40.135 39.3766C41.2018 38.9347 42.3452 38.7073 43.4998 38.7073C44.6545 38.7073 45.7979 38.9347 46.8646 39.3766C47.9314 39.8184 48.9007 40.4661 49.7172 41.2826C50.5337 42.0991 51.1813 43.0684 51.6232 44.1351C52.0651 45.2019 52.2925 46.3453 52.2925 47.5C52.2923 48.7928 52.0042 50.0694 51.4492 51.2371C50.8942 52.4047 50.0862 53.4342 49.0838 54.2507Z" fill="#01161E"/>
<path d="M44.3334 61.5433V59.4597H42.6666V61.5433C42.0296 61.7425 41.485 62.1634 41.1316 62.7295C40.7782 63.2957 40.6392 63.9698 40.74 64.6295C40.8408 65.2893 41.1746 65.8912 41.6809 66.326C42.1872 66.7609 42.8326 67 43.5 67C44.1674 67 44.8128 66.7609 45.3191 66.326C45.8254 65.8912 46.1592 65.2893 46.26 64.6295C46.3608 63.9698 46.2218 63.2957 45.8684 62.7295C45.515 62.1634 44.9704 61.7425 44.3334 61.5433Z" fill="#FEFEFE"/>
<path d="M34.4569 55.3759L32.9984 56.8344C32.6004 56.622 32.1575 56.5077 31.7065 56.501C31.3344 56.4996 30.9658 56.5726 30.6223 56.7157C30.2788 56.8589 29.9673 57.0692 29.7063 57.3344C29.1998 57.8608 28.9162 58.5625 28.9146 59.293C28.9181 60.0354 29.2008 60.7494 29.7063 61.2932C30.2501 61.7988 30.9641 62.0814 31.7065 62.085C32.1898 62.0944 32.6669 61.9763 33.09 61.7426C33.513 61.5088 33.867 61.1678 34.1163 60.7537C34.3656 60.3397 34.5013 59.8672 34.5099 59.384C34.5185 58.9008 34.3996 58.4238 34.1652 58.0012L35.6237 56.5427L34.4569 55.3759Z" fill="#FEFEFE"/>
<path d="M56.3774 56.7157C56.7209 56.8589 57.0323 57.0692 57.2933 57.3344C57.81 57.8637 58.0993 58.5741 58.0993 59.3138C58.0993 60.0535 57.81 60.7639 57.2933 61.2932C56.7495 61.7988 56.0356 62.0814 55.2931 62.085C54.5626 62.0834 53.8609 61.7997 53.3345 61.2932C53.0693 61.0322 52.859 60.7207 52.7159 60.3772C52.5727 60.0337 52.4997 59.6651 52.5011 59.293C52.5078 58.842 52.6221 58.3991 52.8345 58.0012L51.376 56.5427L52.5428 55.3759L54.0013 56.8344C54.3992 56.622 54.8421 56.5077 55.2931 56.501C55.6652 56.4996 56.0339 56.5726 56.3774 56.7157Z" fill="#FEFEFE"/>
<path d="M44.3334 35.5403V33.4567C44.9704 33.2575 45.515 32.8366 45.8684 32.2704C46.2218 31.7043 46.3608 31.0302 46.26 30.3704C46.1592 29.7107 45.8254 29.1088 45.3191 28.674C44.8128 28.2391 44.1674 28 43.5 28C42.8326 28 42.1872 28.2391 41.6809 28.674C41.1746 29.1088 40.8408 29.7107 40.74 30.3704C40.6392 31.0302 40.7782 31.7043 41.1316 32.2704C41.485 32.8366 42.0296 33.2575 42.6666 33.4567V35.5403H44.3334ZM43.5 29.6646C43.7225 29.6646 43.9401 29.7306 44.1251 29.8542C44.3101 29.9778 44.4543 30.1536 44.5395 30.3591C44.6246 30.5647 44.6469 30.791 44.6035 31.0092C44.5601 31.2275 44.4529 31.4279 44.2956 31.5853C44.1382 31.7426 43.9378 31.8498 43.7195 31.8932C43.5013 31.9366 43.275 31.9144 43.0694 31.8292C42.8638 31.744 42.6881 31.5998 42.5645 31.4148C42.4409 31.2298 42.3749 31.0122 42.3749 30.7897C42.3749 30.4913 42.4934 30.2051 42.7044 29.9941C42.9154 29.7831 43.2016 29.6646 43.5 29.6646Z" fill="#019771"/>
<path d="M44.3337 61.5433V59.4597H42.6668V61.5433C42.0298 61.7425 41.4853 62.1634 41.1318 62.7295C40.7784 63.2957 40.6395 63.9698 40.7403 64.6295C40.841 65.2893 41.1748 65.8912 41.6811 66.326C42.1875 66.7609 42.8328 67 43.5002 67C44.1677 67 44.813 66.7609 45.3193 66.326C45.8257 65.8912 46.1595 65.2893 46.2602 64.6295C46.361 63.9698 46.2221 63.2957 45.8687 62.7295C45.5152 62.1634 44.9707 61.7425 44.3337 61.5433ZM43.5002 65.3354C43.2777 65.3354 43.0602 65.2694 42.8752 65.1458C42.6901 65.0222 42.5459 64.8464 42.4608 64.6408C42.3756 64.4352 42.3533 64.209 42.3967 63.9908C42.4402 63.7725 42.5473 63.572 42.7047 63.4147C42.862 63.2573 43.0625 63.1502 43.2807 63.1068C43.499 63.0633 43.7252 63.0856 43.9308 63.1708C44.1364 63.2559 44.3121 63.4002 44.4358 63.5852C44.5594 63.7702 44.6254 63.9877 44.6254 64.2103C44.6254 64.5087 44.5068 64.7949 44.2958 65.0059C44.0848 65.2169 43.7987 65.3354 43.5002 65.3354Z" fill="#019771"/>
<path d="M60.2103 44.7079C59.615 44.7075 59.0352 44.8972 58.5554 45.2496C58.0756 45.6019 57.721 46.0984 57.5433 46.6665H55.4597V48.3334H57.5433C57.6974 48.826 57.9849 49.2662 58.3741 49.6052C58.7633 49.9442 59.2388 50.1687 59.7479 50.2538C60.2569 50.3388 60.7796 50.2811 61.2578 50.087C61.7361 49.893 62.1512 49.5701 62.457 49.1544C62.7628 48.7386 62.9474 48.2463 62.9903 47.7319C63.0332 47.2176 62.9327 46.7014 62.6999 46.2408C62.4672 45.7801 62.1113 45.393 61.6718 45.1224C61.2323 44.8518 60.7264 44.7084 60.2103 44.7079ZM60.2103 48.6251C59.9877 48.6251 59.7702 48.5591 59.5852 48.4354C59.4002 48.3118 59.2559 48.1361 59.1708 47.9305C59.0856 47.7249 59.0633 47.4987 59.1068 47.2804C59.1502 47.0622 59.2573 46.8617 59.4147 46.7044C59.572 46.547 59.7725 46.4398 59.9908 46.3964C60.209 46.353 60.4352 46.3753 60.6408 46.4605C60.8464 46.5456 61.0221 46.6898 61.1458 46.8748C61.2694 47.0599 61.3354 47.2774 61.3354 47.4999C61.3354 47.7983 61.2169 48.0845 61.0059 48.2955C60.7949 48.5065 60.5087 48.6251 60.2103 48.6251Z" fill="#019771"/>
<path d="M26.7897 50.2919C27.385 50.2924 27.9648 50.1026 28.4446 49.7503C28.9244 49.398 29.279 48.9015 29.4567 48.3334H31.5403V46.6665H29.4567C29.3026 46.1739 29.015 45.7337 28.6259 45.3947C28.2367 45.0557 27.7612 44.8312 27.2521 44.7461C26.7431 44.6611 26.2204 44.7188 25.7421 44.9128C25.2639 45.1069 24.8488 45.4298 24.543 45.8455C24.2372 46.2612 24.0525 46.7536 24.0097 47.2679C23.9668 47.7823 24.0673 48.2984 24.3001 48.7591C24.5328 49.2197 24.8887 49.6068 25.3282 49.8774C25.7677 50.148 26.2736 50.2915 26.7897 50.2919ZM26.7897 46.3748C27.0122 46.3748 27.2298 46.4408 27.4148 46.5644C27.5998 46.6881 27.744 46.8638 27.8292 47.0694C27.9144 47.275 27.9366 47.5012 27.8932 47.7194C27.8498 47.9377 27.7427 48.1382 27.5853 48.2955C27.4279 48.4529 27.2275 48.56 27.0092 48.6034C26.791 48.6469 26.5647 48.6246 26.3591 48.5394C26.1536 48.4543 25.9778 48.3101 25.8542 48.125C25.7306 47.94 25.6646 47.7225 25.6646 47.4999C25.6646 47.2015 25.7831 46.9154 25.9941 46.7043C26.2051 46.4933 26.4913 46.3748 26.7897 46.3748Z" fill="#019771"/>
<path d="M57.2933 37.6655C57.7998 37.1391 58.0835 36.4374 58.0851 35.7069C58.0815 34.9644 57.7989 34.2505 57.2933 33.7067C56.7495 33.2011 56.0356 32.9185 55.2931 32.9149C54.5626 32.9165 53.8609 33.2002 53.3345 33.7067C53.0693 33.9677 52.859 34.2791 52.7159 34.6226C52.5727 34.9661 52.4997 35.3348 52.5011 35.7069C52.5078 36.1579 52.6221 36.6008 52.8345 36.9987L51.376 38.4572L52.5428 39.624L54.0013 38.1655C54.3992 38.3779 54.8421 38.4922 55.2931 38.4989C55.6652 38.5003 56.0339 38.4273 56.3774 38.2841C56.7209 38.141 57.0323 37.9307 57.2933 37.6655ZM56.0849 36.4987C55.8689 36.6759 55.5948 36.7664 55.3159 36.7527C55.0369 36.739 54.773 36.622 54.5755 36.4245C54.378 36.227 54.261 35.9631 54.2473 35.6841C54.2336 35.4052 54.3241 35.1311 54.5013 34.9151C54.712 34.7065 54.9966 34.5894 55.2931 34.5894C55.5896 34.5894 55.8742 34.7065 56.0849 34.9151C56.1934 35.0165 56.2799 35.1391 56.339 35.2753C56.3982 35.4115 56.4287 35.5584 56.4287 35.7069C56.4287 35.8554 56.3982 36.0023 56.339 36.1385C56.2799 36.2747 56.1934 36.3973 56.0849 36.4987Z" fill="#019771"/>
<path d="M34.4571 55.3759L32.9986 56.8344C32.6007 56.622 32.1578 56.5077 31.7068 56.501C31.3347 56.4996 30.966 56.5726 30.6225 56.7157C30.279 56.8589 29.9676 57.0692 29.7066 57.3344C29.2 57.8608 28.9164 58.5625 28.9148 59.293C28.9184 60.0354 29.201 60.7494 29.7066 61.2932C30.2503 61.7988 30.9643 62.0814 31.7068 62.085C32.19 62.0944 32.6672 61.9763 33.0902 61.7426C33.5133 61.5088 33.8672 61.1678 34.1165 60.7537C34.3658 60.3397 34.5016 59.8672 34.5102 59.384C34.5187 58.9008 34.3998 58.4238 34.1654 58.0012L35.6239 56.5427L34.4571 55.3759ZM32.4985 60.0847C32.3972 60.1932 32.2746 60.2798 32.1384 60.3389C32.0022 60.3981 31.8553 60.4286 31.7068 60.4286C31.5583 60.4286 31.4114 60.3981 31.2752 60.3389C31.139 60.2798 31.0164 60.1932 30.915 60.0847C30.799 59.99 30.708 59.8683 30.6499 59.7303C30.5917 59.5923 30.5683 59.4421 30.5817 59.293C30.5749 59.1445 30.6013 58.9964 30.659 58.8595C30.7167 58.7225 30.8041 58.6001 30.915 58.5012C31.1257 58.2925 31.4103 58.1755 31.7068 58.1755C32.0033 58.1755 32.2879 58.2925 32.4985 58.5012C32.6977 58.7168 32.8083 58.9995 32.8083 59.293C32.8083 59.5865 32.6977 59.8692 32.4985 60.0847Z" fill="#019771"/>
<path d="M57.2933 57.3344C57.0323 57.0692 56.7209 56.8589 56.3774 56.7157C56.0339 56.5726 55.6652 56.4996 55.2931 56.501C54.8421 56.5077 54.3992 56.622 54.0013 56.8344L52.5428 55.3759L51.376 56.5427L52.8345 58.0012C52.6221 58.3991 52.5078 58.842 52.5011 59.293C52.4997 59.6651 52.5727 60.0337 52.7159 60.3772C52.859 60.7207 53.0693 61.0322 53.3345 61.2932C53.8609 61.7997 54.5626 62.0834 55.2931 62.085C56.0356 62.0814 56.7495 61.7988 57.2933 61.2932C57.81 60.7639 58.0993 60.0535 58.0993 59.3138C58.0993 58.5741 57.81 57.8637 57.2933 57.3344ZM56.0849 60.0847C55.9835 60.1932 55.8609 60.2798 55.7247 60.3389C55.5885 60.3981 55.4416 60.4286 55.2931 60.4286C55.1446 60.4286 54.9977 60.3981 54.8615 60.3389C54.7253 60.2798 54.6027 60.1932 54.5013 60.0847C54.3947 59.9825 54.3102 59.8595 54.2528 59.7233C54.1955 59.5871 54.1666 59.4407 54.168 59.293C54.1695 59.0716 54.2363 58.8555 54.36 58.6719C54.4837 58.4882 54.6589 58.3452 54.8635 58.2607C55.0682 58.1761 55.2932 58.1539 55.5105 58.1967C55.7277 58.2395 55.9275 58.3454 56.0849 58.5012C56.1934 58.6026 56.2799 58.7252 56.339 58.8614C56.3982 58.9976 56.4287 59.1445 56.4287 59.293C56.4287 59.4415 56.3982 59.5884 56.339 59.7246C56.2799 59.8608 56.1934 59.9834 56.0849 60.0847Z" fill="#019771"/>
<path d="M31.7068 38.4989C32.1578 38.4922 32.6007 38.3779 32.9986 38.1655L34.4571 39.624L35.6239 38.4572L34.1654 36.9987C34.3778 36.6008 34.492 36.1579 34.4988 35.7069C34.5002 35.3348 34.4272 34.9661 34.284 34.6226C34.1409 34.2791 33.9306 33.9677 33.6653 33.7067C33.139 33.2002 32.4373 32.9165 31.7068 32.9149C30.9643 32.9185 30.2503 33.2011 29.7066 33.7067C29.201 34.2505 28.9184 34.9644 28.9148 35.7069C28.9164 36.4374 29.2 37.1391 29.7066 37.6655C29.9676 37.9307 30.279 38.141 30.6225 38.2841C30.966 38.4273 31.3347 38.5003 31.7068 38.4989ZM30.915 34.9151C31.0139 34.8042 31.1363 34.7168 31.2733 34.6591C31.4102 34.6015 31.5583 34.575 31.7068 34.5818C31.8552 34.575 32.0033 34.6015 32.1403 34.6591C32.2772 34.7168 32.3996 34.8042 32.4985 34.9151C32.6199 35.0148 32.7191 35.1387 32.7897 35.279C32.8604 35.4193 32.9008 35.5728 32.9085 35.7297C32.9162 35.8865 32.891 36.0433 32.8345 36.1898C32.778 36.3363 32.6914 36.4694 32.5803 36.5805C32.4693 36.6915 32.3362 36.7781 32.1897 36.8346C32.0432 36.8911 31.8864 36.9163 31.7296 36.9086C31.5727 36.9009 31.4192 36.8605 31.2789 36.7899C31.1386 36.7193 31.0147 36.6201 30.915 36.4987C30.8065 36.3973 30.72 36.2747 30.6608 36.1385C30.6017 36.0023 30.5712 35.8554 30.5712 35.7069C30.5712 35.5584 30.6017 35.4115 30.6608 35.2753C30.72 35.1391 30.8065 35.0165 30.915 34.9151Z" fill="#019771"/>
</svg>
