<svg width="48" height="48" viewBox="0 0 48 48" fill="none" xmlns="http://www.w3.org/2000/svg">
<rect y="0.000244141" width="48" height="48" fill="#E5F4F0"/>
<path fill-rule="evenodd" clip-rule="evenodd" d="M24 19.5002C21.5147 19.5002 19.5 21.515 19.5 24.0002C19.5 26.4855 21.5147 28.5002 24 28.5002C26.4853 28.5002 28.5 26.4855 28.5 24.0002C28.5 21.515 26.4853 19.5002 24 19.5002ZM21.1875 24.0002C21.1875 25.5535 22.4467 26.8127 24 26.8127C25.5533 26.8127 26.8125 25.5535 26.8125 24.0002C26.8125 22.4469 25.5533 21.1877 24 21.1877C22.4467 21.1877 21.1875 22.4469 21.1875 24.0002Z" fill="#019771"/>
<path d="M28.7241 18.0369C28.1028 18.0369 27.5991 18.5405 27.5991 19.1619C27.5991 19.7832 28.1028 20.2869 28.7241 20.2869C29.3454 20.2869 29.8491 19.7832 29.8491 19.1619C29.8491 18.5405 29.3454 18.0369 28.7241 18.0369Z" fill="#019771"/>
<path fill-rule="evenodd" clip-rule="evenodd" d="M20.0625 15.0002C17.2666 15.0002 15 17.2668 15 20.0627V27.9377C15 30.7337 17.2666 33.0002 20.0625 33.0002H27.9375C30.7334 33.0002 33 30.7337 33 27.9377V20.0627C33 17.2668 30.7334 15.0002 27.9375 15.0002H20.0625ZM27.9375 16.6877H20.0625C18.1985 16.6877 16.6875 18.1988 16.6875 20.0627V27.9377C16.6875 29.8017 18.1985 31.3127 20.0625 31.3127H27.9375C29.8015 31.3127 31.3125 29.8017 31.3125 27.9377V20.0627C31.3125 18.1988 29.8015 16.6877 27.9375 16.6877Z" fill="#019771"/>
</svg>
