<svg width="106" height="125" viewBox="0 0 106 125" fill="none" xmlns="http://www.w3.org/2000/svg">
<g opacity="0.3">
<rect x="2" y="37" width="9" height="9" fill="#019771"/>
<rect x="74" y="94" width="7" height="7" fill="#019771"/>
<rect x="59" width="7" height="7" fill="#019771"/>
<rect x="104" y="8" width="2" height="2" fill="#019771"/>
</g>
<g opacity="0.1">
<rect x="18" y="100" width="8" height="8" fill="#01161E"/>
<rect x="84" y="37" width="5" height="5" fill="#01161E"/>
<rect y="122" width="3" height="3" fill="#01161E"/>
<rect x="32" y="53" width="21" height="21" fill="#01161E"/>
</g>
<path d="M58.3561 50.6505C58.7755 49.1725 59 47.6125 59 46C59 36.6112 51.3888 29 42 29C32.6112 29 25 36.6112 25 46C25 55.3888 32.6112 63 42 63C43.6125 63 45.1725 62.7755 46.6505 62.3561C47.6858 62.7715 48.8162 63 50 63C54.9706 63 59 58.9706 59 54C59 52.8162 58.7715 51.6858 58.3561 50.6505Z" fill="#FEFEFE"/>
<path fill-rule="evenodd" clip-rule="evenodd" d="M45.1331 63.6225C44.0013 63.8558 42.831 63.9788 41.6329 63.9788C31.9099 63.9788 24 55.909 24 45.9894C24 36.0698 31.9099 28 41.6329 28C43.8306 28 45.9336 28.4157 47.8758 29.1683L47.9396 29.1361C47.9459 29.1488 47.9579 29.1746 47.972 29.2072C54.5709 31.8108 59.2658 38.3492 59.2658 45.9894C59.2658 46.8978 59.1995 47.7908 59.0714 48.6634C58.8572 48.3442 58.6317 48.2804 58.4226 48.2213C58.2693 48.178 58.1248 48.1371 58 48C57.9313 47.9245 57.8964 47.755 57.8578 47.5668C57.8049 47.3096 57.7448 47.0175 57.5813 46.8834C57.5971 46.5871 57.6062 46.2895 57.6062 45.9894C57.6062 39.368 53.7129 33.6601 48.1413 31.1128C48.099 31.2868 48.0396 31.465 47.9538 31.6453C47.9773 31.6674 48.0019 31.6898 48.024 31.71L48.0301 31.7156C48.2471 31.9132 48.5753 32.2125 48.813 32.6976C49.3764 33.8476 49.0304 35.0751 47.7845 36.3467C47.2049 36.938 46.9738 37.6563 46.9817 37.8997C47.4024 38.411 47.8583 39.6584 48.0417 40.1922C48.6865 42.0698 48.6018 42.6366 48.2205 43.0256C47.6372 43.6207 47.0435 43.8413 46.4705 43.8413C45.4549 43.8413 44.5043 43.1491 43.7871 42.6269L43.7853 42.6256L43.7277 42.5837C43.5669 42.4668 43.4064 42.3501 43.2456 42.2408C42.4065 41.6703 41.8851 40.8322 41.4658 40.1581L41.4649 40.1566C41.2645 39.8337 41.0429 39.4772 40.8579 39.2889C40.5799 39.4705 40.0949 39.9361 39.7559 40.2616C38.7203 41.2563 37.5466 42.3831 36.2866 42.3831C34.4822 42.3831 33.7072 40.7589 33.2911 39.8861C33.2143 39.7253 33.1089 39.5048 33.0625 39.4434C33.0625 39.4434 31.7987 38.0085 31.2955 36.9172C30.6449 36.9507 29.2882 37.1619 28.0668 37.4002C26.5429 39.8963 25.6596 42.8389 25.6596 45.9894C25.6596 52.3932 29.3002 57.9437 34.5797 60.6061V60.381C34.5797 59.9137 34.9515 59.5344 35.4095 59.5344H35.8584L35.8804 59.5105C35.8907 59.4993 35.9015 59.4875 35.9132 59.4751C35.9688 59.4154 36.0343 59.3465 36.1136 59.2656C36.1347 59.2436 36.1555 59.2237 36.1762 59.2039C35.9658 58.7899 36.0775 58.3103 36.1696 57.9149C36.1966 57.7998 36.2372 57.6254 36.2393 57.5636V56.676C36.2393 56.4051 36.3663 56.1511 36.5808 55.992C36.7948 55.832 37.0716 55.7879 37.3238 55.8705L38.6772 56.3158C38.7116 56.3272 38.7461 56.3412 38.7788 56.3568C39.1556 56.5388 39.6331 56.712 39.7808 56.72C39.7746 56.7173 39.7822 56.7049 39.7925 56.6899C39.7939 56.6877 39.7955 56.6855 39.797 56.6833C39.8064 56.6697 39.8167 56.6549 39.8206 56.6434C39.8194 56.5158 39.9791 56.4199 40.1344 56.3267C40.2589 56.2519 40.3806 56.1789 40.4143 56.0925C40.5238 56.858 40.7158 57.5968 40.9811 58.2997C40.7525 58.4246 40.5 58.5 39.7758 58.4131C39.2402 58.4131 38.4718 58.0792 38.1171 57.9103L37.8794 57.832C37.8673 57.9196 37.8507 58.0072 37.8321 58.0944C38.1665 58.1528 38.4249 58.298 38.5718 58.6595C38.8137 59.2559 38.3739 59.705 38.1374 59.9458C37.8234 60.2662 37.5794 60.3771 37.3201 60.43C37.3141 60.4356 37.3077 60.4421 37.3011 60.4488L37.2873 60.4626C37.2262 60.525 37.1749 60.5796 37.1302 60.6272L37.1118 60.6468C36.8264 60.9507 36.6152 61.1306 36.2393 61.1975V61.3274C37.925 61.9462 39.7406 62.2857 41.6329 62.2857C42.1624 62.2857 42.684 62.2516 43.2001 62.1994C43.7861 62.7439 44.4344 63.2222 45.1331 63.6225ZM46.5568 30.4889C45.0051 29.9746 43.3509 29.6931 41.6329 29.6931C36.7745 29.6931 32.419 31.9204 29.4865 35.4239C31.8892 35.0442 32.1904 35.2935 32.4202 35.4857C32.6065 35.6415 32.7223 35.8616 32.7467 36.0999C32.8895 36.4935 33.8582 37.8633 34.254 38.2671C34.4674 38.4843 34.6063 38.7754 34.7822 39.1441L34.783 39.1458C35.2004 40.0207 35.5763 40.6904 36.2862 40.6904C36.8881 40.6904 37.8879 39.7301 38.6177 39.0292C39.6454 38.0421 40.533 37.1915 41.4582 37.6626C42.0745 37.977 42.4586 38.5946 42.8654 39.2487L42.8666 39.2506C43.2365 39.8454 43.6189 40.4603 44.1658 40.8322C44.3604 40.9642 44.555 41.1056 44.7495 41.2474C45.9482 42.1211 46.4008 42.3141 46.8352 42.0123C46.7083 41.2483 45.9984 39.3549 45.7191 38.9977C44.8649 38.127 45.4843 36.2988 46.6108 35.1496C47.6426 34.0965 47.4144 33.6301 47.3281 33.4548C47.2323 33.2593 47.0891 33.1285 46.9232 32.9774L46.9221 32.9764C46.5906 32.6734 45.9027 32.0445 46.4552 30.9168C46.5253 30.7733 46.5514 30.6265 46.5568 30.4889Z" fill="#01161E"/>
<path d="M40.0379 54.9299C40.0333 54.802 40.031 54.6736 40.031 54.5445C40.031 54.0579 40.0641 53.579 40.1282 53.11C39.4814 52.9544 38.3798 52.7124 37.998 52.7124C37.7852 52.7124 37.6134 52.7065 37.484 52.6954V51.9153H38.032C38.7021 51.9153 38.9655 51.6872 39.3199 51.3109L39.3514 51.2776C39.3925 51.234 39.4384 51.1854 39.4916 51.1314C39.5655 51.0561 39.7111 50.9888 39.8679 50.9371L40.5 51.5C40.567 51.2755 40.6715 51.0983 40.7783 50.9175C40.8555 50.7867 40.9339 50.654 41 50.5C41.0519 50.379 41.1524 50.3097 41.2536 50.2399C41.3483 50.1746 41.4435 50.1089 41.5 50C41.5 50 41.0525 49.7266 40.8782 49.4891C40.7039 49.2516 40.4193 49.1208 40.1306 49.1551C39.9356 49.175 38.9324 49.3075 38.3183 49.9344C38.2454 50.0088 38.1843 50.0734 38.1307 50.1302L38.1241 50.1371C38.1102 50.1518 38.0973 50.1658 38.0851 50.179C38.0816 50.1828 38.0781 50.1866 38.0746 50.1904C38.0643 50.2015 38.0545 50.212 38.0449 50.2218H36.6542C36.1961 50.2218 35.8244 50.6011 35.8244 51.0684V53.1132C35.8244 54.4013 37.3931 54.455 37.9901 54.455H37.9959C38.1963 54.455 39.2121 54.6515 39.9518 54.8326C39.9811 54.8653 40.0098 54.8978 40.0379 54.9299Z" fill="#01161E"/>
<path fill-rule="evenodd" clip-rule="evenodd" d="M33.0807 47.3769C33.3027 47.4603 33.4794 47.636 33.5665 47.8603C33.9457 48.8364 34.4897 50.0377 34.695 50.2701C35.1356 50.7192 35.2356 51.3354 34.9589 51.9141C34.7971 52.2523 34.544 52.5249 34.2544 52.8199C34.1623 52.9139 33.993 53.2246 33.8698 53.451C33.4956 54.1375 33.1084 54.8478 32.3584 54.8478C31.6145 54.8478 31.0104 54.2667 30.8971 54.1503C30.6465 53.8925 30.5843 53.5014 30.7424 53.1767C30.8303 52.9934 31.0473 52.4402 31.0863 51.9213C30.5743 51.7761 30.3578 51.4815 30.2715 51.211C30.0408 51.0802 29.5379 50.8902 29.0928 50.7712C28.6692 50.6578 28.4044 50.2281 28.4891 49.7896L28.9256 47.5196C29.0019 47.1225 29.3429 46.836 29.7396 46.836H31.4854C31.5829 46.836 31.6796 46.8533 31.7713 46.8876L33.0807 47.3769ZM32.7396 52.0698C32.845 51.9035 32.9571 51.7498 33.0807 51.6237L33.0896 51.6145C33.1626 51.5397 33.2911 51.4079 33.3798 51.2999C32.9658 50.7479 32.4629 49.5822 32.1634 48.8377L31.3381 48.5291H30.4225L30.2615 49.3651C31.2046 49.7029 31.5975 50.0584 31.7613 50.3534C32.5737 50.6222 32.7517 51.2597 32.7517 51.7672C32.7517 51.8688 32.7475 51.9699 32.7396 52.0698Z" fill="#01161E"/>
<path fill-rule="evenodd" clip-rule="evenodd" d="M56.0564 63.3403C54.4209 64.3918 52.4746 65.0018 50.3857 65.0018C44.5868 65.0018 39.8857 60.3008 39.8857 54.5018C39.8857 48.7028 44.5868 44.0018 50.3857 44.0018C56.1847 44.0018 60.8857 48.7028 60.8857 54.5018C60.8857 56.9865 60.0227 59.2697 58.5799 61.0678L62.582 65.0699C63.2459 65.7338 63.2459 66.8102 62.582 67.4741C61.9181 68.138 60.8417 68.138 60.1778 67.4741L56.1729 63.4692C56.1315 63.4278 56.0927 63.3848 56.0564 63.3403ZM58.3857 54.5018C58.3857 58.92 54.804 62.5018 50.3857 62.5018C45.9675 62.5018 42.3857 58.92 42.3857 54.5018C42.3857 50.0835 45.9675 46.5018 50.3857 46.5018C54.804 46.5018 58.3857 50.0835 58.3857 54.5018Z" fill="#019771"/>
</svg>
