<svg width="48" height="48" viewBox="0 0 48 48" fill="none" xmlns="http://www.w3.org/2000/svg">
<rect width="48" height="48" fill="#E5F4F0"/>
<path fill-rule="evenodd" clip-rule="evenodd" d="M29.274 33H33V26.4013C33 23.1628 32.302 20.6749 28.5278 20.6749C26.7114 20.6749 25.4956 21.6722 24.9957 22.617H24.9475V20.9783H21.3693V33H25.0942V27.0511C25.0942 25.4828 25.3908 23.9659 27.3329 23.9659C29.2457 23.9659 29.274 25.7599 29.274 27.154V33ZM15 17.1656C15 18.3613 15.9632 19.3334 17.1622 19.3334C18.356 19.3334 19.3255 18.3613 19.3255 17.1656C19.3255 15.971 18.3571 15 17.1622 15C15.9642 15 15 15.971 15 17.1656ZM15.2945 20.9783V33H19.0299V20.9783H15.2945Z" fill="#019771"/>
</svg>
