<svg width="101" height="48" viewBox="0 0 101 48" fill="none" xmlns="http://www.w3.org/2000/svg">
<g clip-path="url(#clip0)">
<path fill-rule="evenodd" clip-rule="evenodd" d="M0 0V21.8182H4.40002V13.0909H17.6001V21.8182H22.0001V0H0ZM17.6001 4.36364H4.40002V8.72727H17.6001V4.36364Z" fill="#01161E"/>
<path fill-rule="evenodd" clip-rule="evenodd" d="M26.4001 0V21.8182H30.8001V13.0909H37.4001L46.2002 21.8182H48.4002V17.4545L41.8002 10.9091L48.4002 4.36364V0H26.4001ZM41.8002 4.36364H30.8001V8.72727H37.4001L41.8002 4.36364Z" fill="#01161E"/>
<path fill-rule="evenodd" clip-rule="evenodd" d="M0 26.1818V48H4.40002V39.2727H11L19.8001 48H22.0001V43.6364L15.4001 37.0909L22.0001 30.5455V26.1818H0ZM15.4001 30.5455L11 34.9091H4.40002V30.5455H15.4001Z" fill="#01161E"/>
<path d="M57.2002 0L63.8003 6.54545L70.4003 0H74.8003V21.8182H70.4003V6.54545L63.8003 13.0909L57.2002 6.54545V21.8182H52.8002V0H57.2002Z" fill="#01161E"/>
<path fill-rule="evenodd" clip-rule="evenodd" d="M83.6003 48H79.2003V26.1818H101.2V48H96.8004V39.2727H83.6003V48ZM96.8004 34.9091H83.6003V30.5455H96.8004V34.9091Z" fill="#01161E"/>
<path d="M26.4001 26.1818V30.5455H35.2001V43.6364H26.4001V48H48.4002V43.6364H39.6002V30.5455H48.4002V26.1818H26.4001Z" fill="#01161E"/>
<path d="M70.4003 34.9091H74.8003V26.1818H52.8002V48H74.8003V39.2727H70.4003V43.6364H57.2002V30.5455H70.4003V34.9091Z" fill="#01161E"/>
<path fill-rule="evenodd" clip-rule="evenodd" d="M79.0435 0V21.8182H101V0H79.0435ZM96.6087 17.4545H83.4348V4.36364H96.6087V17.4545Z" fill="#019771"/>
<path d="M87.8262 8.72729H92.2175V13.0909H87.8262V8.72729Z" fill="#019771"/>
</g>
<defs>
<clipPath id="clip0">
<rect width="101" height="48" fill="white"/>
</clipPath>
</defs>
</svg>
