<svg width="17" height="14" viewBox="0 0 17 14" fill="none" xmlns="http://www.w3.org/2000/svg">
<path d="M16.8259 7.58312C16.2376 8.48091 15.501 9.26089 14.6361 9.90275C14.5617 9.95827 14.4741 9.98535 14.3865 9.98535C14.2609 9.98535 14.1382 9.92983 14.0561 9.82421C13.9182 9.64546 13.9547 9.39021 14.1361 9.25547C14.9237 8.67117 15.5941 7.96092 16.1287 7.14574C16.1866 7.05637 16.1866 6.9433 16.128 6.85257C14.5568 4.46523 11.8904 3.03866 8.99854 3.03866C8.50816 3.03866 8.00951 3.08199 7.51844 3.16798C7.29153 3.20657 7.0791 3.06032 7.03841 2.83892C6.9991 2.6182 7.14807 2.40696 7.3736 2.36769C7.91295 2.27425 8.45988 2.22618 8.99854 2.22618C12.1732 2.22618 15.0982 3.79155 16.8246 6.41383C17.0563 6.77064 17.0563 7.22834 16.8259 7.58312ZM15.4996 12.806C15.661 12.9644 15.661 13.2217 15.4996 13.3808C15.4196 13.4601 15.3127 13.5 15.2072 13.5C15.1017 13.5 14.9955 13.4601 14.9148 13.3808L12.5677 11.0775C11.4325 11.5392 10.2331 11.7728 8.99854 11.7728C5.82385 11.7728 2.89883 10.2074 1.17251 7.58515C0.940773 7.22834 0.940773 6.76997 1.17113 6.41518C2.0374 5.09491 3.22713 4.02447 4.63411 3.28985L2.49743 1.19298C2.33604 1.03454 2.33604 0.777258 2.49743 0.618825C2.65744 0.460392 2.92021 0.460392 3.08229 0.618825L7.82536 5.27433L7.8288 5.27704L9.29097 6.71242L12.9409 10.2941C12.9484 10.3009 12.956 10.3083 12.9636 10.3164L15.4996 12.806ZM7.34257 6.99949C7.34257 7.89525 8.08537 8.62445 8.99854 8.62445C9.29924 8.62445 9.58685 8.54591 9.83928 8.39899L7.57293 6.17415C7.42257 6.42195 7.34257 6.70497 7.34257 6.99949ZM11.9291 10.4498L10.4366 8.98532C10.0193 9.27849 9.52133 9.43693 8.99854 9.43693C7.62948 9.43693 6.51493 8.34347 6.51493 6.99949C6.51493 6.48695 6.67632 5.99811 6.97496 5.58781L5.24933 3.89379C3.86786 4.56409 2.70296 5.58239 1.86773 6.85392C1.81048 6.94262 1.81048 7.05569 1.86911 7.14709C3.44024 9.53375 6.10662 10.9603 8.99854 10.9603C10.0076 10.9603 10.9911 10.789 11.9291 10.4498Z" fill="#01161E"/>
</svg>
