<svg width="106" height="125" viewBox="0 0 106 125" fill="none" xmlns="http://www.w3.org/2000/svg">
<g opacity="0.3">
<rect x="2" y="37" width="9" height="9" fill="#019771"/>
<rect x="74" y="94" width="7" height="7" fill="#019771"/>
<rect x="59" width="7" height="7" fill="#019771"/>
<rect x="104" y="8" width="2" height="2" fill="#019771"/>
</g>
<g opacity="0.1">
<rect x="18" y="100" width="8" height="8" fill="#01161E"/>
<rect x="84" y="37" width="5" height="5" fill="#01161E"/>
<rect y="122" width="3" height="3" fill="#01161E"/>
<rect x="32" y="53" width="21" height="21" fill="#01161E"/>
</g>
<g clip-path="url(#clip0)">
<path d="M57.3334 56.8239L55.6355 55.8067C55.1179 55.4971 54.5258 55.3337 53.9226 55.3334H51.3673C50.8441 55.3324 50.3233 55.3998 49.8175 55.5332L42.1182 57.6C41.2764 57.8324 40.6003 58.4593 40.3054 59.2813L33.5333 55.6175C32.9841 55.305 32.3412 55.1989 31.7208 55.3181C31.4867 55.3594 31.2598 55.4339 31.0466 55.5394C30.5652 55.7699 30.1658 56.1423 29.9014 56.6061C29.6703 57.0101 29.5489 57.4675 29.5489 57.9326C29.5417 58.8825 30.045 59.7627 30.8666 60.2386L43.004 67.5007C43.5313 67.8272 44.1387 68 44.7589 68H54.1521C54.5717 68.0004 54.9874 67.9209 55.3774 67.7666L57.3334 66.9942V68H64.0001V54.6667H57.3334V56.8239ZM58.6667 56H62.6667V66.6667H58.6667V56Z" fill="#FEFEFE"/>
<path d="M57.3334 56.8239L55.6355 55.8067C55.1179 55.4971 54.5258 55.3337 53.9226 55.3334H51.3673C50.8441 55.3324 50.3233 55.3998 49.8175 55.5332L42.1182 57.6C41.2764 57.8324 40.6003 58.4593 40.3054 59.2813L33.5333 55.6175C32.9841 55.305 32.3412 55.1989 31.7208 55.3181C31.4867 55.3594 31.2598 55.4339 31.0466 55.5394C30.5652 55.7699 30.1658 56.1423 29.9014 56.6061C29.6703 57.0101 29.5489 57.4675 29.5489 57.9326C29.5417 58.8825 30.045 59.7627 30.8666 60.2386L43.004 67.5007C43.5313 67.8272 44.1387 68 44.7589 68H54.1521C54.5717 68.0004 54.9874 67.9209 55.3774 67.7666L57.3334 66.9942V68H64.0001V54.6667H57.3334V56.8239ZM54.8874 66.5267C54.654 66.6188 54.405 66.6664 54.154 66.6667H44.7589C44.3832 66.6664 44.015 66.5606 43.6967 66.3614L31.5427 59.0908C31.1296 58.8522 30.8767 58.4102 30.88 57.9333C30.8809 57.6996 30.9425 57.4697 31.0587 57.2666C31.1915 57.0365 31.3914 56.8519 31.6313 56.738C31.7371 56.6865 31.849 56.6501 31.9646 56.6299C32.0489 56.6143 32.1345 56.6061 32.2201 56.6061C32.4493 56.6055 32.6746 56.6654 32.8734 56.7793L40.2169 60.7474C40.2253 60.7881 40.2253 60.8281 40.2361 60.8688C40.5518 62.0326 41.6075 62.8408 42.8135 62.8421C43.1846 62.8083 43.5522 62.7425 43.9122 62.6462L50.8386 60.7927L50.4949 59.5046L43.5909 61.35C43.2869 61.4199 42.8946 61.5 42.8135 61.5069C42.2113 61.5078 41.6833 61.1055 41.5248 60.5248C41.5033 60.444 41.4906 60.3614 41.4861 60.278C41.4861 60.278 41.4809 60.1166 41.4861 60.0599C41.5369 59.5023 41.9275 59.0342 42.4669 58.8841L50.1628 56.8252C50.5557 56.7201 50.9607 56.6667 51.3673 56.6667H53.9226C54.2846 56.6667 54.6397 56.765 54.9499 56.9509L57.3334 58.378V65.5599L54.8874 66.5267ZM58.6667 56H62.6667V66.6667H58.6667V56Z" fill="#01161E"/>
<path d="M51.4961 33.3331L47.9199 29.7572C46.7972 28.628 45.2695 27.9952 43.6774 27.9997H35.2959C34.7786 28.0004 34.2686 28.1211 33.8053 28.3516L32.3112 29.099C32.0117 29.2497 31.679 29.3217 31.3441 29.3083L30.6667 29.2846V27.9997H24V42.6664H30.6667V40.6664H31.8001L32.2035 40.933C33.332 41.6823 34.6462 42.1055 36 42.155V50.6664H64V33.3331H51.4961ZM29.3333 41.3331H25.3333V29.3331H29.3333V41.3331ZM32.9414 39.8236L32.1999 39.3331H30.6667V30.6185L31.2952 30.641C31.8535 30.6609 32.4076 30.5407 32.9072 30.2917L34.4001 29.5443C34.6781 29.4053 34.985 29.3331 35.2959 29.3331H43.6774C44.9157 29.3295 46.1042 29.8217 46.9772 30.6996L49.6107 33.3331H44.1094L42.4912 31.7152L41.5488 32.6576L46.2581 37.3672C46.7812 37.8881 46.7829 38.7344 46.262 39.2579C45.7409 39.781 44.8945 39.7826 44.3714 39.2618L40.4382 35.3285L39.9714 35.7286C38.6826 36.823 36.7988 36.851 35.4779 35.795L35.0915 35.4818L34.2513 36.5176L34.6419 36.8344C35.0505 37.1609 35.5091 37.4193 36 37.5997V40.821C34.9089 40.7725 33.8512 40.4278 32.9414 39.8236ZM42.4248 39.1996L43.4307 40.2058C44.4749 41.2344 46.1514 41.236 47.1973 40.209C46.2188 41.7243 46.6048 43.7409 48.0739 44.7875C49.543 45.834 51.5752 45.5401 52.6875 44.1205C53.7998 42.7006 53.599 40.6569 52.2311 39.4812C50.8636 38.3054 48.8128 38.4131 47.5762 39.7256C48.0316 39.0105 48.113 38.1192 47.7946 37.3331H56.722C57.0088 39.0105 58.3226 40.3243 60 40.611V43.3884C58.3226 43.6752 57.0088 44.989 56.722 46.6664H43.278C42.9912 44.989 41.6774 43.6752 40 43.3884V40.611C40.9528 40.4506 41.8145 39.9489 42.4248 39.1996ZM48 41.9997C48 40.8952 48.8955 39.9997 50 39.9997C51.1045 39.9997 52 40.8952 52 41.9997C52 43.1042 51.1045 43.9997 50 43.9997C48.8955 43.9997 48 43.1042 48 41.9997ZM62.6667 49.3331H37.3333V37.879C38.3903 37.9584 39.444 37.6888 40.3333 37.1124L41.4707 38.2497C40.9704 38.9294 40.1774 39.3314 39.3333 39.3331H38.6667V44.6664H39.3333C40.806 44.6664 42 45.8604 42 47.3331V47.9997H58V47.3331C58 45.8604 59.194 44.6664 60.6667 44.6664H61.3333V39.3331H60.6667C59.194 39.3331 58 38.139 58 36.6664V35.9997H46.776L45.4427 34.6664H62.6667V49.3331Z" fill="#000011"/>
<path d="M64 33.33H36V33.3331H44.1094L45.4427 34.6664L46.776 35.9997L47.7946 37.3331L56.722 37.333C57.0088 39.0105 58.3226 40.3243 60 40.611V43.3884C58.3226 43.6752 57.0088 44.989 56.722 46.6664H43.278C42.9912 44.989 41.6774 43.6752 40 43.3884V40.611C40.9528 40.4506 41.8144 39.9489 42.4248 39.1996L41.4707 38.2497C40.9704 38.9294 40.1774 39.3314 39.3333 39.333H38.6667V44.6664H39.3333C40.806 44.6664 42 45.8604 42 47.333V47.9997H58V47.333C58 45.8604 59.194 44.6664 60.6667 44.6664H61.3333V39.333H60.6667C59.194 39.333 58 38.139 58 36.6664V35.9997L46.776 35.9997L45.4427 34.6664L62.6667 34.6664V49.333H37.3333V37.879L36 37.5997V50.66H64V33.33Z" fill="#019771"/>
<path fill-rule="evenodd" clip-rule="evenodd" d="M47.1972 40.2091C46.2188 41.7244 46.6048 43.7409 48.0739 44.7875C49.543 45.834 51.5752 45.5401 52.6875 44.1205C53.7998 42.7006 53.599 40.6569 52.2311 39.4812C50.8636 38.3054 48.8129 38.4131 47.5762 39.7256C47.5762 39.7256 47.5762 39.7255 47.5762 39.7256L47.1972 40.2091C47.1972 40.2091 47.1972 40.2091 47.1972 40.2091ZM48 41.9997C48 40.8952 48.8955 39.9997 50 39.9997C51.1045 39.9997 52 40.8952 52 41.9997C52 43.1042 51.1045 43.9997 50 43.9997C48.8955 43.9997 48 43.1042 48 41.9997Z" fill="#019771"/>
</g>
<defs>
<clipPath id="clip0">
<rect x="24" y="28" width="40" height="40" fill="white"/>
</clipPath>
</defs>
</svg>
