<svg width="106" height="125" viewBox="0 0 106 125" fill="none" xmlns="http://www.w3.org/2000/svg">
<g opacity="0.3">
<rect x="2" y="37.0001" width="9" height="9" fill="#019771"/>
<rect x="74" y="94.0001" width="7" height="7" fill="#019771"/>
<rect x="59" y="6.10352e-05" width="7" height="7" fill="#019771"/>
<rect x="104" y="8.00006" width="2" height="2" fill="#019771"/>
</g>
<g opacity="0.1">
<rect x="18" y="100" width="8" height="8" fill="#01161E"/>
<rect x="84" y="37.0001" width="5" height="5" fill="#01161E"/>
<rect y="122" width="3" height="3" fill="#01161E"/>
<rect x="32" y="53.0001" width="21" height="21" fill="#01161E"/>
</g>
<g clip-path="url(#clip0)">
<path fill-rule="evenodd" clip-rule="evenodd" d="M54.6598 45.9527C54.6598 45.4855 55.0292 45.1161 55.4964 45.1161H60.0907C60.5593 45.1161 60.9249 45.4856 60.9249 45.9527V65.6293H62.4661C62.9375 65.6293 63.3002 65.998 63.3002 66.4659C63.3002 66.936 62.934 67.3 62.4661 67.3H25.5343C25.0647 67.3 24.7002 66.9355 24.7002 66.4659C24.7002 65.9976 25.0645 65.6293 25.5343 65.6293H27.0755V57.4437C27.0755 56.9749 27.4415 56.6071 27.9096 56.6071H32.5052C32.9724 56.6071 33.3418 56.9765 33.3418 57.4437V65.6293H36.2703V59.5789C36.2703 59.1088 36.6364 58.7448 37.1044 58.7448H41.7024C42.1725 58.7448 42.5366 59.1109 42.5366 59.5789V65.6293H45.4651V52.8458C45.4651 52.3757 45.8312 52.0117 46.2992 52.0117H50.8972C51.3673 52.0117 51.7313 52.3778 51.7313 52.8458V65.6293H54.6598V45.9527Z" fill="#F9FCFB"/>
<path fill-rule="evenodd" clip-rule="evenodd" d="M54.6598 45.9528C54.6598 45.4855 55.0292 45.1162 55.4964 45.1162H60.0907C60.5593 45.1162 60.9249 45.4857 60.9249 45.9528V65.6293H62.4661C62.9375 65.6293 63.3002 65.998 63.3002 66.4659C63.3002 66.936 62.934 67.3 62.4661 67.3H25.5343C25.0647 67.3 24.7002 66.9356 24.7002 66.4659C24.7002 65.9976 25.0645 65.6293 25.5343 65.6293H27.0755V57.4437C27.0755 56.9749 27.4415 56.6071 27.9096 56.6071H32.5052C32.9724 56.6071 33.3418 56.9765 33.3418 57.4437V65.6293H36.2703V59.579C36.2703 59.1088 36.6364 58.7448 37.1044 58.7448H41.7024C42.1725 58.7448 42.5366 59.111 42.5366 59.579V65.6293H45.4651V52.8459C45.4651 52.3757 45.8312 52.0117 46.2992 52.0117H50.8972C51.3673 52.0117 51.7313 52.3779 51.7313 52.8459V65.6293H54.6598V45.9528ZM59.2578 46.7869H56.3269V65.6305H59.2578V46.7869ZM50.0643 53.68H47.1358V65.6293H50.0643V53.68ZM31.6747 58.2778H28.7438V65.6293H31.6747V58.2778ZM40.8695 60.4131H37.9386V65.6305H40.8695V60.4131Z" fill="#01161E"/>
<path fill-rule="evenodd" clip-rule="evenodd" d="M45.7713 40.0791L45.7718 40.08L45.8672 40.2809L40.9559 45.1943L40.7562 45.0988C40.3466 44.9029 39.8902 44.7925 39.4058 44.7925C38.984 44.7925 38.5831 44.8755 38.2173 45.0261C37.8491 45.1776 37.5163 45.3976 37.2334 45.6703L37.0713 45.8261L33.2915 43.9368L33.3184 43.7171C33.3349 43.5896 33.3429 43.4577 33.3429 43.3265C33.3429 41.5929 31.9447 40.1947 30.211 40.1947C28.4777 40.1947 27.0767 41.5925 27.0767 43.3265C27.0767 45.0601 28.4774 46.4607 30.211 46.4607C31.0576 46.4607 31.817 46.1278 32.3813 45.5827L32.5431 45.4272L36.3229 47.3165L36.2959 47.5363C36.2796 47.6645 36.2714 47.7926 36.2714 47.9243C36.2714 49.6579 37.6722 51.0586 39.4058 51.0586C41.1398 51.0586 42.5377 49.6576 42.5377 47.9243C42.5377 47.4396 42.429 46.9855 42.2314 46.5765L42.2309 46.5754L42.1355 46.3746L47.0492 41.4611L47.249 41.5566C47.6593 41.7535 48.1169 41.8654 48.5994 41.8654C50.3333 41.8654 51.7313 40.4643 51.7313 38.7311C51.7313 38.4031 51.6823 38.0907 51.5895 37.7946L51.523 37.5792L55.8736 34.3155L56.0596 34.441L56.061 34.4419C56.559 34.7739 57.1494 34.9661 57.7941 34.9661C59.5278 34.9661 60.9285 33.5654 60.9285 31.8318C60.9285 30.0979 59.5274 28.7 57.7941 28.7C56.0605 28.7 54.6622 30.0982 54.6622 31.8318C54.6622 32.1596 54.7113 32.4723 54.8039 32.7683L54.8705 32.9837L50.5199 36.2474L50.3338 36.1219L50.3326 36.1211C49.8331 35.7876 49.2425 35.5968 48.5994 35.5968C46.8657 35.5968 45.465 36.9975 45.465 38.7311C45.465 39.2159 45.5738 39.6699 45.7713 40.0791ZM57.7917 30.3695C58.5947 30.3695 59.259 31.0291 59.259 31.8318C59.259 32.6362 58.5955 33.3003 57.7917 33.3003C56.9898 33.3003 56.3268 32.6333 56.3268 31.8318C56.3268 31.0318 56.9896 30.3695 57.7917 30.3695ZM48.5969 37.265C49.3994 37.265 50.0642 37.9266 50.0642 38.7298C50.0642 39.5331 49.3994 40.1947 48.5969 40.1947C47.7952 40.1947 47.132 39.5315 47.132 38.7298C47.132 37.9282 47.7952 37.265 48.5969 37.265ZM30.211 41.8641C31.0127 41.8641 31.6759 42.5273 31.6759 43.3289C31.6759 44.1306 31.0127 44.7937 30.211 44.7937C29.4085 44.7937 28.7437 44.1322 28.7437 43.3289C28.7437 42.5257 29.4085 41.8641 30.211 41.8641ZM39.4058 46.4595C40.2075 46.4595 40.8707 47.1227 40.8707 47.9243C40.8707 48.726 40.2075 49.3891 39.4058 49.3891C38.6033 49.3891 37.9385 48.7276 37.9385 47.9243C37.9385 47.121 38.6033 46.4595 39.4058 46.4595Z" fill="#019771"/>
</g>
<defs>
<clipPath id="clip0">
<rect x="24" y="28.0001" width="40" height="40" fill="white"/>
</clipPath>
</defs>
</svg>
