<svg width="14" height="13" viewBox="0 0 14 13" fill="none" xmlns="http://www.w3.org/2000/svg">
<path d="M6.67589 0.663431C6.82961 0.445848 7.17136 0.445849 7.32509 0.66343L9.23388 3.36512C9.41647 3.62357 9.68306 3.81007 9.98649 3.89684L13.2252 4.82294C13.4959 4.90034 13.5741 5.19454 13.4239 5.38389L11.3649 7.97972C11.1681 8.22789 11.0639 8.53662 11.0729 8.85393L11.1657 12.128C11.1723 12.3613 10.9223 12.5735 10.6426 12.477L7.46125 11.3796C7.16304 11.2767 6.83794 11.2767 6.53973 11.3796L3.35841 12.477C3.07871 12.5735 2.82868 12.3613 2.8353 12.128L2.92813 8.85393C2.93712 8.53662 2.8329 8.22789 2.63606 7.97972L0.577071 5.38389L0.188784 5.69187L0.577071 5.38389C0.426879 5.19454 0.505109 4.90034 0.775798 4.82294L4.01449 3.89684C4.31791 3.81007 4.5845 3.62357 4.7671 3.36512L6.67589 0.663431Z" stroke="#019771"/>
</svg>
