<svg width="14" height="13" viewBox="0 0 14 13" fill="none" xmlns="http://www.w3.org/2000/svg">
<path d="M6.26753 0.374916C6.62047 -0.124646 7.3805 -0.124647 7.73345 0.374916L9.64224 3.07661C9.75778 3.24015 9.92791 3.36005 10.124 3.41611L13.3626 4.34221C13.9615 4.51345 14.1964 5.21462 13.8156 5.6946L11.7566 8.29044C11.632 8.44757 11.567 8.64157 11.5726 8.83976L11.6655 12.1138C11.6826 12.7192 11.0678 13.1526 10.4795 12.9496L7.2982 11.8523C7.10563 11.7858 6.89534 11.7858 6.70277 11.8523L3.52146 12.9496C2.93321 13.1526 2.31833 12.7192 2.3355 12.1138L2.42833 8.83976C2.43395 8.64158 2.36896 8.44757 2.24433 8.29044L0.185338 5.6946C-0.195384 5.21462 0.0394768 4.51345 0.638333 4.34221L3.87702 3.41611C4.07306 3.36005 4.24319 3.24015 4.35874 3.07661L6.26753 0.374916Z" fill="#019771"/>
</svg>
