<svg width="106" height="125" viewBox="0 0 106 125" fill="none" xmlns="http://www.w3.org/2000/svg">
<g opacity="0.3">
<rect x="2" y="37" width="9" height="9" fill="#019771"/>
<rect x="74" y="94" width="7" height="7" fill="#019771"/>
<rect x="59" width="7" height="7" fill="#019771"/>
<rect x="104" y="8" width="2" height="2" fill="#019771"/>
</g>
<g opacity="0.1">
<rect x="18" y="100" width="8" height="8" fill="#01161E"/>
<rect x="84" y="37" width="5" height="5" fill="#01161E"/>
<rect y="122" width="3" height="3" fill="#01161E"/>
<rect x="32" y="53" width="21" height="21" fill="#01161E"/>
</g>
<path d="M28.4478 40.45C28.1326 41.8334 27.9828 43.2487 28.0016 44.6667C28.0016 46.675 28.2458 51.3333 30.5276 51.3333H33.0537V52.8583C33.0559 55.1054 33.9589 57.2597 35.5643 58.8486C37.1698 60.4375 39.3466 61.3311 41.6171 61.3333H46.3829C48.6534 61.3311 50.8302 60.4375 52.4357 58.8486C54.0411 57.2597 54.9441 55.1054 54.9463 52.8583V51.3333H55.7883V60.0833C55.7883 60.6305 55.6794 61.1723 55.4678 61.6778C55.2563 62.1834 54.9462 62.6427 54.5552 63.0296C54.1643 63.4165 53.7001 63.7234 53.1893 63.9328C52.6786 64.1422 52.1311 64.25 51.5782 64.25H49.8942V63C49.8942 62.779 49.8054 62.567 49.6475 62.4107C49.4896 62.2545 49.2755 62.1667 49.0521 62.1667H44C43.7767 62.1667 43.5625 62.2545 43.4046 62.4107C43.2467 62.567 43.158 62.779 43.158 63V67.1667C43.158 67.3877 43.2467 67.5996 43.4046 67.7559C43.5625 67.9122 43.7767 68 44 68H49.0521C49.2755 68 49.4896 67.9122 49.6475 67.7559C49.8054 67.5996 49.8942 67.3877 49.8942 67.1667V65.9167H51.5782C53.1414 65.9167 54.6406 65.3021 55.746 64.2081C56.8514 63.1142 57.4724 61.6304 57.4724 60.0833V51.3333C58.4323 51.3333 59.1564 50.5 59.5522 48.8833C59.8674 47.4999 60.0172 46.0847 59.9984 44.6667C59.9984 42.6583 59.7542 38 57.4724 38H56.6893C56.7362 35.806 55.9863 33.6682 54.5758 31.975C52.3697 29.4083 48.6732 28.0667 43.5706 28H43.0906C38.0385 28.0667 34.4346 29.4 32.4222 31.9417C31.1081 33.6782 30.5064 35.8426 30.7381 38H30.5276C29.5677 38 28.8436 38.8333 28.4478 40.45ZM48.2101 66.3333H44.842V63.8333H48.2101V66.3333ZM58.3144 44.6667C58.3144 47.7083 57.7418 49.3833 57.4134 49.6667H54.9463V39.6667H57.4134C57.7418 39.95 58.3144 41.625 58.3144 44.6667ZM33.7526 33C35.4366 30.8333 38.6784 29.7167 43.3264 29.6667C47.9743 29.6167 51.3677 30.825 53.2623 33C54.2401 34.1862 54.8278 35.6402 54.9463 37.1667C53.9022 36.5333 52.4708 35.9167 51.2751 36.3333C49.2458 37.0083 48.168 39.3333 47.6796 40.775C46.8797 40.2167 45.9956 39.5583 45.1031 38.9167C43.5204 37.7022 41.861 36.5888 40.1351 35.5833C39.3395 35.2131 38.4663 35.0359 37.5877 35.0663C36.7091 35.0967 35.8505 35.334 35.083 35.7583C34.2651 36.2859 33.6579 37.0783 33.3653 38H32.4306C32.2081 36.2273 32.6812 34.4376 33.7526 33ZM33.0537 39.6667C33.0537 39.775 33.0537 39.8667 33.0537 39.9833V49.6667H30.5866C30.2582 49.3833 29.6856 47.7083 29.6856 44.6667C29.6856 41.625 30.2582 39.95 30.5866 39.6667H33.0537Z" fill="#FEFEFE"/>
<path d="M28.4478 40.45C28.1326 41.8334 27.9828 43.2487 28.0016 44.6667C28.0016 46.675 28.2458 51.3333 30.5276 51.3333H33.0537V52.8583C33.0559 55.1054 33.9589 57.2597 35.5643 58.8486C37.1698 60.4375 39.3466 61.3311 41.6171 61.3333H46.3829C48.6534 61.3311 50.8302 60.4375 52.4357 58.8486C54.0411 57.2597 54.9441 55.1054 54.9463 52.8583V51.3333H55.7883V60.0833C55.7883 60.6305 55.6794 61.1723 55.4678 61.6778C55.2563 62.1834 54.9462 62.6427 54.5552 63.0296C54.1643 63.4165 53.7001 63.7234 53.1893 63.9328C52.6786 64.1422 52.1311 64.25 51.5782 64.25H49.8942V63C49.8942 62.779 49.8054 62.567 49.6475 62.4107C49.4896 62.2545 49.2755 62.1667 49.0521 62.1667H44C43.7767 62.1667 43.5625 62.2545 43.4046 62.4107C43.2467 62.567 43.158 62.779 43.158 63V67.1667C43.158 67.3877 43.2467 67.5996 43.4046 67.7559C43.5625 67.9122 43.7767 68 44 68H49.0521C49.2755 68 49.4896 67.9122 49.6475 67.7559C49.8054 67.5996 49.8942 67.3877 49.8942 67.1667V65.9167H51.5782C53.1414 65.9167 54.6406 65.3021 55.746 64.2081C56.8514 63.1142 57.4724 61.6304 57.4724 60.0833V51.3333C58.4323 51.3333 59.1564 50.5 59.5522 48.8833C59.8674 47.4999 60.0172 46.0847 59.9984 44.6667C59.9984 42.6583 59.7542 38 57.4724 38H56.6893C56.7362 35.806 55.9863 33.6682 54.5758 31.975C52.3697 29.4083 48.6732 28.0667 43.5706 28H43.0906C38.0385 28.0667 34.4346 29.4 32.4222 31.9417C31.1081 33.6782 30.5064 35.8426 30.7381 38H30.5276C29.5677 38 28.8436 38.8333 28.4478 40.45ZM48.2101 66.3333H44.842V63.8333H48.2101V66.3333ZM53.2623 52.8583C53.2623 53.7524 53.0843 54.6377 52.7386 55.4638C52.3929 56.2898 51.8862 57.0403 51.2473 57.6726C50.6085 58.3048 49.8502 58.8063 49.0155 59.1484C48.1809 59.4906 47.2863 59.6667 46.3829 59.6667H41.6171C39.7926 59.6667 38.0428 58.9494 36.7527 57.6726C35.4625 56.3957 34.7377 54.664 34.7377 52.8583V39.9833C34.6739 39.4449 34.7575 38.8994 34.9797 38.4039C35.2019 37.9084 35.5545 37.4811 36.0008 37.1667C36.533 36.8643 37.1386 36.7116 37.7522 36.725C38.3313 36.7141 38.9059 36.8279 39.4362 37.0583C41.0759 38.044 42.6559 39.1237 44.1684 40.2917C45.4314 41.2083 46.745 42.1667 47.7723 42.8417C47.8868 42.9163 48.0179 42.9622 48.1544 42.9752C48.2909 42.9883 48.4285 42.9682 48.5553 42.9167C48.6827 42.8651 48.7953 42.7835 48.8834 42.6789C48.9714 42.5743 49.0323 42.4499 49.0606 42.3167C49.2711 41.2833 50.1889 38.5 51.8729 37.9417C52.3614 37.8674 52.8608 37.9616 53.2875 38.2083L53.2623 52.8583ZM58.3144 44.6667C58.3144 47.7083 57.7418 49.3833 57.4134 49.6667H54.9463V39.6667H57.4134C57.7418 39.95 58.3144 41.625 58.3144 44.6667ZM33.7526 33C35.4366 30.8333 38.6784 29.7167 43.3264 29.6667C47.9743 29.6167 51.3677 30.825 53.2623 33C54.2401 34.1862 54.8278 35.6402 54.9463 37.1667C53.9022 36.5333 52.4708 35.9167 51.2751 36.3333C49.2458 37.0083 48.168 39.3333 47.6796 40.775C46.8797 40.2167 45.9956 39.5583 45.1031 38.9167C43.5204 37.7022 41.861 36.5888 40.1351 35.5833C39.3395 35.2131 38.4663 35.0359 37.5877 35.0663C36.7091 35.0967 35.8505 35.334 35.083 35.7583C34.2651 36.2859 33.6579 37.0783 33.3653 38H32.4306C32.2081 36.2273 32.6812 34.4376 33.7526 33ZM33.0537 39.6667C33.0537 39.775 33.0537 39.8667 33.0537 39.9833V49.6667H30.5866C30.2582 49.3833 29.6856 47.7083 29.6856 44.6667C29.6856 41.625 30.2582 39.95 30.5866 39.6667H33.0537Z" fill="#01161E"/>
<path d="M28.0016 44.6667C27.9828 43.2487 28.1326 41.8334 28.4478 40.45C28.8436 38.8333 29.5677 38 30.5276 38H33.0508V39.6667H30.5866C30.2582 39.95 29.6856 41.625 29.6856 44.6667C29.6856 47.7083 30.2582 49.3833 30.5866 49.6667H33.057V51.3333H30.5276C28.2458 51.3333 28.0016 46.675 28.0016 44.6667Z" fill="#019771"/>
<path fill-rule="evenodd" clip-rule="evenodd" d="M54.9463 49.6667L54.9463 52.8652L54.9463 52.8583V51.3333H55.7883V60.0833C55.7883 60.6305 55.6794 61.1723 55.4678 61.6778C55.2562 62.1834 54.9461 62.6427 54.5552 63.0296C54.1642 63.4165 53.7001 63.7234 53.1893 63.9328C52.6785 64.1422 52.1311 64.25 51.5782 64.25H49.8941V63C49.8941 62.779 49.8054 62.567 49.6475 62.4107C49.4896 62.2545 49.2754 62.1667 49.0521 62.1667H44C43.7767 62.1667 43.5625 62.2545 43.4046 62.4107C43.2467 62.567 43.158 62.779 43.158 63V67.1667C43.158 67.3877 43.2467 67.5996 43.4046 67.7559C43.5625 67.9122 43.7767 68 44 68H49.0521C49.2754 68 49.4896 67.9122 49.6475 67.7559C49.8054 67.5996 49.8941 67.3877 49.8941 67.1667V65.9167H51.5782C53.1414 65.9167 54.6406 65.3021 55.746 64.2081C56.8514 63.1142 57.4723 61.6304 57.4723 60.0833V51.3333C58.4323 51.3333 59.1564 50.5 59.5521 48.8833C59.8674 47.4999 60.0172 46.0847 59.9984 44.6667C59.9984 42.6583 59.7542 38 57.4723 38H54.9463L54.9463 39.6667H57.4134C57.7418 39.95 58.3144 41.625 58.3144 44.6667C58.3144 47.7083 57.7418 49.3833 57.4134 49.6667H54.9463ZM44.842 66.3333H48.2101V63.8333H44.842V66.3333Z" fill="#019771"/>
</svg>
