<svg width="48" height="48" viewBox="0 0 48 48" fill="none" xmlns="http://www.w3.org/2000/svg">
<rect y="0.000244141" width="48" height="48" fill="#E5F4F0"/>
<path d="M35.455 17.1438C34.6069 17.5027 33.7013 17.7473 32.7478 17.8589C33.7195 17.2951 34.467 16.4065 34.8206 15.3463C33.9092 15.8584 32.8992 16.2312 31.824 16.4388C30.9654 15.5539 29.7416 15.0002 28.3828 15.0002C25.7791 15.0002 23.668 17.0331 23.668 19.5374C23.668 19.8973 23.7111 20.2433 23.7897 20.5746C19.8702 20.3965 16.3964 18.5842 14.0716 15.8446C13.6624 16.5108 13.4334 17.285 13.4334 18.1284C13.4334 19.7062 14.2671 21.0931 15.5301 21.9079C14.7568 21.8839 14.0294 21.6791 13.395 21.3395V21.3958C13.395 23.5965 15.0174 25.4319 17.1765 25.8499C16.7807 25.9523 16.3629 26.0077 15.9345 26.0077C15.6336 26.0077 15.3452 25.98 15.0567 25.9283C15.6614 27.7304 17.3998 29.0444 19.4687 29.0813C17.8588 30.2984 15.8186 31.0237 13.6212 31.0237C13.2475 31.0237 12.8747 31.0025 12.5 30.9619C14.5977 32.2482 17.0691 33.0002 19.7418 33.0002C28.4182 33.0002 33.157 26.0833 33.157 20.0947C33.157 19.9019 33.157 19.7072 33.1426 19.5134C34.0635 18.8776 34.8675 18.0739 35.5 17.1622L35.455 17.1438Z" fill="#019771"/>
</svg>
