<svg width="172" height="140" viewBox="0 0 172 140" fill="none" xmlns="http://www.w3.org/2000/svg">
<path d="M171.996 44.4453L171.996 95.8069C171.996 95.8069 172.369 102.411 165.913 102.411C159.458 102.411 76.1336 102.411 76.1336 102.411C76.1336 102.411 69.1079 100.977 69.1079 112.008C69.1079 123.039 69.1078 137.401 69.1078 137.401C69.1078 137.401 68.8478 142.582 64.7237 138.314C60.5995 134.045 2.85583 74.3026 2.85583 74.3026C2.85583 74.3026 -1.56982 70.3122 2.85583 65.7373C7.28149 61.1623 65.7997 0.703238 65.7997 0.703238C65.7997 0.703238 69.1079 -1.91931 69.1079 2.96451C69.1079 7.84835 69.1079 31.5174 69.1079 31.5174C69.1079 31.5174 67.9517 37.6256 76.8251 37.6256C85.6985 37.6256 166.204 37.6256 166.204 37.6256C166.204 37.6256 171.996 37.2065 171.996 44.4453Z" fill="#F1F9F7"/>
</svg>
