<svg width="391" height="402" viewBox="0 0 391 402" fill="none" xmlns="http://www.w3.org/2000/svg">
<path d="M119.887 274.251C120.776 271.879 117.833 269.027 118.579 266.604L121.679 260.473C122.097 255.146 128.99 251.4 133.79 253.993C136.092 255.224 138.146 257.648 140.762 257.155C141.655 256.865 142.529 256.518 143.377 256.118C145.692 255.379 148.164 256.403 150.362 257.414C156.208 260.11 162.251 262.923 166.397 267.783C168.869 270.673 170.622 274.238 173.735 276.415C177.135 278.8 181.543 279.111 185.702 279.228C189.862 279.344 194.23 279.396 197.866 281.405C201.502 283.414 204.105 288.158 203.163 292.176C202.349 295.708 200.789 299.03 198.586 301.922C196.728 304.307 194.322 306.653 194.034 309.699C193.812 311.863 194.753 313.95 195.12 316.089C195.489 317.837 195.273 319.657 194.505 321.273C193.681 322.841 192.504 324.461 190.751 324.746C186.422 325.433 181.321 323.554 177.999 326.393C174.415 329.529 176.115 335.193 175.723 339.898C175.239 345.795 170.818 350.837 165.442 353.429C164.116 353.903 162.901 354.639 161.872 355.594C159.858 357.849 160.302 362.048 157.529 363.266C156.679 363.629 155.711 363.603 154.835 363.902C153.903 364.306 153.112 364.974 152.563 365.823C152.014 366.672 151.73 367.663 151.748 368.671C151.683 370.68 152.912 372.65 152.912 374.659C152.969 376.82 152.245 378.929 150.872 380.608C149.943 381.697 148.753 382.708 148.635 384.121C148.71 385.386 149.25 386.58 150.153 387.478C152.651 390.64 156.078 393.608 158 397.121C158.292 397.682 158.405 398.318 158.326 398.945C158.246 399.572 157.978 400.16 157.556 400.633C157.155 401.153 156.616 401.55 155.998 401.779C155.38 402.009 154.71 402.061 154.063 401.929C143.391 397.639 135.438 387.97 132.038 377.031C128.637 366.092 129.5 354.181 133.058 343.332C134.954 337.552 137.622 331.914 138.603 325.887C139.584 319.86 138.577 313.069 134.091 308.869C129.265 304.346 123.915 301.974 119.455 297.075C117.062 294.444 114.668 291.696 113.53 288.287C112.392 284.879 112.824 280.809 115.44 278.398C116.957 277.011 119.154 276.169 119.887 274.251Z" fill="#F1F9F7"/>
<path d="M70.1977 90.1917C72.663 89.9456 75.1523 90.2695 77.4699 91.1378C81.1975 92.5376 88.9406 90.5027 92.3674 92.6283C97.4814 95.8556 100.568 102.271 106.454 103.749C108.574 104.107 110.726 104.25 112.876 104.177C120.2 104.501 127.603 108.713 130.35 115.466C133.097 122.218 130.298 130.824 123.405 133.339C121.973 132.845 120.455 132.648 118.943 132.758C117.431 132.868 115.958 133.284 114.615 133.98C113.271 134.675 112.086 135.636 111.131 136.803C110.177 137.97 109.473 139.318 109.065 140.765C108.656 142.211 108.55 143.726 108.754 145.214C108.959 146.702 109.468 148.134 110.252 149.42C111.035 150.706 112.076 151.819 113.31 152.691C114.544 153.563 115.945 154.176 117.428 154.491C119.177 154.676 120.9 155.05 122.568 155.606C124.647 156.578 125.929 158.652 127.551 160.272C128.615 161.486 130.108 162.251 131.723 162.41C134.797 162.553 136.942 159.131 137.021 156.072C137.099 153.013 135.83 150.071 135.346 147.077C134.862 144.083 135.386 140.454 138.093 138.899C140.8 137.344 144.489 138.743 146.412 141.232C148.334 143.72 148.923 146.922 149.459 150.007C152.18 148.568 155.881 148.71 158.929 148.568C160.877 150.849 161.047 154.076 161.649 157.018C162.309 160.221 163.569 163.272 165.364 166.013C166.849 167.866 168.056 169.922 168.947 172.118C169.235 173.312 169.264 174.554 169.034 175.76C168.804 176.967 168.319 178.111 167.611 179.12C166.904 180.128 165.99 180.976 164.928 181.61C163.867 182.244 162.683 182.649 161.453 182.798C158.013 183.018 154.155 181.268 151.369 183.251C149.498 184.586 148.975 187.062 147.811 189.019C146.189 191.728 144.554 193.711 141.376 193.568C137.716 193.424 134.069 194.074 130.69 195.474C130.056 195.661 129.469 195.976 128.964 196.4C128.46 196.824 128.05 197.347 127.76 197.936C127.224 199.517 128.31 201.125 128.78 202.732C129.125 204.24 129.065 205.812 128.606 207.29C128.147 208.768 127.305 210.101 126.165 211.156C123.954 213.295 121.757 216.341 118.644 216.341C117.144 216.355 115.685 216.832 114.471 217.705C113.257 218.578 112.347 219.805 111.869 221.214C111.476 222.394 111.45 223.69 111.176 224.986C111.086 225.628 110.862 226.245 110.517 226.797C110.173 227.348 109.715 227.822 109.174 228.187C108.05 228.822 105.97 228.706 105.97 227.409C105.97 222.407 100.594 218.674 95.5064 218.518C92.8999 218.421 90.3216 219.081 88.0884 220.416C85.8553 221.752 84.0648 223.705 82.9371 226.036C80.9098 230.779 82.8063 237.027 87.4495 239.334C89.9337 240.352 92.6109 240.825 95.2972 240.72C97.9749 240.617 100.646 241.058 103.145 242.016C105.551 243.157 107.526 245.671 107.173 248.264C106.899 249.91 105.865 251.893 107.173 252.994C107.932 253.655 109.096 253.5 110.025 253.889C111.764 254.602 112.183 256.818 113.19 258.399C114.602 260.59 119.193 261.328 121.678 260.473L118.579 266.603C116.968 266.727 115.351 266.466 113.863 265.844C112.375 265.222 111.059 264.255 110.025 263.026C109.343 262.051 108.605 261.117 107.814 260.227C104.479 257.025 98.4101 258.36 95.1141 255.12C94.4208 254.459 93.9107 253.63 93.2045 252.994C91.6611 251.608 89.4507 251.309 87.3972 250.947L87.1097 250.895C83.2001 250.19 78.2183 249.293 75.1548 246.877C70.8175 243.446 67.6823 238.748 66.1954 233.449C65.3976 230.403 65.0575 227.228 64.0897 224.221C61.9523 218.127 57.5702 213.057 51.8211 210.029C46.5109 207.151 41.3053 202.667 40.756 196.705C40.4682 193.4 41.6192 190.16 41.7762 186.855C41.8649 182.408 40.5628 178.044 38.0485 174.36C35.7596 171.146 35.3542 166.998 35.0141 163.11C34.5234 159.943 34.6611 156.712 35.4196 153.597C36.4528 150.356 38.7679 147.674 40.3767 144.667C41.9854 141.66 42.8225 137.784 40.8606 134.985C39.3957 132.885 36.7406 131.965 34.2293 131.408C26.9441 129.787 18.0239 127.338 12.269 132.056C10.0847 133.831 6.86717 133.235 4.12049 132.535C2.83871 132.211 1.37381 131.783 0.916034 130.487C0.722899 129.35 0.906441 128.182 1.43921 127.156C2.35477 124.292 2.05394 120.274 0.131268 117.941C-0.182638 114.506 -0.156479 110.307 2.81255 108.389C3.81274 107.902 4.83879 107.469 5.88621 107.093C6.40961 106.885 6.86745 106.542 7.21237 106.1C7.55729 105.658 7.77678 105.133 7.84813 104.578C7.84813 103.179 6.54019 102.245 5.59847 101.092C4.55211 99.5754 5.63771 98.7718 6.54019 97.2035C6.08241 95.9982 7.2334 94.6114 8.55442 94.1318C9.90804 93.8659 11.2985 93.8396 12.6614 94.054C15.1237 94.3037 17.6103 93.9568 19.9074 93.0431C20.2997 90.5805 18.1678 88.4549 16.4413 86.5626C14.7148 84.6703 12.4782 80.6653 14.4663 79.0582C18.9918 75.4032 25.4138 73.459 31.0379 74.9755C35.485 73.9775 42.9141 75.7272 44.222 80.0562C44.9937 82.8039 47.9627 84.1 50.5001 85.3961C54.3715 87.401 57.9236 89.9602 61.0421 92.9912C63.9981 92.7839 68.0396 92.2265 70.1977 90.1917Z" fill="#F1F9F7"/>
<path d="M142.309 1.79152C142.365 1.23436 142.777 0.824133 143.33 0.711333C144.278 0.518112 145.465 0.274491 146.423 0.0802409C147.059 -0.0485609 147.716 -0.0218171 148.339 0.156992C149.85 0.590497 151.923 1.18974 153.383 1.60839C153.745 1.71205 153.959 2.0534 153.726 2.34634C153.334 2.83827 154.116 3.84923 154.679 3.56472C155.277 3.26288 155.888 2.98836 156.514 2.74156C156.784 2.6349 157.091 2.70025 157.306 2.89454C159.1 4.51528 161.358 5.9055 162.711 7.90917C163.188 8.61625 163.228 9.52095 162.873 10.2955C161.288 13.7542 158.056 16.079 155.131 18.5543C154.352 19.2128 155.026 20.1971 155.966 19.797C156.836 19.4269 157.662 20.39 157.15 21.1783C154.694 24.9535 152.17 28.6931 149.562 32.3808C149.222 32.8611 149.014 33.4202 148.959 34.0041C148.869 34.9592 148.755 36.161 148.66 37.1729C148.6 37.8121 147.938 38.2151 147.337 37.9769C146.961 37.8283 146.586 37.6787 146.212 37.5283C145.447 37.2216 144.884 38.2756 145.477 38.8427C145.952 39.2968 145.562 40.0188 144.902 40.0386C143.863 40.0696 142.822 40.0939 141.779 40.1115C140.767 40.1286 140.151 41.2204 140.661 42.0872C140.804 42.3316 140.947 42.5769 141.087 42.824C141.2 43.0224 141.131 43.2729 140.934 43.3887C140.878 43.421 140.821 43.4543 140.763 43.4885C140.337 43.7373 140.589 44.2466 141.038 44.0418C141.206 43.9651 141.406 44.0085 141.525 44.1495C141.903 44.5986 142.406 45.1905 142.893 45.7637C143.651 46.6564 143.844 47.8965 143.479 49.0057C142.863 50.8748 142.256 52.8005 140.646 53.7792C139.724 54.3396 138.819 55.0731 138.613 56.1252C138.571 56.3368 138.529 56.5531 138.486 56.7705C138.217 58.1397 136.638 58.7748 135.25 58.5417C133.558 58.2576 133.702 60.1302 135.347 60.6137C136.097 60.8341 136.846 61.0609 137.592 61.2974C139.042 61.7563 139.521 63.5332 138.462 64.6158C137.15 65.9563 134.019 64.6433 132.228 65.221C130.793 65.6836 129.078 66.629 127.933 66.6783C126.488 66.6089 125.043 66.5818 123.6 66.5929C121.34 66.6104 119.858 68.8611 120.642 70.9615C121.047 72.0448 121.994 72.9042 123.157 72.8247C127.141 72.552 130.938 69.2874 134.656 70.4558C135.475 70.7133 136.304 71.0658 136.915 71.665C137.676 72.4115 137.837 73.4621 137.64 74.539C137.135 77.2912 133.884 78.034 131.068 78.2285C130.171 78.2904 129.277 78.3956 128.387 78.5315C126.111 78.8789 123.428 77.7334 121.251 78.4768C119.654 79.0221 117.916 78.6118 117.34 77.0381C116.996 76.0961 116.804 75.0615 116.629 74.0315C115.901 69.7583 113.891 71.3258 114.422 75.6272C114.557 76.717 114.455 77.7035 113.893 78.4701C113.06 79.6081 111.385 78.9038 110.637 77.7091C110.414 77.3528 110.186 76.988 109.963 76.6312C109.293 75.5587 109.755 74.1622 110.941 73.7039C112.205 73.2155 112.662 71.6659 111.907 70.5496C111.484 69.9253 111.076 69.2913 110.687 68.6468C109.17 66.1342 111.424 63.6729 114.104 64.9064C114.468 65.074 114.831 65.2434 115.195 65.4127C115.804 65.6966 116.48 65.8692 117.137 65.7249C119.422 65.2239 120.983 63.228 122.75 61.6737C123.422 61.0819 123.738 60.1508 123.45 59.3065C123.28 58.8076 123.113 58.3075 122.947 57.8061C122.603 56.7642 123.677 55.8317 124.677 56.2991C124.767 56.3408 124.855 56.3819 124.941 56.4221C125.47 56.6688 126.051 56.5359 126.253 55.9925C126.62 55.0055 124.953 53.7684 123.984 53.3368C122.652 52.743 122.314 50.4655 123.314 48.1889C123.522 47.7131 124.027 47.4543 124.551 47.4669C125.786 47.4965 127.016 47.4373 128.237 47.3002C129.004 47.214 128.872 46.2836 128.106 46.1962C127.742 46.1547 127.574 45.8497 127.553 45.4871C127.319 41.5581 123.239 39.0485 122.764 35.1642C122.672 34.4073 123.294 33.7707 124.062 33.8069C125.671 33.8825 126.981 34.4904 128.126 35.3796C129.094 36.1305 129.985 35.5332 129.315 34.5123C128.992 34.0192 129.143 33.3583 129.646 33.0467C131.923 31.6372 134.149 30.1461 136.501 28.8731C137.069 28.5658 136.815 27.5047 136.391 27.0205C135.856 26.4101 134.285 26.0912 133.899 26.8034C133.445 27.6422 132.959 28.4625 132.42 29.2511C132.316 29.4043 132.169 29.5243 131.996 29.5953C130.385 30.2586 128.688 30.6601 127.016 31.1482C125.281 31.6545 123.415 31.7284 121.711 31.131C121.525 31.066 121.341 31.0014 121.16 30.9381C120.079 30.5596 119.148 29.8504 118.496 28.9159C118.132 28.3937 117.742 27.8348 117.379 27.3136C116.782 26.4579 116.783 25.3249 117.408 24.4892C117.701 24.0974 117.997 23.7089 118.295 23.3218C119.159 22.1998 118.391 20.6037 116.967 20.5655C115.307 20.5209 114.645 18.4411 115.966 17.4436C116.768 16.838 117.569 16.2288 118.368 15.6153C118.653 15.3967 119.016 15.3047 119.371 15.3604C119.856 15.4362 120.427 15.5236 121.022 15.6143C121.936 15.7536 122.356 14.515 121.614 13.9671C121.3 13.7349 121.256 13.3799 121.412 13.0237C123.07 9.23891 125.177 10.9156 127.193 13.0489C127.315 13.1773 127.462 13.2798 127.624 13.3515C128.866 13.9008 129.557 12.8292 128.544 11.9306C128.444 11.8425 128.345 11.7542 128.245 11.6658C127.786 11.2567 127.67 10.5889 127.935 10.036C128.614 8.61831 129.277 7.08608 130.388 6.40918C130.993 6.04085 131.829 4.64291 131.365 4.11076C131.042 3.73974 131.245 3.16854 131.74 3.16641C133.47 3.15898 134.858 4.01838 136.154 5.07982C137.104 5.85808 138.177 5.04917 137.653 3.94343C137.183 2.9505 138.193 1.91764 139.215 2.33911C139.665 2.52444 140.115 2.70954 140.54 2.88379C141.337 3.21042 142.223 2.64188 142.309 1.79152Z" fill="#F1F9F7"/>
<path d="M109.139 27.2242C109.818 25.5085 111.787 24.6161 112.794 26.1659C114.323 28.5208 115.184 31.4303 117.773 32.769C118.124 32.9502 118.359 33.3 118.331 33.6907C118.296 34.1639 118.663 34.5679 119.124 34.6985C120.245 35.0166 120.963 35.7897 121.531 36.7502C123.304 39.744 122.862 46.7316 121.326 49.8507C121.208 50.0894 121.095 50.3306 120.985 50.5741C120.424 51.8253 119.359 52.8134 118.012 53.1198C116.364 53.4947 114.655 52.799 113.749 51.3829C113.389 50.8186 113.036 50.267 112.752 49.8226C112.606 49.5933 112.423 49.3869 112.247 49.1786C111.203 47.9384 111.814 46.7147 112.711 45.5328C113.525 44.4591 112.683 43.5106 111.43 44.0223C110.267 44.4969 108.885 43.3971 108.429 42.2364C107.9 40.8921 106.943 39.6656 106.25 38.3748C106.034 37.9722 106.23 37.5125 106.69 37.5194C107.414 37.5303 107.986 36.0002 107.58 35.4059C106.997 34.5521 106.698 33.5161 106.678 32.301C106.675 32.1081 106.832 31.9518 107.027 31.9453L107.301 31.9361C107.716 31.9222 107.661 31.3302 107.25 31.2693C106.986 31.23 106.955 30.9305 107.12 30.7214C107.971 29.6395 108.644 28.4725 109.139 27.2242Z" fill="#F1F9F7"/>
<path d="M93.6668 48.9843C92.3573 48.4686 91.642 46.7594 92.8589 46.0556C95.1907 44.7071 98.2165 47.8579 100.581 49.9028C101.367 50.5827 102 51.4366 102.326 52.4188C102.797 53.8394 103.291 55.2537 103.781 56.6674C103.873 56.9349 103.718 57.224 103.442 57.2965C102.782 57.4703 102.12 57.6421 101.457 57.8101C101.044 57.9147 100.992 57.4212 101.393 57.2774C101.615 57.1977 101.605 56.9546 101.447 56.7803C100.184 55.3864 98.7125 54.546 97.0323 54.2628C95.7749 54.0509 94.7732 52.5874 95.4569 51.5205C95.941 50.7651 95.619 49.7555 94.7804 49.4238C94.4192 49.2809 94.0417 49.1319 93.6668 48.9843Z" fill="#F1F9F7"/>
<path d="M83.2126 55.0626C81.9279 55.2018 81.2738 53.6455 82.3016 52.8692C82.5551 52.6777 82.8094 52.4872 83.0644 52.2976C84.0212 51.5864 85.3721 52.1582 85.4463 53.3411C85.5807 55.4825 85.5189 57.635 85.4512 59.7809C85.4128 61.0012 84.6405 62.0548 83.4645 62.4189C81.995 62.874 80.237 62.1086 80.2541 60.583C80.2744 58.7742 81.3679 57.6927 83.5346 57.3385C84.2297 57.2249 84.7439 56.5825 84.5882 55.9016C84.4626 55.3525 83.9426 54.9836 83.3778 55.0447C83.3235 55.0506 83.2683 55.0566 83.2126 55.0626Z" fill="#F1F9F7"/>
<path d="M105.933 54.2545C104.843 52.0137 107.338 50.0274 109.029 51.866C109.934 52.85 110.421 53.9979 110.069 55.3299C109.805 56.3292 110.29 57.5907 111.331 57.6423C112.47 57.6987 112.865 58.956 111.82 59.4055C111.491 59.5467 111.158 59.6795 110.824 59.8084C110.101 60.0869 109.278 59.8286 108.848 59.1888C107.781 57.5993 106.765 55.9664 105.933 54.2545Z" fill="#F1F9F7"/>
<path d="M119.663 58.3069C118.598 57.0789 116.059 59.3108 117.106 60.5548C118.161 61.8094 120.738 59.5454 119.663 58.3069Z" fill="#F1F9F7"/>
<path d="M70.3068 65.015C70.5673 64.5942 70.9615 64.2714 71.4217 64.0821C73.3088 63.3059 75.7472 65.0675 75.8702 67.0886C75.9918 69.0878 77.1728 67.5108 77.8341 68.048C78.7562 68.797 79.4094 68.7832 79.4629 70.6069C79.4746 71.0056 80.2575 71.1606 80.4069 70.7903C80.5167 70.5185 80.9031 70.4992 81.054 70.7508C81.9005 72.1616 82.9911 73.2866 84.276 74.131C85.9781 75.2494 87.4008 73.3625 86.7886 71.4318C86.6452 70.9798 86.5348 70.5265 86.4702 70.0731C86.1563 67.8693 88.4935 68.0556 89.2259 70.1596C89.4543 70.8156 89.7146 71.4125 90.0448 71.8746C91.1686 73.4475 94.1094 74.6541 93.7147 76.5413C93.5379 77.3864 92.8497 78.0184 92.0134 78.2597C88.6957 79.2169 85.7886 81.0634 82.744 82.6655C82.222 82.9402 81.5842 82.8536 81.1488 82.4574C81.1258 82.4365 81.1027 82.4154 81.0794 82.3942C80.3451 81.7258 80.5543 80.5234 81.4716 80.1361C82.7362 79.6022 82.4646 78.2363 81.1081 78.4569C79.861 78.6597 78.6171 78.9103 77.3634 79.0408C75.8662 79.1968 74.8786 77.7547 75.1729 76.2917C75.4272 75.028 75.609 73.7533 75.7183 72.4675C75.8428 71.0041 74.3191 70.0288 72.9687 70.6339C71.884 71.1199 71.444 72.4177 72.0113 73.4548C72.311 74.0027 72.0876 74.4107 71.7229 73.9066C71.3583 73.4024 70.5943 73.4252 70.261 73.9502C70.0745 74.2439 69.7305 74.4005 69.3845 74.347C69.0912 74.3017 68.7654 74.2506 68.4233 74.1964C66.7023 73.9238 65.8612 71.9548 66.8149 70.5093C68.0118 68.6952 69.1671 66.8564 70.3068 65.015Z" fill="#F1F9F7"/>
<path d="M95.6811 68.6199C95.8295 67.9156 96.6094 67.6386 97.3353 67.6479C98.2165 67.6593 99.0443 68.1201 99.5057 68.8642C99.5851 68.9924 99.665 69.1215 99.7435 69.2486C100.158 69.9201 100.432 70.7903 99.9547 71.4196C98.6699 73.1137 95.2327 70.748 95.6811 68.6199Z" fill="#F1F9F7"/>
<path d="M102.78 69.0689C101.891 68.3427 102.294 66.8592 103.443 66.7728C103.905 66.7381 104.368 66.7036 104.811 66.6712C105.854 66.5948 106.76 67.4092 106.902 68.437C107.359 71.7485 108.415 75.9818 105.747 77.3612C104.396 78.0598 102.989 76.7959 102.639 75.3261C102.547 74.9384 102.457 74.5629 102.378 74.2331C102.296 73.8891 102.053 73.6049 101.725 73.466C100.794 73.0721 100.816 71.7598 101.76 71.3972C101.97 71.3167 102.18 71.2361 102.386 71.1565C103.288 70.8091 103.527 69.6784 102.78 69.0689Z" fill="#F1F9F7"/>
<path d="M-nan -nanL95.7484 75.6077C93.5405 81.0329 101.726 75.252 95.7484 75.6077L-nan -nanZ" fill="#F1F9F7"/>
<path d="M112.207 84.8339C112.434 83.4892 113.584 82.4858 114.95 82.3189C115.457 82.257 115.966 82.218 116.476 82.2017C118.74 82.1294 120.298 84.3241 119.333 86.3547C117.691 89.8126 111.571 88.6034 112.207 84.8339Z" fill="#F1F9F7"/>
<path d="M125.023 99.6089C125.285 98.5487 124.584 97.5163 123.725 96.8324C120.475 94.2435 121.414 87.5576 124.776 84.1757C126.536 82.4045 128.34 84.7778 127.405 87.0847C127.071 87.909 127.126 88.6786 127.426 89.5159C128.321 92.0228 129.051 94.5839 129.596 97.1807C129.664 97.5028 129.924 97.7355 130.256 97.7355C130.743 97.7355 131.105 97.2522 130.947 96.7959C130.052 94.2196 129.501 91.5535 129.168 88.8578C128.947 87.0781 129.91 85.3777 131.51 84.5416C132.038 84.2661 132.566 83.9916 133.094 83.718C134.498 82.9914 136.246 83.5525 136.749 85.0403C136.89 85.4565 137.017 85.8765 137.132 86.2999C137.72 88.4779 140.634 89.2077 142.729 88.3298C143.34 88.0742 144.056 88.2377 144.567 88.6549C145.847 89.699 146.96 90.8997 147.908 92.2569C148.503 93.1079 149.468 93.6675 150.512 93.6523C151.49 93.638 152.385 94.1307 152.962 94.9129C153.758 95.9917 154.673 96.9519 155.931 97.4061C156.673 97.6741 157.431 97.9598 158.004 98.498C158.612 99.068 159.318 99.7268 159.909 100.278C160.316 100.656 160.319 101.294 159.918 101.678L159.759 101.829C159.298 102.269 159.407 103.015 160.018 103.205C160.819 103.454 160.87 104.587 160.059 104.801C160.024 104.81 159.989 104.82 159.955 104.829C159.359 104.986 159.106 105.686 159.483 106.169C160.816 107.876 162.315 109.429 164.265 110.365C165.074 110.753 165.85 111.218 166.537 111.793C166.857 112.061 167.189 112.313 167.532 112.547C169.474 113.875 170.93 116.214 169.897 118.316C168.788 120.573 166.215 120.004 164.562 118.102C164.433 117.953 164.299 117.812 164.159 117.681C162.645 116.265 160.716 118.35 161.7 120.167C163.264 123.057 166.714 125.046 167.277 128.511C167.42 129.389 166.523 129.983 165.662 129.732C165.444 129.668 165.219 129.603 164.99 129.536C163.722 129.167 162.824 130.713 163.784 131.613C164.624 132.4 164.036 133.694 162.909 133.44C159.08 132.578 155.793 130.4 153.385 127.286C152.379 125.985 150.721 125.26 149.118 125.666C148.37 125.856 147.621 126.041 146.871 126.223C145.635 126.523 144.478 125.476 144.575 124.219C144.642 123.367 145.275 122.729 146.122 122.573C147.309 122.356 148.493 122.13 149.675 121.898C150.746 121.689 151.247 120.438 150.691 119.507C150.367 118.966 150.44 118.346 150.784 117.817C151.75 116.335 152.488 114.726 153.055 113.045C153.308 112.295 152.606 111.598 151.835 111.804C150.984 112.03 150.252 111.169 150.623 110.376L150.726 110.156C151.015 109.537 150.697 108.807 150.042 108.596C149.502 108.422 148.916 108.234 148.409 108.073C147.887 107.908 147.426 107.592 147.093 107.16C146.937 106.959 146.783 106.758 146.629 106.556C144.409 103.643 139.154 103.306 135.471 103.384C132.646 103.444 129.554 102.697 126.786 102.212C125.565 101.998 124.728 100.802 125.023 99.6089Z" fill="#F1F9F7"/>
<path d="M137.5 83.7722C139.493 81.9401 143.101 83.9501 143.855 86.1736C143.173 89.909 135.993 87.0807 137.5 83.7722Z" fill="#F1F9F7"/>
<path d="M145.291 110.756C148.163 109.653 149.042 110.614 147.965 113.673C145.075 114.74 144.178 113.78 145.291 110.756Z" fill="#F1F9F7"/>
<path d="M197.187 17.2019C196.648 17.4167 196.372 18.0058 196.534 18.5589L196.795 19.4484C197.077 20.4106 195.757 20.9824 195.089 20.23C194.663 19.7498 193.976 19.9221 193.651 20.4747L193.382 20.9326C192.973 21.6286 192.034 21.8041 191.392 21.3107L191.291 21.2331C190.775 20.837 190.055 20.834 189.535 21.2252C188.828 21.7568 188.12 22.2901 187.412 22.8233L185.944 23.9287C185.349 24.3766 185.584 25.3137 186.321 25.4361C186.874 25.5278 187.426 25.6206 187.978 25.7146C188.775 25.8501 188.683 26.848 187.875 26.8441C187.384 26.8418 187.058 27.346 187.259 27.7901L187.378 28.0552C187.717 28.8063 186.888 29.5469 186.167 29.1399C185.411 28.7137 184.564 29.4766 185.006 30.2181C185.236 30.6023 185.469 30.9837 185.707 31.3627C186.472 32.5842 184.951 34.0489 183.752 33.2404C183.176 32.8521 182.595 32.4708 182.009 32.0987C180.889 31.3886 179.594 32.4885 180.082 33.7135C180.591 34.9905 179.147 36.2376 177.947 35.5524C177.009 35.0171 176.073 34.4763 175.15 33.9123C175.024 33.8355 174.909 33.7429 174.807 33.6372C174.188 32.9976 173.185 32.9179 172.437 33.4041C172.006 33.6848 171.56 33.9625 171.111 34.2426C167.899 36.2445 164.494 38.3674 164.675 42.5478C165.089 45.0191 163.228 46.1226 161.437 47.1845L161.36 47.2303C160.513 47.7327 159.836 48.4598 159.334 49.302C158.52 50.6685 157.727 52.0578 157.129 53.5253C156.65 54.7001 157.443 55.9417 158.69 56.2202C159.873 56.4842 160.633 57.6097 160.44 58.7956L160.079 61.0065C159.861 62.3429 159.073 63.5204 157.927 64.2573C157.052 64.8203 156.18 65.3909 155.309 65.9616C153.578 67.0957 151.846 68.2302 150.079 69.3049C149.405 69.7151 148.987 70.4392 148.987 71.2232C148.987 71.9957 149.39 72.7153 150.058 73.1142C152.857 74.786 155.804 76.2954 159.105 75.5237C159.469 75.4386 159.827 75.7389 159.767 76.1048C159.738 76.2754 159.621 76.4185 159.459 76.4818C158.111 77.0078 156.762 77.5515 155.417 78.1037C154.019 78.6772 154.084 80.6712 155.454 81.3078C155.879 81.5057 156.108 81.823 156.261 82.2639L156.474 82.8782C157.039 84.5043 158.773 85.3907 160.419 84.8462C163.855 83.7097 167.506 82.6419 170.491 85.2559C175.558 90.8944 178.433 98.3381 178.723 105.867C178.774 107.191 180.095 108.157 181.352 107.703L181.706 107.575C182.396 107.326 183.166 107.62 183.505 108.266C183.81 108.848 184.115 109.429 184.421 110.01C184.86 110.845 183.898 111.717 183.098 111.208C182.635 110.914 182.016 111.082 181.769 111.57L181.479 112.142C181.14 112.813 180.766 113.551 180.42 114.237C179.954 115.161 180.391 116.28 181.364 116.654L182.139 116.951C183.158 117.341 184.205 116.428 183.951 115.374L183.886 115.102C183.731 114.455 184.198 113.828 184.868 113.787C185.51 113.747 186.043 114.261 186.031 114.899L186.03 114.94C185.985 117.231 185.939 119.53 185.931 121.829C185.928 122.61 184.862 122.872 184.503 122.177C184.146 121.485 183.106 121.734 183.117 122.511C183.131 123.511 183.151 124.51 183.17 125.51L183.17 125.513C183.192 126.66 183.214 127.807 183.229 128.952C183.234 129.342 183.339 129.725 183.531 130.066C184.789 132.293 185.934 134.581 187.08 136.868C187.89 138.486 188.7 140.103 189.549 141.699C191.008 144.441 193.429 146.523 196.249 147.861C197.299 148.359 198.345 148.861 199.388 149.362C199.461 149.398 199.541 149.416 199.622 149.416C199.883 149.416 200.106 149.23 200.151 148.976C200.831 145.171 201.626 141.387 202.421 137.606C202.803 135.788 203.185 133.971 203.554 132.152C203.602 131.912 203.702 131.686 203.847 131.488C204.561 130.516 205.273 129.544 205.976 128.568C206.392 127.989 207.309 128.361 207.251 129.07C207.2 129.701 207.943 130.01 208.384 129.552C210.484 127.374 212.106 124.827 213.339 122.074C213.853 120.928 214.778 119.999 215.966 119.567C217.975 118.836 219.976 118.094 221.969 117.33C222.7 117.05 223.338 116.576 223.821 115.964C224.49 115.116 225.162 114.274 225.838 113.434C226.844 112.183 226.23 110.314 224.672 109.894C223.473 109.571 222.247 109.238 221.306 108.981C221.059 108.914 220.833 109.144 220.909 109.387C221.023 109.753 220.52 109.972 220.327 109.641C220.151 109.339 219.975 109.037 219.8 108.736C219.623 108.43 219.859 108.052 220.214 108.072C221.019 108.117 222.015 108.17 222.876 108.213C223.435 108.241 223.877 107.788 223.621 107.295C223.239 106.562 224.175 105.687 224.798 106.234C225.673 107 226.565 107.748 227.477 108.474C228.272 109.106 229.401 108.568 229.256 107.569C228.834 104.656 227.296 102.042 225.078 100.158C222.858 98.2734 222.167 95.3396 225.074 95.0374C225.465 94.9968 225.858 94.9632 226.251 94.9296C227.005 94.8651 227.756 94.8009 228.475 94.6886C229.416 94.5414 229.764 93.484 229.214 92.7121C228.838 92.1843 228.862 91.4734 229.275 90.9731L230.22 89.8276C230.863 89.0495 230.749 87.9062 229.965 87.2689L229.125 86.5868C228.3 85.9177 228.599 84.6104 229.632 84.3544C230.376 84.1701 230.799 83.3917 230.543 82.6752L229.567 79.9341C229.391 79.4395 229.058 79.0154 228.618 78.7238L227.78 78.1675C226.476 77.2991 226.722 75.3343 228.198 74.8C229.393 74.3678 230.671 75.18 230.764 76.4365C230.85 77.5881 230.937 78.7997 230.999 79.657L231.019 79.9374C231.042 79.2762 231.114 78.5776 231.186 77.8699C231.479 75.017 231.788 72.016 228.964 70.7214C228.431 70.477 228.158 69.8307 228.494 69.353C228.882 68.8008 228.493 68.0196 227.814 68.0212L227.193 68.0233C226.429 68.0267 225.862 67.3095 226.034 66.5718C226.281 65.513 226.503 64.4398 226.725 63.3646C227.395 60.1211 228.068 56.8574 229.466 53.9072C229.85 53.0978 228.737 51.9151 227.953 52.3577C227.299 52.7269 226.53 52.0879 226.779 51.3841C226.885 51.0823 226.99 50.7873 227.083 50.5207C227.22 50.1333 227.558 49.8542 227.958 49.7481C231.995 48.677 233.963 44.8985 235.899 41.1398C237.433 38.1616 236.338 33.5182 233.037 34.2144C231.89 34.4564 230.858 35.0949 230.035 36.2635C229.521 36.9942 228.59 37.4043 227.754 37.0781C227.579 37.01 227.406 36.9427 227.241 36.8785C226.781 36.7006 226.261 36.8845 226.015 37.3084C225.426 38.3266 223.505 37.5672 223.633 36.4004C223.729 35.5299 223.783 34.6552 223.785 33.7765C223.788 32.6276 222.385 32.2361 221.672 33.1428L221.1 33.8701C220.388 34.7754 218.989 34.729 218.332 33.7831L218.207 33.6017C217.87 33.1166 217.301 32.8436 216.708 32.883C214.923 33.0017 214.55 31.2833 216.234 30.6851C218.111 30.0181 219.905 29.2275 221.387 27.9725C222.574 26.9674 222.244 25.1949 221.006 24.2519C219.474 23.0849 217.951 21.9034 216.442 20.7076C216.17 20.4918 215.815 20.4063 215.474 20.4744C215.132 20.5424 214.79 20.6101 214.449 20.6775C213.216 20.9205 212.807 19.508 213.983 19.0698C214.763 18.7794 214.893 17.7613 214.17 17.3526C208.86 14.3534 202.803 14.9667 197.187 17.2019Z" fill="#F1F9F7"/>
<path d="M230.164 127.238C228.801 127.287 227.035 127.888 227.43 129.181C227.693 130.043 228.609 130.756 229.6 131.237C230.27 131.562 230.691 132.289 230.482 132.998C230.279 133.69 230.671 134.415 231.365 134.631L233.558 135.316C234.692 135.67 235.929 135.466 236.913 134.802C237.032 134.722 237.151 134.642 237.271 134.561C238.651 133.633 240.04 132.7 241.22 131.559C242.271 130.544 242.289 128.937 241.52 127.699C240.593 126.207 238.74 125.629 237.038 126.106C234.788 126.736 232.497 127.154 230.164 127.238Z" fill="#F1F9F7"/>
<path d="M301.626 56.9297C298.933 57.4361 295.867 58.0129 296.181 60.6315C296.361 62.1313 297.215 63.2001 299.178 62.9927C299.982 62.9078 300.803 63.3147 301.002 64.0912C301.21 64.9003 302.089 65.3484 302.873 65.0439L303.966 64.6196C304.547 64.3936 305.195 64.6167 305.471 65.1717C305.823 65.8805 306.771 66.0976 307.374 65.5803C308.018 65.0277 308.66 64.4752 309.299 63.9231C309.757 63.528 310.088 63.0098 310.256 62.4322C310.472 61.6891 310.69 60.9461 310.909 60.2037C311.544 58.0489 310.27 55.7816 308.078 55.2162C306.655 54.8493 305.273 55.5092 303.918 56.1559C303.622 56.297 303.328 56.4375 303.035 56.5665C302.781 56.6784 302.518 56.7589 302.249 56.8112C302.045 56.8508 301.836 56.8901 301.626 56.9297Z" fill="#F1F9F7"/>
<path d="M292.229 62.3016C292.099 61.5734 292.977 61.1606 293.49 61.6977C294.59 62.849 295.842 64.1627 296.673 65.0387C296.777 65.1478 296.954 65.1363 297.043 65.0154C297.15 64.8711 297.374 64.8893 297.461 65.0457C298.337 66.6068 299.604 67.799 301.212 68.5236C301.737 68.7601 302.236 69.0609 302.625 69.4825C302.851 69.7268 303.076 69.972 303.301 70.2174L303.303 70.2193C305.474 72.5832 307.66 74.9638 310.351 76.7074C311.41 77.3935 312.002 78.6516 311.654 79.8568C311.349 80.9101 310.409 81.6624 309.305 81.7336L309.143 81.744C307.774 81.8318 306.555 80.9268 306.152 79.6273C306.122 79.5327 306.093 79.4383 306.063 79.3439C305.15 76.4686 301.431 76.6864 301.189 79.6909C301.046 81.4696 300.995 83.2612 300.984 85.0538C300.97 87.5009 298.126 88.8699 296.2 87.3379C295.722 86.958 295.245 86.5788 294.767 86.2003C294.276 85.8113 294.203 85.0976 294.612 84.6247C294.983 84.1971 295.357 83.7723 295.735 83.3507C296.376 82.6369 295.361 81.5146 294.498 81.9403C293.746 82.3111 293.103 81.4274 293.53 80.7112C294.298 79.4248 295.074 78.1443 295.859 76.8678C296.418 75.9602 295.868 74.7689 294.818 74.5542C293.974 74.3816 293.194 74.9377 293.029 75.7761L292.925 76.3087C292.613 77.8944 290.67 78.5459 289.452 77.4717C288.508 76.6386 287.533 75.7796 286.722 75.0677C286.297 74.694 286.433 74.0004 286.963 73.7959C287.44 73.6118 287.589 73.0263 287.27 72.6293C286.239 71.3451 285.215 70.0594 284.196 68.7682C283.444 67.8148 283.651 66.4328 284.648 65.734C284.905 65.5539 285.162 65.3743 285.405 65.2043C285.944 64.828 286.686 64.9526 287.073 65.4812C287.323 65.8223 287.595 66.1931 287.871 66.57C288.386 67.2709 289.504 66.8374 289.401 65.9768L289.316 65.2678C289.236 64.6048 290.085 64.2688 290.476 64.813C290.947 65.4696 292.719 64.6507 292.544 63.864C292.428 63.3455 292.323 62.8247 292.229 62.3016Z" fill="#F1F9F7"/>
<g opacity="0.97">
<path d="M543.376 151.295C543.413 151.233 543.483 151.195 543.558 151.195C543.621 151.195 543.681 151.222 543.721 151.269C543.821 151.388 543.921 151.507 544.021 151.627C545.874 153.84 547.814 156.156 550.865 156.818C551.016 156.851 551.173 156.803 551.281 156.698C551.295 156.684 551.309 156.67 551.324 156.656C551.657 156.331 552.212 156.668 552.042 157.093C552.005 157.186 552.004 157.29 552.04 157.384C552.165 157.711 552.351 158.19 552.478 158.515C552.514 158.607 552.559 158.673 552.643 158.73C552.987 158.962 552.923 159.476 552.517 159.584C551.655 159.814 550.779 159.994 549.887 160.086C549.429 160.133 548.985 160.304 548.688 160.637C548.051 161.35 547.559 162.163 547.164 163.02C547.075 163.214 546.827 163.294 546.636 163.185C546.53 163.124 546.425 163.064 546.32 163.004C545.796 162.704 545.273 162.404 544.739 162.118C543.845 161.493 542.804 161.544 541.755 161.596C541.231 161.622 540.704 161.648 540.193 161.589C539.967 161.563 539.737 161.641 539.602 161.814C539.587 161.834 539.572 161.854 539.556 161.874C539.386 162.092 539.441 162.401 539.677 162.555C539.884 162.69 540.091 162.826 540.299 162.961C540.813 163.297 540.629 164.159 540.077 164.437C539.52 164.718 538.674 164.36 538.701 163.762C538.704 163.708 538.706 163.655 538.708 163.606C538.713 163.512 538.697 163.419 538.663 163.331C538.591 163.146 538.523 162.96 538.457 162.773C538.228 162.116 538.232 161.37 538.757 160.89C538.905 160.755 539.064 160.628 539.223 160.502C539.229 160.497 539.235 160.492 539.241 160.487C539.629 160.178 539.752 159.681 539.608 159.221C539.559 159.066 539.706 158.918 539.872 158.955C540.284 159.047 540.696 159.137 541.108 159.225C541.618 159.335 542.124 159.033 542.254 158.553C542.293 158.408 542.333 158.263 542.373 158.117C542.857 156.344 543.346 154.554 543.091 152.729C543.026 152.261 543.084 151.78 543.33 151.371L543.342 151.352C543.353 151.332 543.365 151.313 543.376 151.295Z" fill="#F1F9F7"/>
<path d="M540.807 165.409C541.02 165.156 541.398 165.096 541.686 165.27C541.694 165.275 541.702 165.279 541.71 165.284C542.003 165.462 542.152 165.785 542.163 166.114C541.859 166.093 541.391 166.06 540.972 166.03C540.697 166.011 540.557 165.706 540.729 165.502L540.754 165.471C540.772 165.45 540.789 165.429 540.807 165.409Z" fill="#F1F9F7"/>
<path d="M542.167 166.204C542.165 166.174 542.164 166.145 542.163 166.114C542.183 166.116 542.196 166.135 542.189 166.153C542.182 166.17 542.175 166.188 542.167 166.204Z" fill="#F1F9F7"/>
<path d="M542.167 166.204C542.221 167.068 542.616 167.849 543.009 168.627C543.512 169.62 544.012 170.609 543.798 171.762C543.615 172.372 543.335 172.944 543.054 173.517C542.963 173.703 542.872 173.889 542.785 174.076C542.517 174.647 542.051 175.128 541.444 175.372C541.273 175.44 541.161 175.597 541.164 175.773C541.169 176.079 541.187 176.389 541.205 176.7C541.276 177.894 541.347 179.1 540.672 180.165C540.166 180.958 540.088 181.835 540.313 182.688C540.423 183.106 540.402 183.557 540.163 183.924C539.929 184.283 539.695 184.641 539.466 185.004C539.425 185.067 539.372 185.123 539.309 185.167L538.936 185.428C538.631 185.64 538.221 185.388 538.307 185.039C538.33 184.946 538.354 184.853 538.376 184.761C538.499 184.262 537.995 183.955 537.761 184.417C537.633 184.671 537.372 184.886 537.074 184.883C537.05 184.882 537.026 184.882 537.002 184.882C536.68 184.879 536.406 185.096 536.32 185.389C536.236 185.674 536.133 185.953 536.01 186.224C535.869 186.533 535.438 186.436 535.417 186.1C535.401 185.855 535.386 185.61 535.372 185.396C535.364 185.266 535.193 185.211 535.103 185.31L535.043 185.376L535.035 185.386C534.862 185.576 534.689 185.766 534.517 185.957C534.028 186.497 533.31 186.805 532.559 186.781C532.197 186.77 531.835 186.758 531.555 186.75C531.45 186.747 531.349 186.712 531.268 186.649L531.152 186.56C530.932 186.392 530.712 186.223 530.486 186.061C530.094 185.781 529.495 185.959 529.574 186.419C529.684 187.051 529.491 187.859 529.005 188.305C528.599 188.678 528.286 189.152 527.974 189.623C527.748 189.964 527.365 190.278 526.978 190.113C526.654 189.974 526.393 189.662 526.127 189.342C525.999 189.189 525.869 189.034 525.731 188.896C525.337 188.503 524.738 188.792 524.503 189.286C524.434 189.432 524.349 189.538 524.228 189.65C524.214 189.662 524.2 189.675 524.187 189.688C523.59 190.241 522.592 190.083 521.783 190.275C521.026 190.455 520.445 191.333 519.941 192.096C519.742 192.398 519.289 192.365 519.138 192.04C518.961 191.661 518.796 191.278 518.643 190.889C518.484 190.487 518.583 190.037 518.877 189.71C518.906 189.679 518.934 189.647 518.962 189.616C519.427 189.095 520.279 189.046 520.948 188.794C521.251 188.68 521.528 188.48 521.801 188.283C522.243 187.964 522.675 187.653 523.189 187.729C523.635 187.794 524.112 187.89 524.503 187.676C524.622 187.612 524.74 187.547 524.851 187.487C525.043 187.381 525.288 187.42 525.435 187.578C525.656 187.816 526.068 187.762 526.211 187.474C526.226 187.445 526.24 187.416 526.255 187.386C526.403 187.091 526.216 186.741 525.877 186.68C525.41 186.595 524.944 186.508 524.479 186.422C524.313 186.391 524.141 186.408 523.986 186.473C523.874 186.52 523.76 186.567 523.647 186.615C522.11 187.261 520.513 187.931 518.824 187.848C518.471 187.83 518.145 188.064 518.125 188.399C518.103 188.764 517.726 189.021 517.35 188.939C516.701 188.798 516.044 188.703 515.386 188.608C514.93 188.543 514.8 187.99 515.175 187.735C516.521 186.817 517.823 185.849 519.071 184.813C519.535 184.428 520.123 184.202 520.739 184.174C521.721 184.129 522.7 184.052 523.67 183.91C524.946 183.723 526.468 184.118 527.745 183.935L527.747 183.934C527.924 183.909 528.061 183.771 528.073 183.602C528.089 183.374 528.107 183.102 528.124 182.853C528.146 182.525 528.302 182.22 528.54 181.981C529.213 181.308 529.743 180.533 530.003 179.66C530.23 178.901 530.689 178.17 531.462 177.878C531.546 177.847 531.617 177.944 531.556 178.007C531.25 178.326 530.942 178.644 530.633 178.96C530.518 179.078 530.493 179.252 530.569 179.395C530.672 179.589 530.794 179.821 530.901 180.026L530.907 180.039C530.999 180.214 531.229 180.277 531.409 180.18C531.712 180.017 532.025 179.863 532.339 179.708C534.946 178.424 536.995 176.076 538.037 173.473C538.066 173.399 538.096 173.325 538.125 173.252C538.218 173.019 538.31 172.787 538.405 172.559C538.566 172.253 538.64 171.932 538.66 171.606C538.717 170.641 538.481 169.679 538.492 168.712L538.492 168.708C538.493 168.564 538.495 168.42 538.496 168.277C538.498 168.094 538.567 167.917 538.682 167.77C539.154 167.166 540.704 167.227 541.452 166.978C541.724 166.888 541.975 166.647 542.167 166.204Z" fill="#F1F9F7"/>
<path d="M515.213 189.697C514.61 189.29 513.813 189.176 513.216 189.592C512.862 189.839 512.495 190.067 512.114 190.271C511.631 190.53 511.534 191.322 511.598 191.844C511.631 192.116 511.763 192.405 512.024 192.523C512.2 192.602 512.391 192.687 512.573 192.769C512.784 192.864 513.012 192.668 512.937 192.459C512.893 192.337 512.85 192.215 512.808 192.092C512.678 191.72 513.083 191.475 513.302 191.808C513.638 192.32 513.768 192.921 513.426 193.509C512.74 194.462 512.646 195.627 512.998 196.694C513.072 196.919 513.384 196.925 513.491 196.713C513.559 196.579 513.631 196.438 513.704 196.295C513.816 196.074 514.171 196.165 514.151 196.41C514.124 196.735 514.097 197.06 514.075 197.327C514.067 197.423 514.187 197.479 514.262 197.414C514.321 197.363 514.38 197.312 514.439 197.261C515.34 196.483 515.933 195.444 516.284 194.338C516.476 193.732 516.71 193.139 516.993 192.565C517.238 192.071 517.252 191.495 516.988 191.01C516.97 190.976 516.952 190.943 516.933 190.909C516.637 190.364 515.962 190.111 515.399 189.81C515.335 189.776 515.273 189.738 515.213 189.697Z" fill="#F1F9F7"/>
<path d="M441.598 17.7681C440.22 16.4341 437.383 19.3704 438.772 20.6941C440.157 22.0145 442.973 19.0988 441.598 17.7681Z" fill="#F1F9F7"/>
<path d="M380.617 24.9533C379.298 26.3065 381.986 29.0465 383.328 27.7153C384.681 26.3731 381.947 23.5888 380.617 24.9533Z" fill="#F1F9F7"/>
<path d="M444.59 22.9954C443.889 26.0365 445.533 29.5805 448.531 28.6312C448.999 28.4833 449.462 28.2958 449.923 28.0854C452.239 27.0265 453.461 24.4204 453.167 21.9096C453.152 21.7811 453.137 21.6526 453.123 21.524C453.004 20.4833 452.55 19.5074 451.811 18.7584C449.81 16.7304 446.451 16.9938 445.521 19.6761C445.146 20.7588 444.849 21.8708 444.59 22.9954Z" fill="#F1F9F7"/>
<path d="M377.098 37.8645C376.85 37.2595 376.94 36.5797 377.156 35.9626C377.909 33.8012 378.953 31.6847 380.638 30.209C381.539 29.4209 382.562 30.4075 382.094 31.5037L382.068 31.5637C381.767 32.2679 381.467 32.9704 381.211 33.57C381.079 33.8809 380.637 33.8878 380.494 33.5814C380.307 33.1803 379.697 33.3505 379.749 33.7893C379.838 34.5334 379.927 35.278 380.017 36.0217C380.103 36.7271 381.035 36.9214 381.401 36.3104L381.547 36.0672C381.784 35.6707 382.026 35.2668 382.255 34.8842C382.701 34.1417 383.734 34.0209 384.348 34.6344C384.897 35.1832 385.503 35.7865 386.07 36.3513C386.709 36.9876 387.808 36.6381 387.95 35.7515C388.001 35.4372 388.051 35.1231 388.1 34.809C388.247 33.8828 389.62 33.8828 389.91 34.775C390.124 35.4335 390.951 35.4966 391.397 34.9644C391.926 34.3341 392.45 33.7012 392.973 33.067C394.224 31.5485 396.558 32.3872 395.574 34.0875C395.058 34.9777 394.269 35.6865 393.143 36.1179C392.374 36.412 391.619 36.7805 391.074 37.3925C390.774 37.73 390.448 38.0972 390.119 38.4681C390.072 38.5211 390.025 38.5741 389.978 38.6272L389.438 39.2356C388.705 40.0605 387.468 40.1111 386.765 39.2613C385.802 38.0973 383.379 38.4274 382.039 39.1357C380.234 40.0896 377.919 39.8727 377.098 37.8645Z" fill="#F1F9F7"/>
<path d="M450.052 28.7459C449.534 28.9797 449.276 29.518 449.521 30.0275C449.921 30.862 449.1 31.7986 448.248 31.4229C447.449 31.0703 446.653 30.7195 446.071 30.4649C445.949 30.4116 445.814 30.3694 445.683 30.3434C441.484 29.5072 443.083 30.9524 445.129 32.1988C446.924 33.2914 448.654 34.5705 450.32 35.8472C452.297 37.3626 454.583 38.3468 457.019 38.6635C459.505 38.9865 461.07 36.4675 460.519 34.0439C460.17 32.5139 459.837 30.9788 459.504 29.4425L459.274 28.382C459.091 27.5408 458.053 27.2262 457.426 27.8219L457.242 27.9969C456.695 28.5166 455.776 28.2125 455.609 27.4802C455.472 26.8785 454.815 26.5819 454.25 26.8401C452.962 27.4283 451.309 28.1789 450.052 28.7459Z" fill="#F1F9F7"/>
<path d="M370.021 39.5748C373.199 38.3296 373.647 44.5816 370.269 43.5218C370.38 43.8572 370.553 44.3639 370.725 44.8709L370.726 44.8744C370.851 45.2422 370.976 45.6101 371.078 45.9127C371.148 46.1189 371.271 46.303 371.436 46.4462C372.433 47.3108 371.534 48.9014 370.27 48.5068C369.847 48.3745 369.424 48.2421 369.002 48.1096L367.544 48.6186C364.392 46.9022 364.249 42.5017 367.435 40.8464C368.286 40.4039 369.148 39.9795 370.021 39.5748Z" fill="#F1F9F7"/>
<path d="M463.333 37.5803C462.98 40.7606 466.851 42.8159 469.523 41.0197C471.386 39.7671 471.68 37.1796 470.018 35.6747C469.749 35.4312 469.478 35.1901 469.205 34.9511C467.043 33.0576 463.719 34.2682 463.387 37.1088C463.369 37.2659 463.351 37.4231 463.333 37.5803Z" fill="#F1F9F7"/>
<path d="M386.18 42.2063C385.509 40.1133 381.395 42.1753 382.072 44.2665C382.749 46.3585 386.851 44.3002 386.18 42.2063Z" fill="#F1F9F7"/>
<path d="M378.434 99.1758C374.379 95.2875 367.761 99.0462 363.55 102.792L351.022 113.938C354.153 111.178 356.307 119.391 351.824 132.719C348.609 142.275 349.161 146.925 349.674 151.249C349.877 152.966 350.075 154.631 350.029 156.531C349.865 163.219 347.026 166.843 346.613 166.897C346.901 166.86 347.181 166.776 347.436 166.642C347.771 166.466 348.105 166.289 348.433 166.103C348.56 166.031 348.701 165.986 348.847 165.975C349.838 165.9 350.849 165.824 351.755 165.431L351.763 165.428L351.77 165.426C351.775 165.425 351.78 165.425 351.785 165.425C351.809 165.425 351.832 165.437 351.845 165.456L351.923 165.571C352.031 165.731 351.97 165.945 351.783 166.012C351.734 166.029 351.684 166.046 351.634 166.063C351.595 166.076 351.556 166.089 351.516 166.102L351.408 166.138C351.088 166.244 350.771 166.388 350.453 166.533C349.945 166.764 349.432 166.997 348.898 167.082C348.863 167.088 348.844 167.126 348.861 167.156L349.036 167.458L349.103 167.572C349.157 167.664 349.239 167.739 349.336 167.789C349.679 167.967 350.014 168.16 350.344 168.358L349.949 168.5C349.521 168.652 349.153 168.937 348.947 169.327C348.84 169.529 348.743 169.735 348.661 169.945C348.548 170.238 348.303 170.476 347.983 170.538L347.854 170.563C347.79 170.575 347.723 170.57 347.661 170.549C347.409 170.464 347.155 170.38 346.901 170.3C346.829 170.278 346.768 170.354 346.811 170.415L346.854 170.476C346.948 170.61 346.89 170.791 346.735 170.854C346.626 170.898 346.626 171.049 346.733 171.098C347.292 171.35 347.792 171.681 348.224 172.09C348.365 172.224 348.542 172.32 348.737 172.353L348.771 172.359C349.002 172.398 349.204 172.525 349.384 172.669C349.679 172.907 350.037 173.057 350.395 173.209C350.807 173.382 351.219 173.556 351.537 173.86C351.711 174.017 351.883 174.177 352.056 174.338L352.058 174.34C352.908 175.131 353.774 175.937 354.871 176.419C355.21 176.568 355.543 176.736 355.84 176.954C356.356 177.332 356.745 177.843 356.934 178.438C356.976 178.567 357.016 178.7 357.055 178.831C357.094 178.959 357.132 179.087 357.173 179.214C357.196 179.287 357.209 179.363 357.209 179.439C357.209 179.594 357.16 179.746 357.059 179.868C356.169 180.941 354.609 181.835 353.127 181.569L352.997 181.546C352.512 181.457 352.02 181.368 351.543 181.484C350.869 181.648 350.189 181.814 349.513 181.584C349.347 181.54 349.178 181.498 349.01 181.457C348.365 181.299 347.711 181.14 347.157 180.806C346.977 180.698 346.753 180.666 346.559 180.749C347.769 181.25 347.539 181.678 347.072 182.546C346.553 183.511 345.743 185.018 346.292 187.769C347.336 192.996 346.873 195.476 346.873 195.476C349.042 199.185 344.243 203.5 339.906 203.476C344.143 203.634 345.238 204.431 345.541 205.444C345.848 206.471 346.439 210.78 345.541 211.67C345.482 211.728 345.414 211.793 345.341 211.863C345.128 212.067 344.87 212.313 344.668 212.558C344.635 212.595 344.603 212.635 344.573 212.677C344.603 212.638 344.634 212.598 344.668 212.558C345.913 211.13 348.983 212.946 350.248 214.878C355.221 222.525 359.682 230.487 363.602 238.714C371.658 237.264 379.267 233.991 385.837 229.148C387.917 227.606 389.983 225.766 390.689 223.29C391.396 220.814 390.101 217.639 387.537 217.198C386.535 217.116 385.526 217.177 384.542 217.38C378.499 218.002 373.254 213.492 369.305 208.864C372.012 205.858 376.93 207.568 380.618 209.279C387.245 212.299 394.24 214.451 401.428 215.682C403.233 215.881 404.998 216.353 406.659 217.082C407.768 217.701 408.788 218.464 409.694 219.35C418.007 226.968 424.059 236.694 427.194 247.475C430.346 248.188 432.57 244.326 432.818 241.124C432.865 240.518 432.89 239.893 432.915 239.264C433.02 236.577 433.129 233.816 435.016 232.052C435.87 231.229 436.978 230.74 438.08 230.253C439.34 229.696 440.593 229.142 441.451 228.099C442.401 226.93 442.67 225.389 442.937 223.861C443.235 222.152 443.53 220.46 444.773 219.324C447.729 216.628 452.516 219.92 454.085 223.588C454.5 224.557 454.846 225.584 455.193 226.61C456.157 229.468 457.121 232.326 459.566 233.957L464.941 233.192C464.997 242.257 468.089 251.046 473.731 258.181C476.791 256.587 475.405 251.973 473.495 249.108C471.586 246.244 469.689 241.993 472.423 239.867C474.452 239.867 475.9 241.372 477.371 242.9C478.631 244.208 479.907 245.533 481.578 245.946C485.201 246.84 488.484 242.524 487.83 238.856C487.176 235.188 483.985 232.505 480.702 230.691C477.759 227.502 482.01 222.396 486.313 221.618C487.988 221.315 489.724 221.323 491.451 221.33C494.161 221.342 496.847 221.354 499.235 220.166C503.905 217.846 505.474 211.729 504.402 206.648C503.568 202.7 501.558 199.166 499.555 195.646C498.981 194.637 498.407 193.628 497.862 192.611C495.743 188.723 494.697 182.631 498.817 180.947C499.957 180.584 501.152 180.421 502.348 180.467C517.926 179.806 530.822 163.462 527.696 148.311C527.222 145.416 525.919 142.717 523.943 140.534C522.316 138.894 520.197 137.803 518.096 136.721C515.401 135.333 512.735 133.96 511.177 131.462C507.789 125.992 511.975 118.734 517.403 115.221C519.793 113.675 522.413 112.513 525.03 111.352C528.357 109.877 531.678 108.405 534.511 106.149C535.819 106.149 536.577 104.853 536.826 103.492C536.889 102.654 536.867 101.811 536.76 100.977C536.751 99.8141 537.125 98.6795 537.825 97.7454C538.524 96.8113 539.512 96.1286 540.639 95.8005C541.765 95.4724 542.968 95.5168 544.067 95.9271C545.165 96.3373 546.099 97.091 546.727 98.0741C548.257 100.472 547.642 103.647 546.531 106.265C546.239 106.952 545.915 107.636 545.59 108.32C544.678 110.244 543.761 112.177 543.549 114.223C543.261 116.997 544.857 120.367 547.721 120.704C551.213 121.093 553.463 116.997 553.685 113.524C553.743 112.622 553.741 111.7 553.738 110.777C553.732 108.143 553.726 105.505 555.111 103.336C556.316 101.46 558.412 100.188 560.452 98.9503C563.259 97.2463 565.958 95.6084 566.071 92.5527C566.165 90.214 564.582 88.4016 562.969 86.5553C561.642 85.0353 560.294 83.4923 559.846 81.6137C559.62 79.8882 559.672 78.1382 560.003 76.4293C560.313 73.2053 559.806 69.9556 558.527 66.9753C557.248 63.995 555.238 61.3784 552.679 59.3633C550.121 57.3482 547.095 55.9984 543.876 55.4364C540.658 54.8744 537.349 55.1181 534.249 56.1454C533.409 56.4211 532.587 56.7511 531.766 57.0805C530.619 57.5408 529.474 58.0001 528.285 58.3098C525.221 58.9301 522.076 59.0527 518.972 58.6727L502.296 57.5451C497.313 57.2082 492.029 56.923 487.595 59.2301C484.924 60.623 482.729 62.8752 480.562 65.0996C477.485 68.2566 474.463 71.3576 470.212 71.867C466.546 72.3037 463.162 70.629 459.777 68.9533C458.439 68.2915 457.102 67.6295 455.746 67.0974C451.844 65.6231 447.621 65.1801 443.494 65.8118C439.366 66.4435 435.475 68.1282 432.203 70.7005C430.578 69.8345 430.371 67.9791 430.16 66.0775C430.055 65.1333 429.948 64.1772 429.666 63.3257C428.816 60.7595 425.86 59.0357 423.035 58.7894C420.171 58.7303 417.325 59.2416 414.664 60.2929C408.831 62.1852 402.055 65.3995 401.519 71.4523C401.468 72.0093 401.475 72.5794 401.483 73.1483C401.499 74.3132 401.514 75.4751 401.022 76.52C400.401 77.8614 399.121 78.66 397.824 79.4685C396.991 79.988 396.152 80.5116 395.476 81.1859C393.397 83.2467 393.07 86.3703 392.991 89.3125L392.991 89.3255C392.913 92.2636 392.832 95.2911 391.121 97.6853C389.408 100.083 380.54 101.237 378.434 99.1758Z" fill="#F1F9F7"/>
</g>
<g opacity="0.97">
<path d="M346.613 166.897C346.2 166.95 345.787 167.023 345.393 167.142C344.957 167.272 344.563 167.507 344.238 167.814C344.088 167.956 343.945 168.104 343.802 168.253L343.703 168.356C343.585 168.477 343.378 168.448 343.299 168.301C343.238 168.189 343.074 168.205 343.059 168.33C342.954 169.19 343.629 169.953 344.203 170.602C344.21 170.61 344.221 170.612 344.232 170.609C344.734 170.419 345.261 170.276 345.796 170.256C346.232 170.239 346.466 170.682 346.292 171.065C346.177 171.318 345.912 171.482 345.624 171.463C345.38 171.447 345.138 171.42 344.902 171.37C344.609 171.308 344.293 171.345 344.06 171.524C343.795 171.728 343.466 171.828 343.138 171.927C343.006 171.967 342.873 172.007 342.746 172.053C342.387 172.184 342.086 172.431 341.786 172.678C341.63 172.806 341.474 172.934 341.31 173.045C340.956 173.233 340.631 173.054 340.321 172.882L340.312 172.877C340.141 172.782 340.048 172.586 340.111 172.407C340.183 172.199 340.256 171.989 340.292 171.777C340.334 171.524 340.201 171.28 339.978 171.14C339.923 171.106 339.868 171.074 339.812 171.043C339.104 170.657 338.88 169.785 339.585 169.394L339.695 169.333C340.064 169.129 340 168.623 339.596 168.492C339.522 168.468 339.444 168.461 339.366 168.471C339.005 168.516 338.643 168.56 338.282 168.604C338.135 168.622 337.985 168.598 337.851 168.537C337.504 168.379 337.152 168.228 336.795 168.088C336.679 168.042 336.661 167.891 336.763 167.823C336.854 167.762 336.824 167.626 336.716 167.606L336.3 167.527C336.192 167.507 336.148 167.382 336.221 167.303C336.313 167.203 336.215 167.047 336.079 167.076C335.718 167.154 335.356 167.226 334.994 167.298C334.83 167.33 334.694 167.44 334.626 167.587C334.409 168.059 334.125 168.533 333.743 168.905C333.129 169.505 332.496 170.452 332.314 171.273C332.292 171.376 332.264 171.479 332.232 171.581C332.165 171.798 331.971 171.952 331.741 172.001C331.617 172.027 331.494 172.054 331.37 172.081C331.156 172.128 330.948 171.987 330.924 171.778C330.916 171.706 330.814 171.702 330.8 171.773C330.743 172.075 330.696 172.379 330.658 172.683C330.653 172.726 330.635 172.766 330.606 172.798C330.565 172.843 330.517 172.898 330.469 172.954C330.337 173.104 330.266 173.294 330.255 173.49C330.226 174.051 330.145 174.609 330.051 175.166C330.005 175.437 329.738 175.629 329.451 175.611C329.251 175.598 329.065 175.689 328.973 175.86C328.843 176.102 328.749 176.356 328.692 176.618C328.608 177.001 328.451 177.378 328.142 177.635C328.007 177.748 328.005 177.947 328.124 178.075C328.533 178.516 328.796 179.035 328.983 179.583C329.058 179.805 329.156 180.025 329.334 180.187C329.403 180.25 329.684 180.398 329.999 180.563C330.483 180.818 331.048 181.115 331.048 181.212C331.048 181.437 330.655 181.637 330.655 181.637C330.449 181.63 330.244 181.617 330.039 181.604C329.442 181.566 328.848 181.529 328.252 181.628C328.033 181.664 327.858 181.811 327.72 181.977L327.656 182.055C327.403 182.36 326.716 183.19 326.234 183.699C324.913 182.823 323.147 182.685 322.532 184.057C322.888 184.662 323.099 185.34 323.149 186.039C323.199 186.738 323.086 187.438 322.819 188.087C322.553 188.735 322.139 189.315 321.611 189.78C321.083 190.245 320.454 190.584 319.773 190.771C318.82 186.673 316.797 182.894 313.907 179.814C311.017 176.734 307.361 174.461 303.306 173.222C301.945 175.296 303.384 178.056 305.124 179.832C305.408 180.122 305.704 180.411 306.002 180.7L306.004 180.702L306.005 180.704C307.526 182.185 309.09 183.708 309.374 185.755C309.715 188.205 306.301 190.719 304.784 188.775C304.486 186.108 303.546 183.55 302.044 181.318C300.542 179.085 298.521 177.242 296.151 175.944C295.254 177.37 293.46 177.683 291.715 177.988C291.272 178.066 290.831 178.143 290.409 178.238C288.532 178.663 286.805 179.582 285.41 180.898C284.015 182.214 283.004 183.879 282.483 185.716C282.363 186.155 282.269 186.608 282.175 187.06C281.924 188.276 281.673 189.489 280.901 190.434C280.285 191.063 279.547 191.563 278.73 191.901C277.914 192.24 277.037 192.411 276.153 192.404C271.771 192.78 266.932 191.276 264.564 187.595C262.197 183.915 263.688 177.978 267.952 176.864C269.627 176.422 271.351 176.733 273.085 177.045C273.897 177.191 274.712 177.338 275.525 177.408C278.075 177.628 280.023 176.846 280.023 174.319C280.041 172.342 277.679 170.801 275.556 169.416C273.169 167.859 271.084 166.5 273.027 164.94C274.638 163.646 278.215 162.757 281.818 162.757C284.51 162.757 287.831 160.201 288.998 158.31C290.409 156.021 293.875 152.251 297.799 151.888C299.813 151.702 301.831 151.918 303.846 152.135C305.758 152.34 307.667 152.545 309.571 152.406C313.481 152.121 317.863 149.607 317.863 145.719C317.871 145.094 317.768 144.434 317.664 143.771C317.446 142.383 317.228 140.987 318.033 139.899C318.972 138.624 320.829 138.42 322.587 138.226C324.602 138.004 326.487 137.796 326.718 136.011C327.022 133.733 324.38 133.444 321.723 133.154C320.722 133.045 319.719 132.935 318.87 132.719C318.149 132.488 317.485 132.107 316.923 131.603C316.361 131.099 315.914 130.481 315.611 129.793C315.307 129.104 315.156 128.359 315.165 127.608C315.175 126.856 315.345 126.116 315.666 125.435C316.044 124.729 316.577 124.126 317.108 123.525C317.66 122.901 318.209 122.279 318.582 121.546C319.315 120.108 318.779 117.736 317.144 117.736C310.002 118.747 306.419 127.431 307.583 134.494C307.664 135.003 307.762 135.514 307.86 136.026C308.216 137.889 308.574 139.767 308.184 141.597C307.687 143.93 305.176 146.056 302.952 145.109C301.777 144.614 301.127 143.496 300.467 142.362C300.04 141.628 299.609 140.886 299.029 140.301C298.046 139.314 296.725 138.822 295.407 138.33C294.109 137.847 292.815 137.364 291.848 136.413C289.441 134.041 290.305 129.945 292.254 127.146C293.139 125.873 294.215 124.75 295.286 123.631C296.572 122.289 297.852 120.952 298.793 119.369C300.174 117.065 300.738 114.413 301.301 111.762C301.869 109.09 302.437 106.417 303.842 104.101C307.112 98.7739 314.253 96.6354 320.531 97.4779C326.809 98.3203 332.486 101.535 337.992 104.671C340.987 106.395 344.401 110.05 342.099 112.642C340.769 114.126 338.636 113.836 336.487 113.543C334.432 113.264 332.363 112.982 330.969 114.249C331.165 118.423 336.174 121.041 340.32 120.354C344.467 119.667 347.867 116.751 351.006 113.951C354.145 111.152 356.314 119.369 351.823 132.719C348.609 142.275 349.16 146.925 349.674 151.249C349.877 152.966 350.075 154.631 350.028 156.531C349.865 163.219 347.026 166.843 346.613 166.897Z" fill="#F1F9F7"/>
<path d="M338.322 193.179C341.826 192.962 346.873 195.476 346.873 195.476C346.873 195.476 347.336 192.996 346.292 187.769C345.743 185.018 346.553 183.511 347.072 182.546C347.538 181.678 347.769 181.25 346.559 180.749C346.452 180.705 346.341 180.699 346.236 180.693C346.075 180.685 345.929 180.677 345.841 180.532L345.743 180.369C345.553 180.053 345.152 179.929 344.771 179.936C344.703 179.938 344.636 179.936 344.57 179.93C344.203 179.9 343.743 179.73 343.279 179.56C342.778 179.375 342.273 179.189 341.875 179.174C341.652 179.166 341.429 179.148 341.204 179.131C340.465 179.073 339.725 179.015 339.028 179.293C338.157 179.58 337.288 179.951 336.534 180.451C335.811 180.931 334.983 181.303 334.108 181.212C333.783 181.178 333.359 181.252 332.947 181.323C332.634 181.377 332.328 181.43 332.078 181.434C331.499 181.442 330.858 181.719 330.936 181.721C330.952 181.721 330.963 181.721 330.972 181.721C330.98 181.722 330.985 181.722 330.989 181.722C331.003 181.721 330.995 181.721 330.995 181.721C331.202 181.891 331.434 182.028 331.683 182.137C331.786 182.182 331.768 182.323 331.656 182.33C331.465 182.344 331.264 182.358 331.08 182.392C330.827 182.439 330.569 182.57 330.309 182.702C329.971 182.874 329.63 183.046 329.296 183.038L329.096 183.034C329.018 183.032 328.942 183.007 328.879 182.964C328.785 182.901 328.688 182.84 328.59 182.782C328.468 182.709 328.315 182.799 328.321 182.936C328.328 183.096 328.196 183.233 328.03 183.21C327.931 183.196 327.882 183.256 327.837 183.31C327.79 183.368 327.748 183.42 327.656 183.372C327.594 183.34 327.41 183.5 327.175 183.704C327.028 183.831 326.862 183.976 326.693 184.102C327.222 184.469 327.29 184.605 327.555 185.159C327.947 185.981 328.148 186.877 328.348 187.769C328.621 188.986 328.893 190.196 329.648 191.199C331.527 193.601 334.951 193.389 338.322 193.179Z" fill="#F1F9F7"/>
<path d="M275.687 136.974C273.905 136.86 272.265 137.783 271.691 139.544L271.632 139.725C271.569 139.919 271.507 140.113 271.441 140.304C271.327 140.636 270.918 140.697 270.705 140.423L270.611 140.303C270.486 140.141 270.251 140.132 270.115 140.285C269.99 140.425 270.002 140.644 270.141 140.77C270.511 141.108 270.881 141.444 271.253 141.782C271.356 141.875 271.386 142.028 271.328 142.157C271.173 142.502 271.024 142.849 270.89 143.203C270.769 143.525 271.101 143.795 271.382 143.611C271.637 143.445 271.91 143.715 271.746 143.977C271.51 144.352 271.252 144.712 270.984 145.064C270.789 145.319 271.037 145.677 271.327 145.552C271.42 145.512 271.525 145.577 271.534 145.682L271.585 146.212C271.599 146.367 271.715 146.49 271.864 146.507C272.115 146.537 272.3 146.266 272.186 146.031L272.096 145.846C271.994 145.638 272.064 145.384 272.256 145.265L272.318 145.227C272.651 145.022 273.062 145.274 273.026 145.674C272.938 146.635 272.729 147.578 272.48 148.507C272.458 148.591 272.521 148.672 272.604 148.666L272.606 148.666L273.739 148.582C274.46 148.528 275.127 149.042 275.375 149.75C275.597 150.386 275.818 151.02 275.798 151.695C275.677 152.642 274.809 152.761 274.015 152.869C273.655 152.919 273.442 153.286 273.55 153.648C273.7 154.148 273.858 154.645 274.018 155.142C274.08 155.333 274.016 155.546 273.86 155.666C273.458 155.977 273.054 156.288 272.654 156.602C272.483 156.735 272.413 156.966 272.477 157.177C272.515 157.301 272.615 157.393 272.737 157.419L272.874 157.447C273.805 157.639 274.744 157.832 275.692 157.838C275.858 157.839 275.924 158.105 275.772 158.175C274.701 158.669 273.746 159.389 272.969 160.302C272.804 160.496 272.64 160.693 272.477 160.889C272.298 161.104 272.118 161.321 271.936 161.534C271.826 161.662 271.913 161.867 272.078 161.867C272.105 161.867 272.132 161.861 272.157 161.85C274.098 160.933 276.169 160.331 278.264 159.93C278.831 159.816 279.408 159.749 279.984 159.683C280.689 159.602 281.394 159.521 282.081 159.352C282.584 159.228 282.774 158.624 282.491 158.173C282.291 157.856 282.319 157.44 282.553 157.149C282.858 156.768 283.155 156.378 283.423 155.967C283.55 155.771 283.613 155.539 283.613 155.302C283.613 154.74 283.257 154.244 282.736 154.1C282.632 154.071 282.528 154.043 282.423 154.015C281.783 153.846 281.287 153.32 281.059 152.675C280.682 151.609 280.111 150.64 279.539 149.67C278.988 148.734 278.435 147.797 278.055 146.769C278.011 146.639 277.957 146.519 277.893 146.406C277.186 145.152 276.364 143.678 276.982 142.373C277.136 142.05 277.277 141.72 277.403 141.384C277.683 140.635 277.106 139.888 276.334 139.901C275.378 139.917 274.77 138.823 275.277 137.978L275.773 137.149C275.817 137.075 275.77 136.979 275.687 136.974Z" fill="#F1F9F7"/>
<path d="M271.207 148.065C270.988 147.597 270.527 147.302 270.028 147.291C269.675 147.283 269.318 147.275 268.966 147.296C267.856 147.362 267.011 148.265 266.952 149.422C266.933 149.787 266.651 150.065 266.301 150.085L265.691 150.121C265.045 150.159 264.564 150.764 264.671 151.43C264.818 152.354 264.997 153.271 265.218 154.181C265.412 154.886 264.906 155.337 264.42 155.771C264.281 155.896 264.143 156.019 264.023 156.147C263.916 156.261 263.868 156.418 263.868 156.578C263.868 156.924 264.101 157.223 264.425 157.301L264.432 157.303C264.851 157.405 265.276 157.508 265.7 157.54C266.251 157.583 266.786 157.388 267.294 157.163C267.521 157.062 267.748 156.959 267.974 156.854C269.53 156.123 270.579 154.625 270.874 152.873C271.035 151.914 271.196 150.955 271.471 150.025C271.627 149.496 271.612 148.921 271.377 148.424L271.284 148.227L271.207 148.065Z" fill="#F1F9F7"/>
</g>
<g opacity="0.97">
<path d="M345.541 205.444C345.234 204.417 344.113 203.613 339.732 203.47C337.387 203.394 335.155 202.657 332.919 201.919C330.976 201.277 329.03 200.635 327.006 200.424C323.994 200.132 321.038 200.825 318.069 201.521C316.293 201.937 314.511 202.354 312.71 202.563C307.896 203.12 301.998 201.267 300.938 196.562C300.877 195.275 300.594 194.008 300.101 192.816C299.146 191.248 296.988 190.885 295.157 191.092C292.161 191.428 289.148 192.787 286.205 194.114C281.298 196.328 277.768 194.365 272.843 196.553C267.395 198.973 265.799 203.141 261.474 206.131C258.095 208.468 254.696 210.818 252.178 213.955C245.913 221.732 246.436 233.76 252.518 241.679C258.6 249.598 269.338 253.344 279.305 252.048C279.61 252.01 279.918 251.968 280.226 251.926C282.228 251.652 284.272 251.373 286.119 252.125C287.515 252.694 288.564 253.752 289.621 254.819C290.178 255.381 290.737 255.945 291.351 256.441C293.13 257.88 297.075 256.142 297.973 257.031C298.87 257.92 296.347 261.143 296.556 263.35C296.765 265.556 297.496 267.683 298.689 269.558C299.518 270.828 300.57 272.014 301.616 273.195C303.869 275.737 306.098 278.251 306.026 281.508C306.026 283.096 305.406 284.576 304.784 286.062C304.441 286.882 304.097 287.703 303.855 288.546C302.045 294.902 305.715 300.574 309.488 306.406C312.178 310.564 314.921 314.804 315.77 319.432C315.877 319.997 315.963 320.584 316.049 321.177C316.42 323.714 316.805 326.348 318.883 327.714C320.121 328.401 321.519 328.754 322.938 328.738C330.171 329.217 339.274 327.079 340.778 320.054C341.029 318.038 341.091 316.003 340.961 313.975C341.092 310.929 342.03 307.97 343.681 305.397C345.332 302.824 347.637 300.727 350.365 299.316C351.92 298.728 353.372 297.901 354.669 296.867C357.284 294.275 356.709 290.01 355.362 286.628C355.105 285.983 354.827 285.338 354.548 284.692C353.364 281.944 352.166 279.165 352.537 276.259C353.159 271.518 357.484 268.608 361.639 265.813C362.551 265.2 363.454 264.592 364.308 263.972C367.88 261.35 370.893 258.053 373.171 254.272C375.45 250.49 376.95 246.298 377.584 241.938C371.044 243.999 362.935 245.749 357.965 241.044C356.328 239.311 355.029 237.295 354.132 235.095C351.019 228.666 347.915 222.242 344.82 215.822C344.562 215.427 344.387 214.985 344.304 214.522C344.221 214.059 344.232 213.585 344.336 213.126C344.423 212.74 344.955 212.232 345.341 211.863C345.414 211.793 345.482 211.728 345.541 211.67C346.438 210.78 345.848 206.471 345.541 205.444Z" fill="#F1F9F7"/>
<path d="M371.941 293.287C371.958 293.229 372.008 293.186 372.068 293.182C372.119 293.179 372.168 293.204 372.195 293.249C372.99 294.556 373.38 296.067 373.645 297.569L373.754 299.15C373.771 299.395 373.486 299.534 373.306 299.371C373.146 299.226 372.895 299.326 372.866 299.542C372.491 302.333 371.527 304.983 370.569 307.618C370.297 308.367 370.025 309.116 369.767 309.865C369.521 310.479 369.307 311.111 369.092 311.743C368.8 312.604 368.507 313.465 368.134 314.285C367.704 315.232 366.977 316.015 366.021 316.385C365.824 316.461 365.625 316.532 365.426 316.604C365.311 316.645 365.196 316.686 365.082 316.728C364.999 316.758 364.916 316.789 364.834 316.821C364.767 316.847 364.697 316.863 364.626 316.868C364.425 316.881 364.228 316.806 364.081 316.664C364.046 316.63 364.01 316.596 363.975 316.562C363.945 316.534 363.915 316.505 363.886 316.477C363.699 316.298 363.511 316.119 363.332 315.932C363.021 315.608 362.835 315.185 362.741 314.742L362.719 314.637C362.547 313.823 362.375 313.007 362.139 312.209C362.078 312.003 362.037 311.792 362.022 311.578C361.983 311.023 362.119 310.471 362.415 310.006L362.445 309.959C362.824 309.365 363.204 308.769 363.529 308.145C363.859 307.508 364.045 306.8 364.026 306.078C364.014 305.648 363.974 305.213 363.934 304.779C363.831 303.668 363.728 302.557 364.109 301.51C364.125 301.459 364.143 301.409 364.163 301.361C364.181 301.315 364.201 301.27 364.223 301.226C364.724 300.213 365.856 299.716 366.981 299.222C368.169 298.701 369.349 298.183 369.771 297.065C370.019 296.432 370.409 295.888 370.799 295.345C371.257 294.706 371.715 294.068 371.941 293.287Z" fill="#F1F9F7"/>
</g>
</svg>
