<svg width="860" height="600" viewBox="0 0 860 600" fill="none" xmlns="http://www.w3.org/2000/svg">
<path d="M178.935 409.329C180.263 405.789 175.87 401.533 176.983 397.916L181.61 388.766C182.234 380.815 192.522 375.224 199.687 379.093C203.122 380.931 206.187 384.549 210.092 383.813C211.425 383.38 212.729 382.863 213.996 382.266C217.451 381.163 221.141 382.691 224.42 384.2C233.147 388.224 242.166 392.422 248.354 399.676C252.043 403.99 254.659 409.31 259.305 412.56C264.381 416.119 270.96 416.583 277.168 416.758C283.375 416.932 289.896 417.009 295.323 420.007C300.75 423.006 304.634 430.086 303.229 436.083C302.014 441.356 299.685 446.314 296.396 450.63C293.624 454.19 290.032 457.691 289.603 462.237C289.271 465.468 290.677 468.582 291.223 471.774C291.774 474.384 291.452 477.1 290.306 479.512C289.076 481.853 287.319 484.271 284.703 484.696C278.241 485.721 270.628 482.917 265.669 487.153C260.321 491.834 262.858 500.288 262.273 507.31C261.55 516.112 254.952 523.637 246.929 527.506C244.949 528.213 243.136 529.313 241.599 530.737C238.593 534.103 239.257 540.37 235.118 542.189C233.849 542.73 232.405 542.692 231.097 543.137C229.705 543.74 228.525 544.738 227.706 546.005C226.886 547.272 226.463 548.751 226.49 550.256C226.392 553.254 228.227 556.194 228.227 559.193C228.312 562.418 227.232 565.566 225.182 568.072C223.796 569.697 222.019 571.206 221.844 573.314C221.955 575.203 222.761 576.985 224.108 578.325C227.837 583.045 232.951 587.475 235.821 592.717C236.256 593.556 236.425 594.505 236.307 595.44C236.188 596.375 235.788 597.254 235.157 597.96C234.56 598.735 233.754 599.329 232.832 599.671C231.91 600.013 230.91 600.09 229.945 599.894C214.015 593.491 202.146 579.06 197.071 562.733C191.995 546.406 193.284 528.628 198.593 512.437C201.424 503.809 205.406 495.394 206.871 486.399C208.335 477.403 206.832 467.267 200.136 460.999C192.932 454.248 184.948 450.708 178.291 443.395C174.719 439.468 171.146 435.367 169.448 430.279C167.749 425.192 168.394 419.118 172.298 415.519C174.562 413.45 177.842 412.192 178.935 409.329Z" fill="#F9FCFB"/>
<path d="M104.773 134.614C108.452 134.247 112.168 134.731 115.627 136.027C121.19 138.116 132.747 135.079 137.862 138.251C145.495 143.068 150.102 152.644 158.886 154.849C162.051 155.383 165.263 155.597 168.472 155.487C179.404 155.971 190.453 162.258 194.552 172.337C198.652 182.415 194.474 195.26 184.186 199.013C182.049 198.277 179.783 197.982 177.527 198.146C175.27 198.311 173.072 198.931 171.067 199.97C169.061 201.008 167.292 202.442 165.867 204.184C164.443 205.926 163.393 207.938 162.783 210.097C162.173 212.256 162.015 214.516 162.32 216.737C162.625 218.959 163.385 221.095 164.555 223.014C165.724 224.934 167.277 226.595 169.119 227.897C170.961 229.199 173.053 230.113 175.265 230.584C177.876 230.86 180.448 231.418 182.937 232.247C186.041 233.698 187.954 236.793 190.375 239.211C191.963 241.024 194.191 242.166 196.602 242.403C201.19 242.616 204.391 237.509 204.508 232.944C204.625 228.378 202.732 223.987 202.01 219.518C201.287 215.05 202.068 209.633 206.109 207.312C210.15 204.991 215.655 207.08 218.525 210.794C221.394 214.508 222.273 219.286 223.073 223.89C227.134 221.743 232.658 221.956 237.207 221.743C240.116 225.148 240.369 229.965 241.267 234.356C242.252 239.135 244.132 243.689 246.811 247.781C249.028 250.547 250.83 253.616 252.16 256.892C252.589 258.675 252.633 260.528 252.289 262.328C251.946 264.129 251.222 265.838 250.166 267.343C249.111 268.847 247.746 270.114 246.162 271.06C244.578 272.006 242.81 272.61 240.974 272.833C235.84 273.161 230.081 270.55 225.923 273.51C223.132 275.502 222.351 279.197 220.614 282.118C218.193 286.161 215.753 289.121 211.009 288.908C205.547 288.693 200.104 289.663 195.06 291.752C194.114 292.031 193.237 292.502 192.484 293.134C191.731 293.767 191.119 294.548 190.687 295.427C189.887 297.787 191.507 300.186 192.21 302.585C192.724 304.836 192.634 307.181 191.949 309.388C191.264 311.594 190.008 313.583 188.305 315.159C185.006 318.351 181.727 322.897 177.081 322.897C174.841 322.918 172.664 323.629 170.852 324.933C169.04 326.236 167.682 328.067 166.968 330.17C166.383 331.931 166.344 333.865 165.934 335.8C165.801 336.759 165.466 337.679 164.951 338.502C164.437 339.325 163.754 340.032 162.947 340.578C161.268 341.526 158.164 341.352 158.164 339.417C158.164 331.95 150.141 326.379 142.547 326.147C138.657 326.001 134.808 326.986 131.475 328.979C128.142 330.973 125.47 333.888 123.787 337.367C120.761 344.447 123.592 353.771 130.522 357.214C134.229 358.734 138.225 359.44 142.235 359.284C146.231 359.129 150.217 359.788 153.947 361.219C157.539 362.921 160.487 366.674 159.96 370.543C159.55 373 158.008 375.959 159.96 377.604C161.092 378.59 162.83 378.358 164.216 378.938C166.812 380.002 167.437 383.31 168.94 385.67C171.048 388.94 177.9 390.042 181.61 388.766L176.983 397.916C174.579 398.099 172.166 397.711 169.945 396.782C167.724 395.853 165.76 394.411 164.216 392.576C163.199 391.121 162.097 389.726 160.917 388.398C155.939 383.62 146.881 385.612 141.961 380.776C140.927 379.79 140.165 378.551 139.111 377.604C136.808 375.534 133.508 375.089 130.444 374.547L130.015 374.47C124.179 373.418 116.744 372.079 112.171 368.473C105.698 363.353 101.018 356.34 98.7992 348.432C97.6084 343.886 97.1008 339.146 95.6562 334.658C92.4661 325.562 85.9257 317.996 77.345 313.476C69.4193 309.181 61.6497 302.488 60.8298 293.589C60.4003 288.657 62.1182 283.82 62.3525 278.887C62.4849 272.251 60.5415 265.737 56.7888 260.239C53.3726 255.442 52.7674 249.251 52.2598 243.448C51.5275 238.721 51.733 233.898 52.865 229.249C54.4072 224.413 57.8625 220.408 60.2637 215.92C62.6648 211.432 63.9142 205.648 60.986 201.47C58.7996 198.336 54.8367 196.962 51.0886 196.131C40.2151 193.713 26.9014 190.056 18.3119 197.098C15.0518 199.748 10.2495 198.858 6.14999 197.814C4.23688 197.33 2.05047 196.692 1.36721 194.757C1.07895 193.06 1.3529 191.316 2.14808 189.786C3.51458 185.51 3.06559 179.514 0.195923 176.031C-0.272594 170.905 -0.23355 164.637 4.19784 161.774C5.69065 161.048 7.22208 160.402 8.7854 159.84C9.56658 159.53 10.2499 159.018 10.7647 158.358C11.2795 157.698 11.6071 156.914 11.7136 156.087C11.7136 153.998 9.76147 152.605 8.35592 150.883C6.7942 148.62 8.41449 147.421 9.76147 145.08C9.07822 143.281 10.7961 141.211 12.7678 140.495C14.7881 140.098 16.8634 140.059 18.8975 140.379C22.5726 140.752 26.2841 140.234 29.7125 138.87C30.2981 135.195 27.1161 132.022 24.5393 129.198C21.9624 126.374 18.6242 120.396 21.5915 117.997C28.346 112.542 37.931 109.64 46.3253 111.904C52.9626 110.414 64.0508 113.026 66.003 119.487C67.1548 123.588 71.5862 125.522 75.3733 127.457C81.1515 130.449 86.4532 134.269 91.1077 138.793C95.5195 138.483 101.552 137.652 104.773 134.614Z" fill="#F9FCFB"/>
<path d="M212.401 2.67391C212.485 1.84233 213.099 1.23005 213.925 1.06169C215.34 0.773301 217.111 0.409687 218.542 0.119763C219.491 -0.072479 220.472 -0.0325628 221.402 0.234317C223.657 0.881338 226.75 1.77573 228.93 2.40058C229.47 2.5553 229.789 3.06478 229.441 3.502C228.857 4.23622 230.023 5.74511 230.864 5.32048C231.756 4.86997 232.669 4.46025 233.603 4.09188C234.007 3.93269 234.464 4.03022 234.785 4.3202C237.463 6.73922 240.834 8.81418 242.852 11.8047C243.564 12.8601 243.624 14.2104 243.094 15.3664C240.728 20.5286 235.905 23.9984 231.538 27.6929C230.376 28.6759 231.382 30.1449 232.786 29.5477C234.084 28.9954 235.317 30.4328 234.552 31.6094C230.886 37.244 227.12 42.8256 223.227 48.3296C222.72 49.0464 222.408 49.8809 222.326 50.7525C222.192 52.1779 222.023 53.9716 221.881 55.482C221.791 56.4359 220.803 57.0375 219.906 56.682C219.345 56.4602 218.785 56.2368 218.226 56.0124C217.086 55.5546 216.244 57.1277 217.13 57.9742C217.839 58.652 217.257 59.7296 216.272 59.759C214.721 59.8054 213.167 59.8417 211.611 59.8679C210.1 59.8934 209.181 61.523 209.941 62.8167C210.156 63.1815 210.368 63.5477 210.578 63.9164C210.746 64.2125 210.644 64.5864 210.349 64.7592C210.266 64.8075 210.181 64.8572 210.094 64.9082C209.458 65.2795 209.834 66.0397 210.504 65.7341C210.755 65.6195 211.054 65.6844 211.231 65.8948C211.796 66.5651 212.547 67.4485 213.273 68.304C214.405 69.6364 214.693 71.4874 214.147 73.1429C213.228 75.9325 212.323 78.8067 209.92 80.2675C208.544 81.1039 207.192 82.1987 206.885 83.7689C206.823 84.0848 206.76 84.4077 206.696 84.7321C206.295 86.7757 203.938 87.7236 201.866 87.3757C199.34 86.9516 199.555 89.7466 202.011 90.4682C203.13 90.7971 204.248 91.1357 205.362 91.4886C207.525 92.1736 208.24 94.8257 206.659 96.4415C204.702 98.4423 200.029 96.4826 197.355 97.3448C195.213 98.0352 192.653 99.4463 190.945 99.5199C188.788 99.4163 186.631 99.3758 184.477 99.3925C181.104 99.4185 178.892 102.778 180.063 105.913C180.667 107.53 182.081 108.812 183.816 108.694C189.762 108.287 195.43 103.414 200.979 105.158C202.202 105.542 203.439 106.068 204.351 106.963C205.486 108.077 205.727 109.645 205.432 111.252C204.68 115.36 199.827 116.469 195.624 116.759C194.285 116.851 192.951 117.008 191.622 117.211C188.226 117.73 184.221 116.02 180.972 117.13C178.588 117.943 175.993 117.331 175.135 114.982C174.621 113.576 174.334 112.032 174.073 110.495C172.987 104.117 169.986 106.456 170.779 112.876C170.98 114.503 170.828 115.975 169.99 117.12C168.746 118.818 166.246 117.767 165.13 115.984C164.797 115.452 164.456 114.907 164.124 114.375C163.124 112.774 163.814 110.69 165.584 110.006C167.47 109.277 168.153 106.964 167.025 105.298C166.394 104.366 165.786 103.42 165.205 102.458C162.94 98.7077 166.304 95.0342 170.304 96.8753C170.847 97.1253 171.389 97.3782 171.932 97.6309C172.842 98.0546 173.85 98.3122 174.832 98.0969C178.241 97.3491 180.572 94.3702 183.209 92.0503C184.212 91.1671 184.684 89.7773 184.254 88.5171C184 87.7726 183.75 87.0261 183.503 86.2778C182.99 84.7226 184.592 83.3309 186.086 84.0286C186.219 84.0908 186.35 84.1521 186.479 84.2122C187.268 84.5804 188.135 84.382 188.437 83.5709C188.986 82.0978 186.496 80.2513 185.051 79.6072C183.062 78.7209 182.559 75.3216 184.05 71.9237C184.362 71.2136 185.115 70.8274 185.897 70.8461C187.74 70.8904 189.576 70.802 191.398 70.5973C192.543 70.4687 192.347 69.08 191.203 68.9496C190.659 68.8876 190.41 68.4323 190.377 67.8912C190.028 62.0271 183.939 58.2814 183.23 52.4839C183.092 51.3542 184.021 50.4041 185.168 50.458C187.568 50.5709 189.524 51.4783 191.233 52.8054C192.677 53.9261 194.008 53.0347 193.008 51.5109C192.525 50.7749 192.751 49.7885 193.502 49.3234C196.9 47.2196 200.222 44.9941 203.733 43.0942C204.581 42.6356 204.201 41.0518 203.568 40.3292C202.77 39.418 200.426 38.942 199.85 40.005C199.171 41.2571 198.446 42.4813 197.642 43.6584C197.486 43.8871 197.267 44.0661 197.01 44.1721C194.605 45.1621 192.071 45.7613 189.576 46.4899C186.987 47.2456 184.202 47.3558 181.658 46.4642C181.381 46.3672 181.106 46.2708 180.836 46.1762C179.222 45.6113 177.833 44.5529 176.86 43.158C176.317 42.3787 175.734 41.5445 175.192 40.7665C174.302 39.4894 174.303 37.7984 175.236 36.5511C175.673 35.9663 176.115 35.3864 176.56 34.8086C177.849 33.134 176.702 30.7518 174.578 30.6948C172.1 30.6283 171.112 27.524 173.084 26.0353C174.281 25.1313 175.477 24.2221 176.669 23.3064C177.094 22.9802 177.635 22.8429 178.166 22.9259C178.889 23.039 179.742 23.1696 180.63 23.3049C181.994 23.5128 182.62 21.6641 181.514 20.8464C181.045 20.4998 180.979 19.97 181.212 19.4383C183.686 13.7894 186.832 16.2919 189.841 19.4759C190.022 19.6676 190.241 19.8205 190.483 19.9275C192.337 20.7475 193.369 19.1481 191.856 17.8069C191.708 17.6754 191.559 17.5436 191.411 17.4117C190.725 16.8011 190.552 15.8043 190.947 14.9791C191.962 12.8632 192.951 10.5762 194.61 9.56594C195.512 9.01619 196.76 6.92972 196.067 6.13546C195.584 5.58169 195.888 4.72916 196.626 4.72598C199.208 4.71489 201.28 5.99758 203.214 7.58183C204.632 8.7434 206.235 7.53608 205.453 5.88572C204.751 4.40373 206.259 2.86214 207.784 3.49121C208.455 3.76782 209.127 4.04409 209.761 4.30416C210.951 4.79166 212.274 3.9431 212.401 2.67391Z" fill="#F9FCFB"/>
<path d="M162.893 40.6331C163.907 38.0724 166.847 36.7404 168.349 39.0536C170.631 42.5683 171.917 46.9109 175.781 48.9089C176.304 49.1794 176.656 49.7015 176.613 50.2846C176.561 50.9908 177.11 51.5938 177.796 51.7887C179.47 52.2636 180.541 53.4174 181.39 54.8511C184.035 59.3194 183.377 69.7487 181.083 74.4041C180.908 74.7603 180.738 75.1203 180.575 75.4837C179.737 77.3511 178.148 78.826 176.138 79.2832C173.677 79.8429 171.126 78.8045 169.775 76.6909C169.237 75.8487 168.711 75.0254 168.287 74.3621C168.068 74.0199 167.795 73.7118 167.533 73.4008C165.974 71.5498 166.887 69.7235 168.225 67.9594C169.44 66.3568 168.184 64.9412 166.313 65.705C164.578 66.4133 162.515 64.7718 161.834 63.0394C161.045 61.033 159.616 59.2025 158.582 57.2758C158.259 56.675 158.552 55.9889 159.239 55.9991C160.319 56.0153 161.173 53.7316 160.568 52.8446C159.698 51.5703 159.251 50.024 159.221 48.2105C159.217 47.9225 159.451 47.6893 159.741 47.6796L160.151 47.6659C160.771 47.6451 160.688 46.7615 160.075 46.6705C159.68 46.6119 159.635 46.165 159.88 45.8528C161.151 44.2381 162.156 42.4963 162.893 40.6331Z" fill="#F9FCFB"/>
<path d="M139.801 73.1108C137.847 72.3412 136.779 69.7902 138.595 68.7397C142.076 66.727 146.592 71.4297 150.12 74.4818C151.293 75.4965 152.239 76.771 152.725 78.237C153.429 80.3573 154.166 82.4682 154.897 84.5783C155.035 84.9774 154.802 85.4089 154.391 85.5172C153.406 85.7765 152.418 86.033 151.429 86.2837C150.812 86.4399 150.734 85.7032 151.333 85.4886C151.664 85.3696 151.649 85.0069 151.414 84.7467C149.529 82.6662 147.332 81.412 144.824 80.9893C142.948 80.6729 141.452 78.4886 142.473 76.8962C143.196 75.7688 142.715 74.262 141.463 73.7669C140.924 73.5536 140.361 73.3312 139.801 73.1108Z" fill="#F9FCFB"/>
<path d="M124.198 82.183C122.281 82.3908 121.304 80.0679 122.838 78.9092C123.217 78.6234 123.596 78.3391 123.977 78.0561C125.405 76.9946 127.421 77.8481 127.532 79.6136C127.732 82.8098 127.64 86.0223 127.539 89.2252C127.482 91.0466 126.329 92.6191 124.574 93.1626C122.381 93.8418 119.757 92.6994 119.782 90.4224C119.813 87.7227 121.445 86.1086 124.679 85.5799C125.716 85.4103 126.483 84.4514 126.251 83.4352C126.064 82.6156 125.288 82.065 124.445 82.1563C124.363 82.165 124.281 82.174 124.198 82.183Z" fill="#F9FCFB"/>
<path d="M158.109 80.9769C156.482 77.6324 160.206 74.6678 162.73 77.4119C164.08 78.8807 164.808 80.5939 164.283 82.582C163.888 84.0734 164.612 85.9563 166.166 86.0333C167.865 86.1175 168.456 87.994 166.895 88.665C166.405 88.8757 165.908 89.0738 165.409 89.2663C164.33 89.6819 163.101 89.2964 162.46 88.3415C160.867 85.969 159.351 83.532 158.109 80.9769Z" fill="#F9FCFB"/>
<path d="M178.602 87.0253C177.012 85.1924 173.223 88.5236 174.784 90.3803C176.359 92.2528 180.206 88.8737 178.602 87.0253Z" fill="#F9FCFB"/>
<path d="M104.936 97.0374C105.324 96.4093 105.913 95.9274 106.599 95.645C109.416 94.4864 113.056 97.1157 113.239 100.132C113.421 103.116 115.183 100.762 116.17 101.564C117.547 102.682 118.521 102.661 118.601 105.383C118.619 105.979 119.787 106.21 120.01 105.657C120.174 105.251 120.751 105.223 120.976 105.598C122.24 107.704 123.867 109.383 125.785 110.643C128.325 112.313 130.449 109.496 129.535 106.615C129.321 105.94 129.156 105.263 129.06 104.587C128.592 101.298 132.08 101.576 133.173 104.716C133.514 105.695 133.902 106.586 134.395 107.276C136.073 109.623 140.462 111.424 139.873 114.241C139.609 115.502 138.582 116.445 137.333 116.805C132.382 118.234 128.043 120.99 123.499 123.381C122.719 123.791 121.767 123.662 121.118 123.071C121.083 123.04 121.049 123.008 121.014 122.976C119.918 121.979 120.23 120.184 121.599 119.606C123.487 118.809 123.081 116.771 121.057 117.1C119.196 117.402 117.339 117.776 115.468 117.971C113.233 118.204 111.759 116.052 112.198 113.868C112.578 111.982 112.849 110.08 113.012 108.16C113.198 105.976 110.924 104.521 108.909 105.424C107.29 106.149 106.633 108.086 107.48 109.634C107.927 110.452 107.593 111.061 107.049 110.308C106.505 109.556 105.365 109.59 104.867 110.373C104.589 110.812 104.075 111.046 103.559 110.966C103.121 110.898 102.635 110.822 102.124 110.741C99.5557 110.334 98.3003 107.395 99.7238 105.238C101.51 102.53 103.235 99.7857 104.936 97.0374Z" fill="#F9FCFB"/>
<path d="M142.808 102.418C143.029 101.367 144.193 100.953 145.277 100.967C146.592 100.984 147.827 101.672 148.516 102.782C148.635 102.974 148.754 103.166 148.871 103.356C149.49 104.358 149.898 105.657 149.186 106.596C147.269 109.125 142.138 105.594 142.808 102.418Z" fill="#F9FCFB"/>
<path d="M153.403 103.088C152.076 102.004 152.677 99.7898 154.392 99.6609C155.082 99.6091 155.774 99.5576 156.434 99.5093C157.992 99.3953 159.344 100.611 159.556 102.145C160.237 107.087 161.813 113.406 157.831 115.465C155.814 116.507 153.715 114.621 153.193 112.427C153.055 111.848 152.922 111.288 152.803 110.796C152.68 110.282 152.318 109.858 151.828 109.651C150.438 109.063 150.472 107.104 151.881 106.563C152.194 106.443 152.507 106.322 152.815 106.204C154.161 105.685 154.518 103.998 153.403 103.088Z" fill="#F9FCFB"/>
<path d="M-nan -nanL142.908 112.847C139.613 120.945 151.83 112.316 142.908 112.847L-nan -nanZ" fill="#F9FCFB"/>
<path d="M167.473 126.618C167.812 124.611 169.529 123.113 171.567 122.864C172.324 122.772 173.083 122.713 173.844 122.689C177.223 122.581 179.549 125.857 178.109 128.888C175.658 134.049 166.524 132.244 167.473 126.618Z" fill="#F9FCFB"/>
<path d="M186.601 148.67C186.992 147.088 185.946 145.547 184.664 144.526C179.814 140.662 181.215 130.683 186.232 125.635C188.86 122.992 191.553 126.534 190.157 129.977C189.658 131.207 189.741 132.356 190.187 133.606C191.524 137.347 192.613 141.17 193.428 145.046C193.529 145.527 193.917 145.874 194.412 145.874C195.139 145.874 195.679 145.152 195.443 144.472C194.108 140.626 193.286 136.647 192.787 132.624C192.458 129.967 193.895 127.429 196.284 126.181C197.071 125.77 197.859 125.361 198.648 124.952C200.743 123.868 203.353 124.705 204.103 126.926C204.313 127.547 204.504 128.174 204.674 128.806C205.552 132.057 209.901 133.146 213.029 131.835C213.94 131.454 215.009 131.698 215.772 132.321C217.681 133.879 219.344 135.671 220.759 137.697C221.646 138.967 223.086 139.802 224.645 139.779C226.104 139.758 227.44 140.494 228.302 141.661C229.49 143.271 230.856 144.704 232.732 145.382C233.84 145.782 234.971 146.209 235.827 147.012C236.734 147.863 237.788 148.846 238.67 149.668C239.277 150.233 239.283 151.185 238.683 151.758L238.447 151.983C237.758 152.64 237.921 153.753 238.833 154.037C240.028 154.408 240.104 156.1 238.894 156.419C238.842 156.433 238.79 156.447 238.738 156.461C237.849 156.695 237.472 157.741 238.035 158.461C240.024 161.009 242.261 163.327 245.171 164.723C246.379 165.303 247.538 165.997 248.562 166.855C249.041 167.256 249.536 167.631 250.048 167.981C252.946 169.962 255.12 173.454 253.578 176.591C251.923 179.96 248.082 179.111 245.615 176.272C245.422 176.05 245.222 175.839 245.013 175.644C242.754 173.53 239.874 176.642 241.343 179.354C243.678 183.668 248.827 186.636 249.668 191.807C249.881 193.117 248.542 194.004 247.257 193.629C246.931 193.535 246.596 193.437 246.254 193.337C244.361 192.786 243.02 195.095 244.454 196.437C245.708 197.612 244.83 199.544 243.148 199.165C237.432 197.877 232.527 194.626 228.932 189.979C227.431 188.037 224.956 186.955 222.565 187.562C221.448 187.845 220.329 188.121 219.21 188.393C217.366 188.84 215.638 187.278 215.784 185.402C215.883 184.13 216.828 183.178 218.093 182.945C219.865 182.62 221.631 182.283 223.395 181.938C224.993 181.625 225.742 179.758 224.911 178.369C224.428 177.562 224.537 176.636 225.05 175.847C226.492 173.634 227.594 171.232 228.44 168.724C228.818 167.604 227.77 166.565 226.619 166.871C225.349 167.209 224.257 165.924 224.81 164.741L224.964 164.412C225.396 163.488 224.92 162.398 223.943 162.083C223.137 161.823 222.263 161.544 221.506 161.304C220.726 161.057 220.038 160.584 219.541 159.94C219.309 159.64 219.079 159.34 218.849 159.039C215.536 154.691 207.692 154.188 202.196 154.304C197.979 154.394 193.364 153.278 189.232 152.555C187.41 152.236 186.161 150.451 186.601 148.67Z" fill="#F9FCFB"/>
<path d="M205.225 125.033C208.198 122.299 213.583 125.299 214.709 128.617C213.691 134.192 202.974 129.971 205.225 125.033Z" fill="#F9FCFB"/>
<path d="M216.852 165.308C221.139 163.661 222.451 165.095 220.844 169.662C216.531 171.254 215.191 169.821 216.852 165.308Z" fill="#F9FCFB"/>
<path d="M294.309 25.6747C293.504 25.9952 293.092 26.8745 293.335 27.7L293.724 29.0276C294.144 30.4637 292.174 31.3171 291.178 30.1941C290.542 29.4774 289.515 29.7346 289.031 30.5594L288.63 31.2428C288.02 32.2816 286.618 32.5435 285.659 31.8072L285.508 31.6913C284.738 31.1002 283.663 31.0957 282.888 31.6795C281.833 32.473 280.776 33.2689 279.72 34.0647L277.529 35.7146C276.641 36.3831 276.991 37.7818 278.091 37.9644C278.916 38.1013 279.74 38.2398 280.565 38.3801C281.754 38.5824 281.617 40.0717 280.41 40.066C279.678 40.0625 279.191 40.8151 279.49 41.4779L279.669 41.8735C280.174 42.9945 278.938 44.1 277.861 43.4925C276.733 42.8564 275.468 43.995 276.129 45.1018C276.471 45.6751 276.82 46.2444 277.174 46.8101C278.316 48.6332 276.046 50.8194 274.256 49.6126C273.396 49.0332 272.53 48.464 271.654 47.9087C269.984 46.8488 268.051 48.4904 268.779 50.3188C269.539 52.2248 267.384 54.0861 265.592 53.0634C264.192 52.2644 262.796 51.4573 261.418 50.6155C261.23 50.5009 261.058 50.3626 260.905 50.2049C259.982 49.2502 258.484 49.1314 257.369 49.857C256.725 50.2759 256.06 50.6905 255.389 51.1085C250.596 54.0964 245.513 57.2649 245.784 63.5044C246.401 67.1927 243.623 68.8398 240.951 70.4247L240.836 70.4931C239.572 71.243 238.561 72.3282 237.812 73.5852C236.597 75.6247 235.414 77.6983 234.521 79.8886C233.806 81.6421 234.989 83.4952 236.851 83.9109C238.616 84.3049 239.75 85.9848 239.462 87.7547L238.924 91.0547C238.599 93.0492 237.422 94.8067 235.712 95.9065C234.405 96.7468 233.105 97.5985 231.805 98.4502C229.221 100.143 226.636 101.836 223.999 103.44C222.992 104.052 222.368 105.133 222.368 106.303C222.368 107.456 222.97 108.53 223.967 109.126C228.144 111.621 232.544 113.874 237.47 112.722C238.013 112.595 238.548 113.043 238.457 113.589C238.415 113.844 238.241 114.058 237.999 114.152C235.986 114.937 233.973 115.749 231.965 116.573C229.878 117.429 229.976 120.405 232.02 121.355C232.656 121.65 232.997 122.124 233.225 122.782L233.543 123.699C234.386 126.126 236.974 127.449 239.431 126.636C244.56 124.94 250.009 123.346 254.464 127.248C262.026 135.663 266.317 146.773 266.751 158.01C266.827 159.987 268.799 161.428 270.675 160.751L271.203 160.56C272.232 160.187 273.382 160.627 273.887 161.591C274.343 162.46 274.799 163.328 275.255 164.194C275.91 165.44 274.474 166.741 273.281 165.983C272.589 165.543 271.665 165.794 271.297 166.522L270.864 167.377C270.358 168.377 269.8 169.479 269.284 170.503C268.587 171.883 269.24 173.553 270.692 174.11L271.848 174.553C273.371 175.136 274.932 173.774 274.554 172.201L274.456 171.794C274.225 170.828 274.922 169.893 275.922 169.831C276.881 169.771 277.676 170.539 277.658 171.491L277.656 171.553C277.589 174.972 277.521 178.403 277.509 181.834C277.505 183 275.914 183.391 275.378 182.353C274.844 181.32 273.292 181.693 273.309 182.853C273.33 184.344 273.359 185.836 273.387 187.328L273.388 187.332C273.42 189.044 273.453 190.757 273.475 192.465C273.483 193.048 273.64 193.619 273.927 194.128C275.804 197.453 277.514 200.867 279.223 204.281C280.432 206.695 281.641 209.109 282.909 211.492C285.087 215.583 288.699 218.69 292.909 220.688C294.475 221.431 296.037 222.18 297.593 222.929C297.702 222.982 297.822 223.009 297.943 223.009C298.332 223.009 298.665 222.732 298.733 222.352C299.748 216.673 300.935 211.026 302.12 205.382C302.69 202.669 303.261 199.956 303.811 197.242C303.884 196.884 304.033 196.546 304.249 196.252C305.314 194.8 306.378 193.349 307.426 191.892C308.048 191.028 309.416 191.584 309.33 192.641C309.253 193.583 310.362 194.044 311.021 193.361C314.155 190.111 316.576 186.309 318.417 182.2C319.183 180.49 320.564 179.102 322.337 178.458C325.335 177.367 328.322 176.26 331.297 175.12C332.388 174.702 333.341 173.994 334.061 173.08C335.06 171.815 336.063 170.558 337.071 169.305C338.572 167.437 337.657 164.647 335.331 164.021C333.542 163.538 331.712 163.042 330.308 162.659C329.938 162.558 329.602 162.902 329.715 163.265C329.886 163.81 329.134 164.137 328.846 163.643C328.583 163.192 328.32 162.742 328.059 162.292C327.795 161.836 328.147 161.272 328.677 161.301C329.88 161.369 331.366 161.447 332.651 161.512C333.484 161.554 334.145 160.877 333.762 160.142C333.192 159.048 334.589 157.742 335.52 158.558C336.825 159.702 338.157 160.818 339.518 161.901C340.704 162.844 342.389 162.042 342.173 160.55C341.544 156.203 339.247 152.301 335.937 149.49C332.623 146.677 331.592 142.298 335.931 141.847C336.514 141.786 337.101 141.736 337.688 141.686C338.813 141.59 339.934 141.494 341.007 141.326C342.412 141.107 342.93 139.528 342.11 138.376C341.549 137.589 341.585 136.528 342.201 135.781L343.612 134.071C344.571 132.91 344.401 131.203 343.231 130.252L341.977 129.234C340.747 128.236 341.192 126.284 342.734 125.902C343.845 125.627 344.475 124.465 344.095 123.396L342.637 119.305C342.374 118.567 341.877 117.934 341.22 117.498L339.97 116.668C338.023 115.372 338.391 112.439 340.594 111.642C342.377 110.997 344.284 112.209 344.424 114.084C344.552 115.803 344.682 117.612 344.774 118.891L344.804 119.31C344.838 118.323 344.946 117.28 345.054 116.224C345.492 111.966 345.952 107.487 341.737 105.554C340.941 105.19 340.534 104.225 341.035 103.512C341.614 102.688 341.034 101.522 340.02 101.524L339.094 101.527C337.954 101.532 337.107 100.462 337.364 99.361C337.733 97.7806 338.064 96.179 338.395 94.5741C339.395 89.7331 340.4 84.8619 342.487 80.4586C343.059 79.2506 341.399 77.4854 340.229 78.146C339.253 78.6969 338.104 77.7433 338.475 76.6929C338.635 76.2423 338.79 75.8021 338.93 75.4042C339.134 74.8259 339.638 74.4094 340.235 74.251C346.26 72.6524 349.198 67.0128 352.088 61.4027C354.378 56.9577 352.743 50.0273 347.817 51.0665C346.105 51.4276 344.564 52.3806 343.336 54.1248C342.568 55.2153 341.18 55.8275 339.931 55.3405C339.671 55.239 339.412 55.1385 339.165 55.0427C338.479 54.7772 337.702 55.0517 337.336 55.6843C336.457 57.204 333.589 56.0706 333.781 54.3291C333.924 53.0299 334.005 51.7243 334.008 50.4128C334.012 48.698 331.917 48.1138 330.854 49.4669L330 50.5526C328.937 51.9037 326.849 51.8345 325.869 50.4226L325.681 50.152C325.179 49.4278 324.329 49.0204 323.444 49.0792C320.781 49.2564 320.223 46.6916 322.737 45.7988C325.539 44.8032 328.216 43.6232 330.428 41.7502C332.2 40.25 331.708 37.6044 329.86 36.1971C327.573 34.4551 325.3 32.6918 323.048 30.9069C322.641 30.585 322.112 30.4573 321.602 30.5589C321.092 30.6604 320.582 30.7615 320.073 30.862C318.233 31.2248 317.622 29.1165 319.378 28.4625C320.541 28.0291 320.736 26.5095 319.656 25.8996C311.731 21.4232 302.69 22.3384 294.309 25.6747Z" fill="#F9FCFB"/>
<path d="M343.528 189.908C341.494 189.98 338.859 190.877 339.448 192.808C339.841 194.094 341.207 195.158 342.687 195.876C343.686 196.361 344.314 197.446 344.003 198.504C343.7 199.537 344.285 200.619 345.32 200.942L348.593 201.964C350.287 202.493 352.133 202.187 353.601 201.198C353.779 201.078 353.957 200.958 354.136 200.838C356.196 199.453 358.268 198.059 360.03 196.357C361.598 194.843 361.626 192.443 360.478 190.596C359.094 188.368 356.328 187.506 353.788 188.218C350.43 189.158 347.01 189.783 343.528 189.908Z" fill="#F9FCFB"/>
<path d="M750.984 340.433C751.135 339.984 751.603 339.722 752.064 339.86C752.185 339.896 752.307 339.936 752.428 339.977C753.37 340.297 755.114 342.513 755.665 343.328C756.209 344.09 755.824 344.887 755.487 345.66C755.302 346.086 754.966 346.446 754.527 346.614C754.092 346.781 753.76 347.136 753.628 347.576C753.596 347.682 753.563 347.789 753.531 347.895C753.361 348.455 753.438 349.061 753.569 349.63C753.643 349.949 753.697 350.284 753.766 350.603C754 351.677 755.178 351.702 756.294 351.623C756.732 351.592 757.146 351.68 757.505 352.01C757.742 352.227 758.011 352.425 758.331 352.475C758.364 352.48 758.397 352.485 758.43 352.49C758.779 352.545 759.069 352.783 759.202 353.105C759.383 353.547 759.585 353.98 759.801 354.406C760.051 354.898 759.507 355.431 759.026 355.149C759.004 355.136 758.982 355.123 758.96 355.11C758.93 355.092 758.896 355.081 758.86 355.079C758.721 355.068 758.548 355.054 758.362 355.038C758.178 355.023 758.197 354.755 758.378 354.719C758.508 354.693 758.516 354.538 758.416 354.454C757.991 354.097 757.415 353.614 756.911 353.192C756.679 352.997 756.328 353.21 756.402 353.501C756.479 353.807 756.095 354.013 755.875 353.783C755.547 353.438 755.222 353.091 754.899 352.741C754.686 352.51 754.342 352.447 754.059 352.588C753.826 352.705 753.593 352.822 753.36 352.941C752.832 353.21 752.666 353.872 753.05 354.317C753.172 354.458 753.259 354.627 753.294 354.808C753.349 355.1 753.42 355.467 753.477 355.765C753.515 355.966 753.492 356.143 753.374 356.311C753.053 356.769 752.341 356.781 752.054 356.301C751.621 355.575 751.201 354.84 750.738 354.132C750.561 353.862 750.678 353.496 750.982 353.378C751.117 353.325 751.252 353.271 751.387 353.216C751.692 353.091 751.648 352.671 751.326 352.598C751.101 352.546 750.987 352.298 751.1 352.1C751.198 351.927 751.298 351.754 751.398 351.581C751.712 351.038 751.304 350.368 750.669 350.402C750.637 350.403 750.605 350.405 750.573 350.407C750.184 350.428 749.826 350.193 749.71 349.827C749.425 348.921 749.189 348.003 748.964 347.08C748.866 346.68 749.296 346.355 749.666 346.548C749.99 346.718 750.381 346.487 750.379 346.126C750.37 344.209 750.369 342.256 750.984 340.433Z" fill="#F9FCFB"/>
<path d="M758.051 356.694C758.076 356.477 758.257 356.311 758.478 356.299C758.64 356.291 758.818 356.281 758.986 356.271C759.207 356.258 759.361 356.491 759.279 356.694C759.23 356.814 759.275 356.936 759.379 357.015C759.574 357.162 759.819 357.347 760.051 357.521C760.256 357.676 760.15 358 759.894 358.038C759.799 358.053 759.722 358.017 759.656 357.948C759.475 357.759 759.229 357.503 759.028 357.293C758.907 357.167 758.727 357.137 758.59 357.247C758.355 357.436 757.987 357.266 758.02 356.97C758.031 356.875 758.041 356.782 758.051 356.694Z" fill="#F9FCFB"/>
<path d="M762.104 357.838C761.493 357.249 761.887 356.26 762.743 356.211C763.177 356.186 763.577 356.435 763.739 356.831C763.804 356.993 763.869 357.153 763.923 357.287C763.965 357.389 763.99 357.496 764.004 357.604C764.069 358.133 764.187 358.652 764.346 359.159C764.478 359.583 764.042 359.998 763.621 359.837C763.246 359.694 762.872 360.016 762.955 360.403C763.052 360.859 763.157 361.314 763.268 361.766C763.325 361.999 763.238 362.231 763.024 362.346C762.682 362.531 762.24 362.319 762.213 361.936C762.2 361.747 762.188 361.556 762.175 361.366C762.157 361.079 761.988 360.828 761.78 360.625C761.45 360.303 761.274 359.9 761.178 359.466C761.087 359.06 761.625 358.881 761.895 359.202C762.124 359.473 762.55 359.359 762.645 359.019C762.665 358.947 762.685 358.876 762.703 358.808C762.758 358.613 762.699 358.403 762.55 358.263C762.401 358.122 762.252 357.98 762.104 357.838Z" fill="#F9FCFB"/>
<path d="M754.85 359.995C754.916 359.095 755.942 358.427 756.787 358.781C757.383 359.03 757.667 359.722 757.29 360.238C756.949 360.704 756.534 361.09 756.022 361.324C755.349 361.632 754.77 360.95 754.832 360.223C754.838 360.147 754.845 360.071 754.85 359.995Z" fill="#F9FCFB"/>
<path d="M759.142 361.386C759.259 361.6 759.579 361.57 759.658 361.34C759.761 361.041 760.166 361.124 760.136 361.438C760.114 361.662 760.09 361.886 760.065 362.11C760.044 362.287 759.901 362.427 759.72 362.446C759.456 362.474 759.191 362.502 758.927 362.531C758.241 362.606 757.814 363.254 757.957 363.918C757.96 363.935 757.964 363.952 757.968 363.969C758.139 364.79 757.231 365.122 756.612 364.544C756.562 364.497 756.512 364.45 756.461 364.403C756.016 363.985 756.12 363.251 756.635 362.919C756.847 362.782 756.964 362.587 757.009 362.342C757.152 361.577 757.307 360.764 757.951 360.328C758.219 360.147 758.564 360.303 758.713 360.587C758.854 360.854 758.997 361.121 759.142 361.386Z" fill="#F9FCFB"/>
<path d="M764.515 362.768C764.253 362.828 764.04 362.555 764.168 362.322C764.187 362.287 764.206 362.252 764.224 362.218C764.343 362.001 764.642 361.962 764.815 362.14C765.142 362.478 765.473 362.815 765.807 363.149C766.032 363.373 765.974 363.749 765.69 363.896C765.438 364.028 765.367 364.347 765.512 364.589C766.394 366.06 766.56 367.839 766.954 369.489C766.994 369.655 766.991 369.829 766.937 369.991C766.824 370.327 766.696 370.658 766.563 370.988C766.356 371.503 765.564 371.473 765.384 370.948C765.247 370.546 764.73 370.43 764.424 370.729C764.368 370.784 764.311 370.839 764.255 370.894C764 371.145 763.974 371.537 764.139 371.853C764.537 372.619 764.627 373.441 764.241 374.177C764.071 374.498 763.629 374.379 763.538 374.028C763.456 373.714 763.087 373.584 762.813 373.765C762.797 373.775 762.781 373.786 762.766 373.796C762.608 373.9 762.403 373.911 762.236 373.82C761.213 373.263 760.259 372.566 760.034 371.399C759.99 371.174 760.035 370.979 760.158 370.785C760.525 370.209 760.336 369.336 759.714 369.037C759.233 368.806 758.788 368.714 758.528 369.177C758.379 369.441 758.044 369.603 757.789 369.433C757.671 369.353 757.55 369.272 757.439 369.198C757.309 369.111 757.133 369.173 757.135 369.328C757.137 369.538 756.847 369.624 756.768 369.429C756.724 369.32 756.68 369.212 756.638 369.108C756.555 368.905 756.266 368.888 756.158 369.08C755.629 370.023 755.095 370.99 755.205 372.089C755.223 372.266 755.097 372.434 754.916 372.449C754.732 372.465 754.581 372.311 754.597 372.13C754.745 370.546 754.764 368.54 756.357 367.881C756.777 367.707 757.23 367.6 757.575 367.309C758.057 366.903 758.562 366.411 759.106 366.561C759.279 366.608 759.378 366.727 759.452 366.888C759.709 367.448 760.459 367.626 760.962 367.26C761.261 367.042 761.571 366.837 761.891 366.646C762.027 366.565 762.122 366.442 762.154 366.288C762.2 366.069 762.379 365.888 762.603 365.845C762.955 365.778 763.305 365.703 763.653 365.619C763.957 365.547 764.155 365.261 764.122 364.955C764.091 364.679 764.057 364.369 764.026 364.086C764 363.857 764.269 363.712 764.453 363.855C764.616 363.982 764.855 363.883 764.869 363.68C764.883 363.476 764.891 363.272 764.895 363.067C764.9 362.87 764.712 362.723 764.515 362.768Z" fill="#F9FCFB"/>
<path d="M760.367 362.978C760.521 362.838 760.704 362.747 760.915 362.743C762.302 362.718 760.921 364.433 760.204 363.921C759.894 363.7 760.086 363.233 760.367 362.978Z" fill="#F9FCFB"/>
<path d="M758.497 363.418C758.506 363.317 758.593 363.239 758.696 363.239C758.798 363.239 758.883 363.313 758.894 363.413C758.907 363.527 758.922 363.661 758.936 363.784C758.951 363.922 758.84 364.043 758.699 364.043C758.56 364.043 758.45 363.926 758.463 363.79C758.474 363.668 758.486 363.534 758.497 363.418Z" fill="#F9FCFB"/>
<path d="M741.44 371.545C741.544 371.665 741.744 371.603 741.761 371.447C741.784 371.231 742.121 371.235 742.142 371.451C742.144 371.469 742.145 371.487 742.147 371.505C742.153 371.563 742.186 371.614 742.236 371.645C742.462 371.788 742.66 371.948 742.82 372.13C743.398 372.784 743.881 373.71 744.701 374.031C745.236 374.241 745.759 374.48 746.273 374.737C746.919 375.059 746.877 375.919 746.17 376.069C745.951 376.116 745.731 376.154 745.509 376.184C745.062 376.246 744.828 376.762 745.108 377.109C745.376 377.443 745.172 377.937 744.742 377.997C744.308 378.057 743.874 378.118 743.441 378.179C743.089 378.228 742.899 378.61 743.078 378.912C743.265 379.228 743.041 379.63 742.669 379.653C742.288 379.676 742.068 380.086 742.291 380.39C743.047 381.418 743.946 382.42 744.083 383.669C744.133 384.13 744.261 384.601 744.615 384.908C744.804 385.072 744.997 385.23 745.191 385.388C745.936 385.996 745.483 386.955 744.522 386.836C744.148 386.79 743.761 386.902 743.538 387.201C743.104 387.782 742.865 388.445 742.766 389.141C742.597 390.345 742.161 391.55 741.181 392.293C740.285 392.973 739.969 394.113 739.865 395.22C739.8 395.918 739.629 396.605 739.393 397.276C739.313 397.503 739.362 397.75 739.46 397.97C739.606 398.299 739.6 398.63 739.513 398.96C739.427 399.289 738.975 399.222 738.92 398.887C738.883 398.656 738.631 398.524 738.414 398.622C737.753 398.92 737.092 399.218 736.434 399.522C735.825 399.803 735.094 399.447 734.917 398.81C734.818 398.454 734.547 398.211 734.183 398.121C733.356 397.919 732.515 397.761 731.689 397.547C731.256 397.435 730.799 397.438 730.37 397.567C729.745 397.757 729.114 397.93 728.489 398.12C728.059 398.252 727.607 397.938 727.586 397.495C727.568 397.118 727.232 396.845 726.848 396.882C726.426 396.923 726.004 396.965 725.583 397.009C725.434 397.024 725.284 397.022 725.136 397.003C725.118 397.001 725.1 396.999 725.082 396.997C724.064 396.87 723.242 396.122 723.077 395.128C723 394.665 722.921 394.203 722.831 393.743C722.653 392.83 722.001 392.197 721.235 391.651C721.143 391.586 721.06 391.513 720.99 391.43C720.706 391.093 720.695 390.612 720.565 390.194C720.075 388.606 719.606 386.848 720.236 385.372C720.635 384.44 721.802 384.243 722.782 384.554C722.998 384.623 723.213 384.691 723.43 384.759C724.607 385.128 725.826 384.436 726.167 383.271C726.397 382.485 727.039 381.88 727.848 381.685C728.479 381.533 729.108 381.377 729.735 381.213C730.395 381.04 730.975 380.656 731.407 380.136C731.977 379.447 732.554 378.762 733.095 378.049C733.385 377.667 733.945 377.595 734.316 377.902C734.433 377.999 734.55 378.095 734.668 378.191C734.956 378.426 735.391 378.285 735.48 377.928C735.54 377.682 735.599 377.435 735.655 377.187C735.72 376.899 736.137 376.866 736.245 377.141C736.352 377.415 736.769 377.382 736.84 377.097C736.992 376.483 737.167 375.875 737.342 375.267C737.406 375.047 737.56 374.865 737.755 374.74C739.043 373.91 739.711 372.45 740.612 371.239C740.747 371.058 741.016 371.055 741.164 371.226C741.254 371.33 741.35 371.441 741.44 371.545Z" fill="#F9FCFB"/>
<path d="M683.177 373.216C683.191 373.948 683.651 374.606 684.364 374.825C685.156 375.069 685.959 375.266 686.774 375.4C688.481 375.682 690.087 376.426 691.18 377.744C691.847 378.549 692.586 379.286 693.532 379.802C695.136 380.688 696.302 382.085 697.443 383.47C697.635 383.704 698.002 383.713 698.223 383.504C698.362 383.373 698.551 383.339 698.735 383.397C699.217 383.547 699.701 383.688 700.187 383.82C700.484 383.901 700.676 384.18 700.631 384.479C700.581 384.814 700.826 385.129 701.17 385.162C701.456 385.19 701.769 385.22 702.05 385.248C702.341 385.277 702.538 385.545 702.462 385.822C702.373 386.147 702.649 386.466 702.987 386.419C703.19 386.39 703.401 386.361 703.596 386.334C703.863 386.297 704.098 386.51 704.08 386.775C704.074 386.861 704.068 386.95 704.062 387.042C704.036 387.415 704.564 387.529 704.755 387.205C704.904 386.952 705.257 387.016 705.348 387.294C705.601 388.062 705.719 388.84 705.652 389.62C705.577 390.498 705.982 391.446 706.829 391.737C707.363 391.92 707.765 392.368 707.873 392.912C707.929 393.195 707.985 393.477 708.042 393.759C708.079 393.947 708.183 394.116 708.336 394.236C708.482 394.35 708.649 394.48 708.799 394.597C708.947 394.713 708.982 394.908 708.844 395.036C708.616 395.248 708.79 395.64 709.098 395.579C709.44 395.511 709.784 395.451 710.13 395.416C710.276 395.401 710.422 395.444 710.536 395.534C710.724 395.683 710.906 395.84 711.083 396.002C711.717 396.582 711.946 397.462 711.838 398.306C711.673 399.59 711.658 400.886 711.645 402.183C711.634 403.215 710.73 404.012 709.681 403.932C709.325 403.905 708.97 403.877 708.615 403.846C708.48 403.834 708.357 403.893 708.301 404.015C708.206 404.217 707.928 404.278 707.769 404.12C706.963 403.317 706.147 402.524 705.274 401.802C703.254 400.433 701.439 398.756 699.877 396.893C699.107 395.975 698.508 394.936 697.991 393.862C697.372 392.576 696.716 391.298 695.855 390.175C694.704 388.672 693.638 387.061 692.755 385.392C691.67 383.342 689.639 381.679 687.882 380.142C686.78 379.18 685.531 378.346 684.514 377.303C683.467 376.229 683.177 374.702 683.177 373.216Z" fill="#F9FCFB"/>
<path d="M769.92 384.048C769.99 383.911 770.094 383.794 770.221 383.705C770.705 383.364 771.243 383.098 771.78 382.832C772.129 382.658 772.546 382.972 772.451 383.345C772.413 383.495 772.297 383.614 772.146 383.657C771.873 383.736 771.528 383.834 771.231 383.918C770.978 383.989 770.796 384.204 770.758 384.459C770.744 384.555 770.728 384.651 770.71 384.747C770.601 385.356 771.311 385.728 771.834 385.382C772.234 385.118 772.563 385.569 772.296 385.964C772.105 386.246 771.91 386.532 771.745 386.775C771.619 386.961 771.652 387.208 771.821 387.357C772.163 387.656 771.888 388.194 771.439 388.108C771.273 388.076 771.108 388.044 770.942 388.012C770.693 387.965 770.466 388.162 770.495 388.409C770.559 388.942 770.671 389.468 770.867 389.957C770.957 390.183 770.464 391.383 770.239 391.482C770.182 391.508 770.122 391.501 770.068 391.47C769.626 391.221 769.202 390.943 768.816 390.622C768.569 390.416 768.762 390.069 769.081 390.124C769.377 390.176 769.577 389.865 769.446 389.599C769.323 389.35 769.264 389.098 769.381 388.877C769.517 388.622 769.7 388.362 769.651 388.078C769.416 386.719 769.275 385.311 769.92 384.048Z" fill="#F9FCFB"/>
<path d="M759.655 386.892C759.893 386.89 760.127 386.828 760.33 386.706C761.501 385.995 762.362 386.868 761.37 387.805C761.313 387.859 761.249 387.909 761.181 387.95C759.82 388.764 758.209 388.053 756.752 387.952C755.776 387.921 754.799 387.942 753.821 387.949C751.738 387.963 748.658 389.062 749.696 390.835C749.84 391.032 749.993 391.223 750.153 391.408C750.973 392.361 752.414 392.301 753.58 391.803C754.919 391.232 756.402 390.968 757.869 390.88C758.274 390.855 758.512 391.305 758.274 391.627C758.206 391.718 758.138 391.81 758.072 391.9C757.902 392.132 758.09 392.452 758.379 392.424C758.555 392.407 758.715 392.525 758.744 392.696C758.746 392.704 758.747 392.711 758.748 392.718C758.801 393.022 758.446 393.263 758.144 393.178C757.853 393.095 757.553 393.064 757.247 393.082C757.04 393.095 756.828 393.034 756.68 392.892C756.441 392.664 756.069 392.656 755.802 392.851C755.663 392.953 755.52 393.052 755.375 393.146C754.504 393.709 754.199 395.216 754.876 395.996C755.034 396.178 755.189 396.363 755.342 396.549C755.62 396.888 755.725 397.333 755.637 397.759C755.624 397.822 755.611 397.885 755.598 397.947C755.519 398.331 755.646 398.729 755.934 399C756.58 399.61 756.251 400.569 755.466 400.994C755.279 401.095 755.106 401.216 754.953 401.364C754.687 401.621 754.302 401.782 753.955 401.647C753.616 401.516 753.427 401.16 753.512 400.812C753.533 400.725 753.555 400.636 753.576 400.548C753.673 400.15 753.521 399.734 753.189 399.487C752.969 399.324 752.75 399.16 752.532 398.996C752.161 398.718 751.984 398.26 752.051 397.807C752.076 397.642 752.099 397.478 752.12 397.313C752.207 396.628 751.502 396.134 750.863 396.42C750.447 396.606 750.241 397.062 750.321 397.504C750.612 399.13 750.426 400.79 750.39 402.442C750.375 403.119 749.886 403.711 749.207 403.833C749.128 403.847 749.049 403.861 748.97 403.875C748.658 403.932 748.342 403.834 748.126 403.606C747.896 403.363 747.822 403.013 747.918 402.695C748.283 401.475 748.443 400.206 748.215 398.959C748.139 398.546 747.757 398.276 747.331 398.289C746.865 398.304 746.446 397.986 746.389 397.532C746.367 397.354 746.348 397.176 746.331 396.997C746.293 396.615 746.408 396.235 746.621 395.913C746.795 395.651 746.956 395.382 747.11 395.109C747.462 394.482 747.553 393.755 747.668 393.048C747.723 392.711 747.817 392.384 747.947 392.071C748.329 391.157 748.679 390.199 748.878 389.23C749.038 388.453 749.363 387.719 749.825 387.049C749.986 386.816 750.296 386.743 750.557 386.859C750.831 386.98 751.154 386.887 751.319 386.641C751.385 386.544 751.451 386.446 751.517 386.349C751.783 385.954 752.289 385.791 752.75 385.928C753.926 386.278 755.131 386.512 756.338 386.736C756.698 386.803 757.065 386.833 757.431 386.841C758.173 386.855 758.913 386.898 759.655 386.892ZM756.882 391.591C756.828 391.656 756.803 391.741 756.816 391.825C756.837 391.965 756.955 392.071 757.099 392.079C757.157 392.082 757.218 392.086 757.278 392.089C757.464 392.1 757.614 391.944 757.595 391.763C757.584 391.656 757.514 391.563 757.413 391.521L757.306 391.477C757.162 391.417 756.996 391.457 756.896 391.575L756.882 391.591Z" fill="#F9FCFB"/>
<path d="M777.668 390.208C777.264 389.91 777.42 389.296 777.926 389.286C778.075 389.283 778.224 389.286 778.372 389.296C779.037 389.345 778.977 390.084 778.335 390.261C778.283 390.276 778.231 390.29 778.18 390.304C778.004 390.352 777.814 390.316 777.668 390.208Z" fill="#F9FCFB"/>
<path d="M779.127 391.844C779.28 391.901 779.452 391.876 779.587 391.785C780.362 391.261 781.145 390.688 782.023 390.353C782.617 390.127 783.272 390.201 783.875 390.404C784.127 390.49 784.379 390.576 784.632 390.66C786.058 391.134 787.219 392.312 787.278 393.788C787.317 394.776 787.841 395.697 788.462 396.475C788.659 396.723 788.855 396.972 789.065 397.195C789.822 398 791.066 397.691 791.827 396.89C792.198 396.499 792.542 396.078 792.883 395.66C793.177 395.299 793.586 395.048 794.043 394.942C794.538 394.827 794.969 394.54 795.323 394.183C795.404 394.1 795.488 394.019 795.574 393.941C796.343 393.234 797.489 393.169 798.446 393.601C800.265 394.42 802.08 395.256 804.072 395.571C806.423 396.036 808.524 397.229 810.832 397.831C813.544 398.664 816.229 399.831 818.326 401.762C818.381 401.813 818.458 401.823 818.497 401.759C818.573 401.639 818.769 401.704 818.718 401.836C818.562 402.243 818.405 402.65 818.254 403.06C818.205 403.191 818.279 403.335 818.414 403.378C819.834 403.833 821.214 404.421 822.661 404.808C822.915 404.876 823.139 405.03 823.281 405.248C823.3 405.277 823.32 405.307 823.339 405.336C823.719 405.92 823.338 406.687 822.635 406.76C821.979 406.827 821.584 407.508 821.952 408.046C822.452 408.777 823.072 409.419 823.796 409.942C824.25 410.271 824.653 410.67 824.914 411.161C825.153 411.61 825.397 412.056 825.641 412.505C825.8 412.798 826.106 412.965 826.441 412.917C826.941 412.845 827.377 413.275 827.642 413.698C827.821 413.985 828.106 414.188 828.461 414.324C828.774 414.444 829.047 414.673 829.138 414.99C829.225 415.292 829.47 415.523 829.78 415.599C830.093 415.675 830.406 415.752 830.721 415.828C830.995 415.895 831.15 416.182 831.058 416.444C830.968 416.697 831.117 416.97 831.381 417.041L831.992 417.205C830.486 416.942 829.011 416.538 827.526 416.183C824.912 415.556 822.359 414.45 820.651 412.409C820.244 411.923 819.843 411.432 819.445 410.94C819.135 410.557 818.74 410.245 818.277 410.064C816.731 409.457 815.074 409.099 813.406 409.243C813.234 409.257 813.151 409.452 813.255 409.588C813.328 409.682 813.313 409.815 813.221 409.891C812.858 410.196 812.495 410.504 812.14 410.82C812.087 410.867 812.018 410.894 811.947 410.895C811.591 410.902 811.495 411.558 811.73 411.821C811.83 411.932 811.916 412.06 811.984 412.209C812.048 412.348 811.982 412.507 811.848 412.583C811.457 412.806 811.056 413.007 810.653 413.203C810.215 413.416 809.714 413.46 809.23 413.394C808.503 413.295 807.766 413.279 807.032 413.236C806.1 413.181 805.214 412.825 804.536 412.195C804.1 411.789 803.685 411.359 803.262 410.938C802.898 410.576 802.391 410.395 801.873 410.417C801.311 410.441 800.749 410.459 800.187 410.471C800.009 410.475 799.871 410.624 799.886 410.798C799.903 410.999 799.719 411.158 799.519 411.117C799.318 411.075 799.102 411.029 798.94 410.996C798.873 410.982 798.804 410.977 798.735 410.982C798.703 410.984 798.672 410.986 798.64 410.988C797.605 411.055 796.882 410.009 797.615 409.289C797.746 409.161 797.884 409.042 798.03 408.931C798.859 408.305 799.564 407.314 799.175 406.36C798.786 405.405 798.292 404.491 797.67 403.673C797.475 403.417 797.242 403.19 796.974 403.008C795.3 401.87 793.284 401.492 791.342 400.945C788.954 400.274 785.185 399.208 785.971 396.895C785.867 397.291 785.742 397.687 785.63 398.086C785.361 399.037 783.93 399.906 783.602 398.974C783.551 398.83 783.531 398.671 783.548 398.492C783.58 398.156 783.501 397.796 783.216 397.606C783.147 397.561 783.079 397.515 783.01 397.47C782.485 397.124 782.707 396.329 783.339 396.323C783.48 396.321 783.618 396.275 783.73 396.192C783.857 396.096 784.008 395.984 784.155 395.874C784.45 395.654 784.83 395.579 785.19 395.667C785.385 395.715 785.59 395.765 785.773 395.81C785.987 395.863 786.199 395.782 786.299 395.59C786.457 395.284 786.244 394.91 785.896 394.933C784.55 395.023 782.968 395.295 781.968 394.626C781.128 394.063 780.492 393.133 779.509 392.88C779.175 392.794 778.841 392.708 778.508 392.62C778.384 392.587 778.28 392.505 778.221 392.393C778.009 391.994 778.449 391.562 778.869 391.741C778.954 391.778 779.04 391.812 779.127 391.844Z" fill="#F9FCFB"/>
<path d="M769.277 393.602C768.955 393.202 769.414 392.588 769.933 392.559C770.963 392.503 770.906 394.194 769.903 393.957C769.648 393.897 769.415 393.774 769.277 393.602Z" fill="#F9FCFB"/>
<path d="M710.369 393.585C710.466 393.397 710.647 393.307 710.862 393.308C710.99 393.308 711.129 393.309 711.27 393.31C711.781 393.313 712.234 393.628 712.412 394.098C712.541 394.441 712.672 394.785 712.806 395.127C712.844 395.225 712.903 395.315 712.976 395.393C713.038 395.457 713.1 395.522 713.161 395.588C713.603 396.062 713.128 396.779 712.48 396.679C712.217 396.639 712.055 396.466 711.963 396.221C711.726 395.592 711.419 394.97 710.867 394.665C710.486 394.455 710.171 393.969 710.369 393.585Z" fill="#F9FCFB"/>
<path d="M761.35 393.645C761.427 393.539 761.542 393.499 761.675 393.512C763.013 393.633 764.343 393.851 765.685 393.961C765.839 393.974 765.934 394.132 765.869 394.269C765.84 394.331 765.81 394.394 765.781 394.457C765.688 394.654 765.386 394.528 765.421 394.314C765.44 394.203 765.35 394.134 765.236 394.13C764.043 394.089 762.857 394.164 761.672 394.252C761.352 394.276 761.163 393.902 761.35 393.645Z" fill="#F9FCFB"/>
<path d="M776.311 394.714C775.454 394.626 775.85 393.392 776.712 393.386C777.407 393.381 777.706 394.351 777.064 394.612C776.834 394.705 776.562 394.74 776.311 394.714Z" fill="#F9FCFB"/>
<path d="M835.734 398.523C835.077 398.191 835.245 397.887 835.827 398.334C836.404 398.778 836.954 399.257 837.476 399.762C837.495 399.78 837.515 399.797 837.536 399.812C838.071 400.22 837.862 400.8 837.661 401.364C837.605 401.521 837.281 401.532 837.229 401.374C837.198 401.282 837.089 401.241 837.003 401.289C836.476 401.586 835.94 401.872 835.4 402.148C835.132 402.286 834.989 402.569 835.063 402.857C835.161 403.239 834.895 403.635 834.496 403.671C834.387 403.68 834.28 403.69 834.181 403.699C833.983 403.717 833.798 403.799 833.647 403.927C832.425 404.965 830.873 405.809 829.211 405.603C827.335 405.239 825.699 404.069 823.76 403.988C823.688 403.985 823.627 403.931 823.62 403.86C823.612 403.777 823.678 403.706 823.763 403.705C825.566 403.704 827.369 403.586 829.172 403.615C829.252 403.617 829.325 403.569 829.354 403.495C829.387 403.413 829.419 403.33 829.452 403.248C829.522 403.07 829.785 403.177 829.752 403.365C829.735 403.465 829.82 403.522 829.922 403.519C830.317 403.507 830.868 403.49 831.33 403.476C831.682 403.465 832.013 403.313 832.264 403.071C832.714 402.637 833.2 402.243 833.721 401.893C833.975 401.722 834.09 401.404 833.984 401.119C833.816 400.668 834.197 400.206 834.682 400.272C834.839 400.293 834.997 400.315 835.155 400.337C835.931 400.444 836.497 399.629 836.109 398.961C836.07 398.894 836.033 398.83 835.998 398.77C835.937 398.664 835.845 398.578 835.734 398.523Z" fill="#F9FCFB"/>
<path d="M771.881 398.024C771.154 397.803 770.963 396.931 771.701 396.746C772.601 396.52 773.615 396.639 774.572 396.616C774.855 396.609 775.138 396.625 775.414 396.682C775.985 396.801 776.556 396.912 777.129 397.016C777.38 397.061 777.597 397.218 777.713 397.441C778.051 398.088 777.404 398.751 776.733 398.44C776.46 398.314 776.188 398.185 775.918 398.055C775.745 397.973 775.555 397.933 775.363 397.936C774.658 397.946 773.954 397.916 773.259 397.809C773.072 397.781 772.884 397.83 772.746 397.957C772.582 398.108 772.344 398.166 772.129 398.1C772.047 398.075 771.964 398.05 771.881 398.024Z" fill="#F9FCFB"/>
<path d="M767.187 398.935C765.989 398.801 765.913 397.13 767.117 397.202C767.228 397.209 767.339 397.223 767.448 397.245C768.612 397.474 768.367 399.068 767.187 398.935Z" fill="#F9FCFB"/>
<path d="M755.785 401.975C755.824 401.705 756.017 401.481 756.28 401.395C756.477 401.331 756.674 401.266 756.871 401.2C757.306 401.055 757.672 401.548 757.442 401.938C757.354 402.087 757.374 402.238 757.462 402.387C757.488 402.43 757.514 402.474 757.541 402.519C757.716 402.815 757.665 403.189 757.419 403.431C757.403 403.446 757.388 403.462 757.373 403.477C757.03 403.815 756.471 403.806 756.146 403.452C756.092 403.394 756.039 403.336 755.988 403.28C755.773 403.047 755.674 402.732 755.72 402.421C755.741 402.274 755.764 402.119 755.785 401.975Z" fill="#F9FCFB"/>
<path d="M712.878 407.322C712.444 407.254 711.738 405.294 711.969 404.927C712.043 404.81 712.178 404.748 712.317 404.762C713.059 404.835 713.807 404.891 714.553 404.886C715.047 404.883 715.542 404.932 716.016 405.069C716.806 405.298 717.597 405.535 718.299 405.928C719.143 406.4 719.968 406.973 720.933 407.078C721.735 407.166 722.544 407.207 723.348 407.28C723.745 407.316 724.12 407.142 724.311 406.798C724.57 406.335 725.171 406.155 725.666 406.36C727.72 407.212 729.938 407.289 732.148 407.233C732.648 407.22 732.791 407.75 732.307 407.872C731.744 408.014 731.097 409.416 731.668 409.307C732.509 409.249 733.45 409.152 734.126 409.523C734.815 409.9 735.505 410.503 736.287 410.399C736.339 410.392 736.39 410.385 736.438 410.379C736.599 410.357 736.763 410.375 736.915 410.431C736.979 410.455 737.046 410.48 737.115 410.506C737.508 410.651 737.712 411.08 737.578 411.47C737.459 411.818 737.104 412.035 736.734 411.981C736.714 411.978 736.694 411.975 736.673 411.972C736.544 411.953 736.422 411.905 736.315 411.831C735.921 411.559 735.526 411.288 735.13 411.02C734.872 410.844 734.535 411.087 734.624 411.382C734.712 411.674 734.372 411.928 734.091 411.799C730.886 410.321 727.109 411.61 723.826 410.236C722.422 409.684 720.945 409.159 719.407 409.339C717.423 409.689 715.606 408.694 713.668 408.451C713.382 408.415 713.178 408.145 713.251 407.872C713.258 407.848 713.264 407.823 713.271 407.799C713.328 407.586 713.187 407.371 712.965 407.335C712.936 407.331 712.907 407.326 712.878 407.322Z" fill="#F9FCFB"/>
<path d="M743.756 410.787C743.607 410.581 743.825 410.341 744.056 410.452C744.302 410.571 744.547 410.692 744.79 410.818C744.857 410.853 744.932 410.873 745.008 410.877C745.355 410.893 745.877 410.916 746.288 410.935C746.514 410.946 746.711 411.083 746.795 411.29C746.934 411.632 746.712 412.014 746.341 412.07C744.674 412.318 743.017 412.629 741.361 412.955C741.136 413 740.904 412.934 740.737 412.78C740.564 412.621 740.39 412.463 740.215 412.307C740.077 412.183 739.855 412.245 739.803 412.422C739.762 412.562 739.607 412.637 739.469 412.585C739.372 412.55 739.267 412.511 739.161 412.471C738.826 412.347 738.696 411.948 738.897 411.657C739.009 411.492 739.122 411.328 739.236 411.164C739.461 410.841 739.912 410.771 740.278 410.927C741.196 411.316 742.23 411.336 743.221 411.528C743.517 411.585 743.931 411.028 743.756 410.787Z" fill="#F9FCFB"/>
<path d="M755.025 411.566C755.105 411.566 755.186 411.58 755.264 411.599C755.974 411.763 756.393 411.219 756.79 410.695C756.914 410.533 757.119 410.641 757.065 410.836C757.03 410.96 757.123 411.083 757.254 411.084C758.068 411.088 758.879 410.993 759.688 410.892C760.71 410.764 760.758 411.258 759.728 411.254C757.365 411.352 755.163 412.321 752.806 412.435C752.036 412.432 751.27 412.365 750.506 412.283C749.728 412.198 749.409 411.295 750.049 410.853C750.291 410.686 750.6 410.656 750.879 410.75C752.219 411.203 753.598 411.56 755.025 411.566Z" fill="#F9FCFB"/>
<path d="M747.957 411.369C748.236 411.708 748.236 411.708 747.957 411.369V411.369Z" fill="#F9FCFB"/>
<path d="M759.667 416.191C759.112 416.07 758.742 415.487 759.063 415.026C759.668 414.157 760.615 413.632 761.619 413.198C762.266 412.918 762.969 413.468 762.869 414.155C762.837 414.372 762.728 414.572 762.554 414.709C761.834 415.276 761.05 415.755 760.213 416.128C760.032 416.209 759.861 416.233 759.667 416.191Z" fill="#F9FCFB"/>
<path d="M748.765 415.211C747.91 414.791 747.946 413.718 748.898 413.622C749.16 413.596 749.423 413.669 749.636 413.822C749.866 413.987 750.097 414.15 750.326 414.316C751.115 414.884 751.035 416.504 750.195 416.012C750.189 416.009 750.183 416.005 750.178 416.001C750.059 415.928 749.952 415.835 749.83 415.768C749.48 415.573 749.125 415.388 748.765 415.211Z" fill="#F9FCFB"/>
<path d="M845.876 506.978C845.797 506.793 846.148 506.572 846.272 506.731C846.289 506.753 846.311 506.771 846.338 506.782C847.605 507.315 849.272 507.834 849.719 509.137C849.933 509.76 849.902 510.444 850.126 511.064C850.263 511.444 850.398 511.829 850.454 512.212C850.572 513.014 849.506 513.628 849.403 512.823C849.353 512.43 849.39 511.937 849.342 511.561C849.319 511.382 849.176 511.254 849.006 511.186C847.274 510.497 846.603 508.681 845.876 506.978Z" fill="#F9FCFB"/>
<path d="M852.189 510.938C852.467 511.272 852.467 511.272 852.189 510.938V510.938Z" fill="#F9FCFB"/>
<path d="M852.441 513.295C852.38 512.915 852.784 512.726 852.979 513.06C853.38 513.751 853.546 514.576 853.858 515.319C853.926 515.48 854.032 515.624 854.169 515.734C854.635 516.106 855.17 516.375 855.725 516.605C856.566 516.955 857.511 516.72 858.258 516.204C859.315 515.474 860.319 516.59 859.904 517.792C859.753 518.231 859.583 518.664 859.414 519.097C859.046 520.04 857.88 520.408 856.955 520.849C856.552 521.041 856.416 521.522 856.388 521.961C856.224 524.5 854.607 526.771 852.797 528.578C852.367 529.008 851.68 529.04 851.177 528.695C850.612 528.306 850.458 527.56 850.814 526.979C851.14 526.446 851.434 525.895 851.609 525.299C851.668 525.096 851.698 524.882 851.661 524.674C851.447 523.479 849.958 523.153 849.062 522.502C848.758 522.234 848.145 522.046 847.859 521.74C847.49 521.344 848.075 520.838 848.545 520.564C849.281 520.137 849.864 519.49 850.123 518.69C850.504 517.516 850.703 516.279 850.4 515.093C850.278 514.614 850.432 514.081 850.869 513.838C850.979 513.777 851.088 513.716 851.199 513.656C851.355 513.571 851.548 513.589 851.683 513.704C851.996 513.973 852.505 513.699 852.441 513.295Z" fill="#F9FCFB"/>
<path d="M843.617 526.889C843.927 526.069 844.966 526.027 845.425 526.776C845.492 526.887 845.558 526.999 845.622 527.113C845.93 527.664 846.642 527.911 847.197 527.596C847.394 527.484 847.593 527.373 847.793 527.265C847.879 527.218 847.927 527.14 847.897 527.048C847.829 526.845 848.084 526.667 848.237 526.819C848.481 527.061 848.727 527.301 848.976 527.54C849.143 527.7 849.155 527.96 849.001 528.132C848.943 528.197 848.883 528.265 848.825 528.329C848.661 528.513 848.602 528.765 848.673 528.999C848.705 529.106 848.739 529.219 848.773 529.331C848.883 529.698 848.826 530.093 848.623 530.42C847.65 531.993 846.737 533.665 845.283 534.842C844.988 535.08 844.89 535.493 845.089 535.813C845.43 536.36 844.877 537.141 844.232 537.243C843.338 537.385 842.495 537.793 841.744 538.338C841.461 538.543 841.268 538.842 841.169 539.173C840.822 540.333 840.48 541.496 840.121 542.654C839.735 543.899 838.947 544.982 838.028 545.919C837.797 546.154 837.57 546.392 837.339 546.627C836.793 547.185 836.056 547.529 835.267 547.529C834.896 547.529 834.526 547.517 834.157 547.505C833.753 547.493 833.361 547.295 833.11 546.985C832.972 546.814 832.805 546.694 832.602 546.606C832.391 546.515 832.181 546.423 831.971 546.33C831.499 546.12 830.966 546.119 830.447 546.12C829.577 546.124 828.835 545.686 828.31 544.966C828.181 544.79 828.311 544.552 828.53 544.521C828.668 544.502 828.765 544.4 828.795 544.266C829.313 541.996 831.206 540.477 832.717 538.819C833.592 537.823 834.957 537.501 836.005 536.724C837.957 535.265 840.279 533.853 841.245 531.604C841.618 530.737 842.184 529.92 842.684 529.117C843.101 528.446 843.328 527.653 843.617 526.889Z" fill="#F9FCFB"/>
<path d="M832.361 549.514C831.87 549.71 831.373 549.209 831.578 548.728C831.764 548.291 832.376 548.239 832.625 548.644C832.632 548.656 832.639 548.667 832.646 548.679C832.834 548.983 832.697 549.38 832.361 549.514Z" fill="#F9FCFB"/>
<path d="M450.188 84.9697C446.169 85.7256 441.592 86.5864 442.061 90.4949C442.33 92.7334 443.604 94.3286 446.535 94.0191C447.735 93.8923 448.959 94.4997 449.257 95.6586C449.567 96.8662 450.879 97.535 452.05 97.0805L453.681 96.4473C454.549 96.11 455.515 96.4428 455.927 97.2713C456.453 98.3292 457.867 98.6532 458.767 97.8812C459.728 97.0563 460.687 96.2317 461.641 95.4077C462.324 94.818 462.818 94.0446 463.069 93.1824C463.392 92.0734 463.717 90.9644 464.043 89.8564C464.992 86.6402 463.09 83.2561 459.818 82.4122C457.694 81.8646 455.631 82.8496 453.609 83.8149C453.168 84.0254 452.728 84.2351 452.291 84.4276C451.912 84.5947 451.52 84.7148 451.118 84.7929C450.814 84.852 450.502 84.9107 450.188 84.9697Z" fill="#F9FCFB"/>
<path d="M436.163 92.9876C435.969 91.9006 437.279 91.2846 438.044 92.0862C439.686 93.8045 441.555 95.7652 442.796 97.0727C442.95 97.2357 443.215 97.2184 443.348 97.038C443.508 96.8225 443.841 96.8498 443.972 97.0832C445.279 99.4133 447.17 101.193 449.57 102.274C450.354 102.627 451.098 103.076 451.679 103.705C452.016 104.07 452.352 104.436 452.689 104.802L452.691 104.805C455.931 108.333 459.194 111.886 463.211 114.489C464.791 115.513 465.675 117.391 465.155 119.189C464.701 120.761 463.297 121.884 461.65 121.99L461.408 122.006C459.364 122.137 457.545 120.786 456.943 118.847C456.899 118.706 456.855 118.565 456.81 118.424C455.449 114.132 449.897 114.457 449.536 118.942C449.322 121.597 449.246 124.271 449.23 126.946C449.209 130.598 444.964 132.642 442.09 130.355C441.377 129.788 440.664 129.222 439.951 128.657C439.218 128.077 439.109 127.011 439.72 126.306C440.273 125.667 440.832 125.033 441.396 124.404C442.353 123.339 440.837 121.664 439.549 122.299C438.427 122.852 437.467 121.533 438.105 120.465C439.251 118.545 440.409 116.633 441.581 114.728C442.414 113.374 441.594 111.595 440.027 111.275C438.767 111.017 437.603 111.847 437.357 113.099L437.201 113.894C436.737 116.26 433.835 117.233 432.018 115.63C430.609 114.386 429.154 113.104 427.944 112.041C427.308 111.484 427.513 110.448 428.304 110.143C429.016 109.868 429.237 108.995 428.762 108.402C427.223 106.485 425.694 104.566 424.174 102.639C423.051 101.216 423.36 99.1535 424.848 98.1106C425.232 97.8417 425.615 97.5737 425.978 97.3199C426.782 96.7583 427.89 96.9443 428.467 97.7332C428.84 98.2423 429.246 98.7958 429.659 99.3583C430.427 100.404 432.096 99.7574 431.942 98.4729L431.815 97.4147C431.695 96.4252 432.963 95.9237 433.546 96.7358C434.249 97.7158 436.894 96.4936 436.633 95.3194C436.46 94.5456 436.303 93.7683 436.163 92.9876Z" fill="#F9FCFB"/>
<g opacity="0.97">
<path d="M811.009 225.813C811.064 225.721 811.168 225.664 811.28 225.664C811.375 225.664 811.464 225.705 811.523 225.775C811.673 225.952 811.822 226.131 811.972 226.309C814.738 229.612 817.634 233.07 822.186 234.057C822.412 234.106 822.646 234.035 822.807 233.878C822.828 233.857 822.85 233.836 822.871 233.815C823.369 233.33 824.197 233.833 823.944 234.467C823.888 234.607 823.887 234.761 823.94 234.902C824.127 235.389 824.404 236.105 824.594 236.59C824.648 236.727 824.714 236.825 824.84 236.91C825.353 237.256 825.258 238.024 824.652 238.186C823.366 238.529 822.057 238.796 820.726 238.934C820.043 239.005 819.381 239.26 818.937 239.757C817.987 240.82 817.252 242.035 816.663 243.314C816.53 243.603 816.159 243.722 815.874 243.559C815.717 243.469 815.56 243.379 815.403 243.29C814.622 242.842 813.841 242.395 813.043 241.967C811.709 241.034 810.156 241.111 808.59 241.188C807.807 241.227 807.021 241.265 806.258 241.178C805.921 241.14 805.578 241.255 805.377 241.514C805.354 241.543 805.331 241.573 805.308 241.603C805.054 241.929 805.136 242.389 805.488 242.619C805.797 242.822 806.107 243.024 806.416 243.226C807.184 243.727 806.908 245.014 806.086 245.429C805.254 245.848 803.992 245.314 804.032 244.421C804.036 244.34 804.039 244.262 804.042 244.188C804.049 244.048 804.025 243.909 803.974 243.777C803.867 243.501 803.765 243.224 803.668 242.945C803.325 241.965 803.331 240.851 804.116 240.135C804.336 239.933 804.574 239.744 804.811 239.555C804.82 239.548 804.828 239.54 804.837 239.533C805.416 239.072 805.601 238.33 805.385 237.643C805.312 237.412 805.531 237.192 805.779 237.247C806.393 237.383 807.008 237.518 807.625 237.65C808.385 237.813 809.141 237.363 809.334 236.647C809.393 236.43 809.452 236.213 809.512 235.996C810.235 233.349 810.964 230.678 810.584 227.954C810.487 227.256 810.573 226.538 810.941 225.927L810.957 225.899C810.975 225.869 810.992 225.841 811.009 225.813Z" fill="#F9FCFB"/>
<path d="M807.174 246.879C807.492 246.501 808.057 246.411 808.487 246.671C808.498 246.679 808.51 246.686 808.522 246.693C808.959 246.958 809.182 247.44 809.198 247.932C808.745 247.9 808.046 247.851 807.421 247.807C807.01 247.778 806.801 247.323 807.058 247.017L807.096 246.972C807.122 246.941 807.148 246.91 807.174 246.879Z" fill="#F9FCFB"/>
<path d="M809.205 248.066C809.202 248.022 809.2 247.977 809.198 247.932C809.228 247.934 809.248 247.963 809.237 247.99C809.226 248.016 809.216 248.041 809.205 248.066Z" fill="#F9FCFB"/>
<path d="M809.205 248.066C809.285 249.356 809.874 250.521 810.462 251.682C811.211 253.164 811.958 254.64 811.639 256.361C811.365 257.271 810.947 258.125 810.529 258.98C810.393 259.258 810.257 259.535 810.126 259.815C809.727 260.668 809.031 261.384 808.125 261.749C807.87 261.851 807.703 262.086 807.707 262.348C807.714 262.805 807.742 263.267 807.769 263.731C807.874 265.513 807.981 267.314 806.974 268.903C806.217 270.087 806.101 271.396 806.437 272.669C806.601 273.293 806.571 273.966 806.214 274.514C805.865 275.049 805.516 275.584 805.172 276.125C805.112 276.22 805.033 276.303 804.938 276.369L804.382 276.758C803.927 277.075 803.314 276.698 803.444 276.177C803.478 276.039 803.513 275.9 803.547 275.762C803.73 275.019 802.977 274.56 802.629 275.249C802.437 275.628 802.047 275.949 801.603 275.945C801.567 275.944 801.531 275.944 801.495 275.943C801.015 275.939 800.606 276.262 800.477 276.701C800.352 277.126 800.198 277.542 800.014 277.946C799.805 278.407 799.16 278.263 799.129 277.761C799.106 277.396 799.083 277.031 799.063 276.711C799.051 276.517 798.796 276.435 798.661 276.583L798.572 276.681L798.56 276.695C798.301 276.979 798.043 277.263 797.786 277.548C797.057 278.354 795.985 278.813 794.865 278.778C794.323 278.761 793.783 278.744 793.366 278.732C793.209 278.727 793.059 278.674 792.937 278.581L792.764 278.448C792.436 278.197 792.108 277.944 791.77 277.704C791.185 277.286 790.29 277.551 790.409 278.237C790.573 279.181 790.285 280.387 789.56 281.053C788.954 281.609 788.486 282.316 788.02 283.02C787.684 283.528 787.112 283.997 786.535 283.75C786.05 283.544 785.661 283.078 785.264 282.601C785.073 282.372 784.88 282.141 784.673 281.934C784.085 281.348 783.191 281.78 782.84 282.517C782.737 282.734 782.61 282.893 782.43 283.059C782.409 283.078 782.389 283.098 782.368 283.117C781.477 283.942 779.988 283.707 778.78 283.993C777.65 284.261 776.784 285.572 776.031 286.711C775.734 287.161 775.058 287.112 774.832 286.627C774.569 286.061 774.322 285.489 774.094 284.91C773.857 284.309 774.005 283.638 774.444 283.15C774.486 283.103 774.528 283.056 774.57 283.009C775.265 282.232 776.536 282.159 777.534 281.782C777.987 281.611 778.4 281.314 778.807 281.02C779.467 280.544 780.111 280.08 780.879 280.192C781.545 280.289 782.257 280.433 782.84 280.114C783.017 280.018 783.194 279.921 783.359 279.831C783.647 279.674 784.012 279.731 784.232 279.967C784.562 280.323 785.176 280.241 785.39 279.813C785.411 279.769 785.433 279.725 785.455 279.681C785.675 279.24 785.397 278.719 784.891 278.627C784.194 278.5 783.498 278.371 782.804 278.242C782.557 278.196 782.3 278.221 782.069 278.318C781.901 278.388 781.732 278.459 781.562 278.53C779.268 279.493 776.885 280.494 774.365 280.37C773.837 280.344 773.351 280.692 773.321 281.192C773.287 281.737 772.725 282.121 772.164 281.999C771.196 281.789 770.215 281.647 769.233 281.505C768.553 281.407 768.358 280.583 768.917 280.202C770.927 278.831 772.871 277.387 774.733 275.84C775.425 275.265 776.303 274.929 777.222 274.887C778.688 274.82 780.15 274.705 781.597 274.493C783.502 274.214 785.773 274.803 787.678 274.53L787.682 274.529C787.946 274.491 788.15 274.286 788.168 274.033C788.192 273.692 788.22 273.286 788.245 272.915C788.277 272.425 788.51 271.97 788.866 271.614C789.87 270.609 790.661 269.452 791.05 268.149C791.387 267.016 792.073 265.925 793.227 265.49C793.352 265.443 793.458 265.588 793.367 265.682C792.911 266.158 792.451 266.633 791.99 267.105C791.818 267.281 791.781 267.54 791.895 267.755C792.048 268.043 792.23 268.39 792.389 268.696L792.399 268.715C792.536 268.976 792.879 269.07 793.147 268.926C793.599 268.682 794.067 268.452 794.536 268.221C798.427 266.304 801.485 262.801 803.04 258.914C803.084 258.805 803.128 258.695 803.172 258.585C803.31 258.237 803.448 257.891 803.59 257.552C803.829 257.094 803.941 256.614 803.97 256.128C804.055 254.688 803.703 253.252 803.719 251.81L803.719 251.802C803.721 251.588 803.724 251.374 803.726 251.16C803.728 250.887 803.832 250.622 804.003 250.403C804.707 249.502 807.021 249.593 808.138 249.221C808.543 249.086 808.918 248.727 809.205 248.066Z" fill="#F9FCFB"/>
<path d="M768.975 283.13C768.074 282.523 766.885 282.352 765.994 282.973C765.466 283.342 764.918 283.683 764.349 283.987C763.629 284.373 763.483 285.555 763.579 286.334C763.629 286.741 763.825 287.171 764.216 287.347C764.477 287.465 764.762 287.593 765.034 287.715C765.349 287.856 765.69 287.565 765.578 287.252C765.512 287.07 765.448 286.888 765.385 286.705C765.191 286.149 765.795 285.784 766.122 286.281C766.623 287.045 766.817 287.942 766.308 288.819C765.283 290.241 765.144 291.981 765.668 293.574C765.779 293.909 766.244 293.917 766.405 293.601C766.506 293.402 766.614 293.19 766.722 292.978C766.889 292.648 767.419 292.784 767.389 293.149C767.349 293.635 767.31 294.12 767.276 294.519C767.264 294.662 767.443 294.746 767.555 294.649C767.644 294.572 767.732 294.496 767.82 294.42C769.164 293.258 770.05 291.708 770.573 290.057C770.86 289.152 771.209 288.267 771.632 287.41C771.996 286.673 772.018 285.813 771.624 285.089C771.597 285.039 771.569 284.989 771.542 284.939C771.1 284.126 770.093 283.748 769.252 283.298C769.157 283.247 769.065 283.191 768.975 283.13Z" fill="#F9FCFB"/>
<path d="M659.102 26.5197C657.045 24.5286 652.811 28.9112 654.883 30.8869C656.95 32.8576 661.154 28.5058 659.102 26.5197Z" fill="#F9FCFB"/>
<path d="M568.085 37.2438C566.116 39.2635 570.128 43.3532 572.131 41.3663C574.151 39.363 570.07 35.2073 568.085 37.2438Z" fill="#F9FCFB"/>
<path d="M663.567 34.3217C662.521 38.8606 664.974 44.1501 669.45 42.7333C670.147 42.5125 670.839 42.2327 671.526 41.9187C674.983 40.3382 676.808 36.4485 676.369 32.7011C676.347 32.5092 676.324 32.3174 676.303 32.1256C676.126 30.5723 675.448 29.1156 674.345 27.9978C671.359 24.9708 666.345 25.364 664.957 29.3675C664.397 30.9834 663.954 32.6431 663.567 34.3217Z" fill="#F9FCFB"/>
<path d="M562.832 56.5144C562.463 55.6113 562.597 54.5967 562.919 53.6756C564.044 50.4497 565.601 47.2907 568.117 45.0882C569.461 43.9119 570.988 45.3845 570.289 47.0205L570.251 47.1102C569.802 48.1613 569.354 49.2097 568.972 50.1046C568.774 50.5687 568.114 50.5789 567.901 50.1216C567.622 49.523 566.712 49.777 566.79 50.4319C566.922 51.5425 567.055 52.6538 567.19 53.7639C567.318 54.8167 568.709 55.1068 569.255 54.1948L569.473 53.8318C569.827 53.24 570.188 52.6372 570.53 52.0662C571.195 50.9579 572.737 50.7776 573.653 51.6932C574.472 52.5123 575.377 53.4128 576.224 54.2558C577.178 55.2056 578.818 54.6839 579.03 53.3605C579.105 52.8916 579.18 52.4227 579.254 51.9538C579.473 50.5715 581.522 50.5715 581.955 51.9031C582.275 52.8859 583.509 52.9801 584.175 52.1858C584.964 51.245 585.746 50.3005 586.526 49.3539C588.394 47.0875 591.878 48.3393 590.408 50.8769C589.639 52.2056 588.461 53.2635 586.78 53.9074C585.633 54.3465 584.506 54.8964 583.693 55.8099C583.244 56.3135 582.758 56.8616 582.267 57.4152C582.197 57.4943 582.126 57.5735 582.056 57.6527L581.25 58.5607C580.157 59.792 578.31 59.8675 577.261 58.5991C575.824 56.8617 572.207 57.3545 570.207 58.4117C567.514 59.8353 564.058 59.5116 562.832 56.5144Z" fill="#F9FCFB"/>
<path d="M671.72 42.9045C670.946 43.2534 670.562 44.0569 670.927 44.8174C671.524 46.0628 670.299 47.4607 669.027 46.9C667.834 46.3738 666.646 45.8501 665.778 45.4701C665.596 45.3906 665.394 45.3275 665.199 45.2887C658.932 44.0407 661.317 46.1978 664.372 48.0581C667.05 49.6888 669.633 51.5979 672.12 53.5034C675.071 55.7652 678.482 57.2341 682.118 57.7068C685.829 58.189 688.165 54.4292 687.341 50.812C686.821 48.5284 686.325 46.2372 685.827 43.9441L685.484 42.3614C685.211 41.1058 683.661 40.6363 682.726 41.5253L682.451 41.7866C681.635 42.5623 680.263 42.1084 680.014 41.0153C679.809 40.1173 678.829 39.6746 677.985 40.06C676.063 40.938 673.596 42.0581 671.72 42.9045Z" fill="#F9FCFB"/>
<path d="M552.269 59.067C557.014 57.2084 557.681 66.5398 552.64 64.958C552.806 65.4587 553.064 66.2149 553.321 66.9716L553.323 66.9769C553.509 67.5259 553.696 68.0749 553.848 68.5266C553.952 68.8344 554.136 69.1091 554.382 69.3228C555.869 70.6133 554.528 72.9874 552.642 72.3983C552.011 72.2009 551.38 72.0033 550.749 71.8055L548.573 72.5652C543.868 70.0034 543.656 63.4355 548.41 60.9649C549.681 60.3044 550.968 59.6711 552.269 59.067Z" fill="#F9FCFB"/>
<path d="M691.542 56.0902C691.015 60.8369 696.792 63.9045 700.78 61.2236C703.561 59.3541 704.001 55.4921 701.52 53.2459C701.118 52.8825 700.714 52.5227 700.306 52.1659C697.079 49.3398 692.117 51.1467 691.623 55.3864C691.595 55.6209 691.568 55.8555 691.542 56.0902Z" fill="#F9FCFB"/>
<path d="M576.388 62.9946C575.387 59.8707 569.246 62.9484 570.256 66.0695C571.266 69.192 577.389 66.1199 576.388 62.9946Z" fill="#F9FCFB"/>
<path d="M564.827 148.024C558.775 142.22 548.897 147.83 542.611 153.421L523.913 170.056C528.586 165.938 531.801 178.195 525.11 198.088C520.312 212.352 521.135 219.291 521.901 225.746C522.205 228.307 522.5 230.792 522.431 233.628C522.187 243.61 517.949 249.02 517.333 249.1C517.763 249.044 518.181 248.92 518.561 248.72C519.061 248.457 519.56 248.193 520.05 247.915C520.238 247.808 520.449 247.741 520.667 247.725C522.146 247.613 523.656 247.499 525.008 246.912L525.02 246.908L525.03 246.905C525.037 246.904 525.045 246.903 525.052 246.903C525.089 246.903 525.122 246.92 525.142 246.949L525.257 247.12C525.419 247.36 525.328 247.68 525.049 247.779C524.976 247.805 524.902 247.83 524.827 247.855C524.769 247.874 524.71 247.894 524.651 247.913L524.489 247.967C524.012 248.126 523.539 248.341 523.065 248.557C522.305 248.902 521.54 249.249 520.743 249.376C520.69 249.385 520.662 249.441 520.688 249.486L520.949 249.937L521.049 250.108C521.13 250.245 521.251 250.357 521.397 250.432C521.909 250.697 522.408 250.985 522.901 251.281L522.311 251.492C521.674 251.72 521.124 252.145 520.817 252.726C520.657 253.028 520.512 253.335 520.39 253.65C520.221 254.087 519.855 254.442 519.378 254.534L519.185 254.571C519.089 254.59 518.989 254.583 518.897 254.551C518.52 254.424 518.142 254.298 517.763 254.18C517.655 254.146 517.564 254.261 517.628 254.351L517.692 254.442C517.832 254.642 517.746 254.912 517.515 255.006C517.351 255.072 517.352 255.298 517.512 255.37C518.346 255.747 519.093 256.241 519.737 256.851C519.948 257.05 520.211 257.194 520.503 257.243L520.553 257.252C520.898 257.311 521.2 257.5 521.468 257.716C521.908 258.07 522.443 258.295 522.978 258.52C523.592 258.779 524.207 259.038 524.683 259.493C524.941 259.727 525.199 259.966 525.457 260.207L525.459 260.209C526.728 261.389 528.021 262.592 529.658 263.312C530.165 263.535 530.662 263.786 531.104 264.11C531.874 264.675 532.454 265.437 532.738 266.325C532.8 266.519 532.859 266.717 532.918 266.912C532.976 267.103 533.033 267.294 533.094 267.484C533.129 267.593 533.147 267.706 533.147 267.82C533.147 268.051 533.074 268.278 532.924 268.459C531.595 270.062 529.267 271.395 527.055 270.999L526.861 270.964C526.137 270.832 525.404 270.698 524.691 270.872C523.685 271.117 522.67 271.364 521.661 271.021C521.414 270.955 521.162 270.893 520.91 270.832C519.947 270.596 518.972 270.358 518.145 269.86C517.876 269.698 517.541 269.651 517.252 269.775C519.058 270.522 518.714 271.162 518.017 272.457C517.243 273.897 516.034 276.146 516.854 280.252C518.412 288.053 517.721 291.755 517.721 291.755C520.957 297.291 513.796 303.731 507.322 303.696C513.647 303.932 515.28 305.121 515.733 306.633C516.191 308.166 517.072 314.598 515.733 315.925C515.645 316.012 515.544 316.109 515.435 316.213C515.116 316.517 514.732 316.885 514.429 317.25C514.38 317.307 514.333 317.366 514.288 317.429C514.332 317.37 514.38 317.31 514.429 317.25C516.288 315.119 520.87 317.83 522.758 320.714C530.181 332.127 536.839 344.011 542.689 356.289C554.713 354.126 566.071 349.24 575.876 342.013C578.98 339.711 582.064 336.964 583.118 333.269C584.173 329.574 582.24 324.835 578.414 324.177C576.918 324.054 575.413 324.145 573.943 324.448C564.924 325.376 557.096 318.644 551.201 311.738C555.242 307.25 562.582 309.804 568.087 312.357C577.977 316.864 588.418 320.077 599.146 321.914C601.841 322.211 604.474 322.916 606.954 324.003C608.608 324.928 610.131 326.066 611.483 327.388C623.891 338.758 632.924 353.274 637.603 369.366C642.308 370.43 645.626 364.665 645.997 359.887C646.067 358.982 646.104 358.049 646.141 357.111C646.299 353.1 646.461 348.98 649.277 346.346C650.552 345.118 652.206 344.388 653.851 343.661C655.731 342.83 657.601 342.004 658.881 340.446C660.301 338.702 660.702 336.401 661.1 334.121C661.544 331.57 661.985 329.045 663.84 327.349C668.252 323.326 675.397 328.239 677.739 333.714C678.358 335.16 678.875 336.692 679.392 338.224C680.831 342.489 682.27 346.756 685.919 349.19L693.942 348.048C694.025 361.577 698.64 374.696 707.061 385.345C711.629 382.965 709.559 376.079 706.709 371.804C703.859 367.528 701.028 361.183 705.108 358.011C708.137 358.011 710.299 360.256 712.495 362.537C714.374 364.49 716.279 366.468 718.773 367.083C724.181 368.418 729.081 361.976 728.105 356.502C727.129 351.027 722.365 347.023 717.466 344.315C713.073 339.556 719.418 331.934 725.84 330.773C728.34 330.322 730.932 330.333 733.509 330.344C737.553 330.362 741.562 330.379 745.128 328.607C752.097 325.144 754.439 316.013 752.839 308.43C751.595 302.538 748.594 297.263 745.605 292.01C744.748 290.503 743.891 288.997 743.078 287.48C739.915 281.676 738.354 272.584 744.503 270.07C746.204 269.528 747.988 269.286 749.774 269.354C773.024 268.367 792.272 243.974 787.606 221.36C786.898 217.039 784.954 213.011 782.004 209.753C779.575 207.304 776.413 205.676 773.278 204.061C769.255 201.989 765.277 199.941 762.951 196.211C757.895 188.048 764.142 177.215 772.243 171.972C775.81 169.664 779.721 167.93 783.627 166.198C788.592 163.996 793.549 161.798 797.777 158.431C799.729 158.431 800.861 156.497 801.232 154.466C801.327 153.214 801.294 151.957 801.135 150.713C801.121 148.976 801.679 147.283 802.723 145.889C803.768 144.495 805.242 143.476 806.923 142.986C808.604 142.496 810.4 142.563 812.04 143.175C813.68 143.787 815.073 144.912 816.01 146.379C818.294 149.958 817.377 154.698 815.717 158.605C815.282 159.63 814.798 160.651 814.314 161.672C812.952 164.544 811.583 167.429 811.267 170.483C810.837 174.623 813.219 179.652 817.494 180.155C822.706 180.736 826.064 174.623 826.396 169.438C826.482 168.093 826.479 166.716 826.475 165.338C826.466 161.408 826.457 157.471 828.524 154.233C830.322 151.434 833.451 149.534 836.495 147.687C840.685 145.144 844.713 142.699 844.883 138.139C845.022 134.648 842.659 131.943 840.253 129.187C838.272 126.918 836.26 124.615 835.59 121.812C835.253 119.236 835.332 116.624 835.825 114.074C836.288 109.262 835.531 104.412 833.622 99.9633C831.713 95.515 828.713 91.6097 824.895 88.6021C821.076 85.5945 816.56 83.5798 811.756 82.741C806.952 81.9023 802.013 82.266 797.387 83.7992C796.133 84.2107 794.905 84.7033 793.68 85.195C791.968 85.8819 790.26 86.5675 788.485 87.0298C783.912 87.9555 779.218 88.1384 774.586 87.5714L749.696 85.8884C742.258 85.3855 734.371 84.9599 727.753 88.4032C723.767 90.4823 720.491 93.8437 717.256 97.1637C712.664 101.876 708.154 106.504 701.809 107.264C696.338 107.916 691.287 105.417 686.234 102.916C684.238 101.928 682.241 100.94 680.218 100.145C674.394 97.9451 668.092 97.2838 661.931 98.2267C655.77 99.1696 649.963 101.684 645.08 105.523C642.654 104.231 642.345 101.461 642.029 98.6233C641.872 97.214 641.714 95.787 641.293 94.5162C640.024 90.6859 635.612 88.1131 631.395 87.7455C627.121 87.6573 622.872 88.4204 618.901 89.9895C610.195 92.8138 600.083 97.6113 599.282 106.645C599.205 107.477 599.217 108.328 599.228 109.177C599.252 110.915 599.275 112.65 598.54 114.209C597.613 116.211 595.702 117.403 593.768 118.61C592.524 119.385 591.271 120.167 590.263 121.173C587.159 124.249 586.671 128.911 586.554 133.302L586.554 133.322C586.437 137.707 586.316 142.226 583.763 145.799C581.205 149.378 567.97 151.1 564.827 148.024Z" fill="#F9FCFB"/>
</g>
<g opacity="0.97">
<path d="M517.333 249.1C516.717 249.18 516.1 249.289 515.511 249.465C514.861 249.66 514.273 250.01 513.789 250.469C513.565 250.681 513.351 250.902 513.138 251.123L512.99 251.277C512.814 251.458 512.505 251.415 512.386 251.196C512.296 251.029 512.051 251.052 512.028 251.239C511.872 252.522 512.88 253.661 513.736 254.63C513.746 254.641 513.764 254.645 513.779 254.64C514.528 254.356 515.315 254.143 516.113 254.113C516.765 254.088 517.114 254.749 516.854 255.321C516.682 255.699 516.286 255.943 515.857 255.915C515.493 255.891 515.132 255.851 514.779 255.776C514.342 255.683 513.871 255.739 513.522 256.007C513.127 256.311 512.636 256.459 512.146 256.607C511.949 256.667 511.752 256.727 511.561 256.796C511.026 256.992 510.577 257.36 510.129 257.728C509.896 257.919 509.663 258.11 509.419 258.276C508.889 258.557 508.405 258.289 507.941 258.032L507.928 258.025C507.673 257.884 507.535 257.592 507.628 257.324C507.736 257.014 507.846 256.701 507.899 256.383C507.962 256.007 507.763 255.642 507.429 255.433C507.348 255.383 507.266 255.335 507.182 255.289C506.126 254.712 505.791 253.41 506.843 252.827L507.008 252.736C507.559 252.431 507.463 251.676 506.86 251.481C506.75 251.445 506.632 251.434 506.517 251.449C505.977 251.516 505.438 251.583 504.898 251.648C504.679 251.675 504.456 251.639 504.255 251.548C503.737 251.313 503.212 251.086 502.68 250.877C502.507 250.81 502.479 250.584 502.632 250.481C502.767 250.391 502.723 250.189 502.561 250.158L501.94 250.041C501.779 250.01 501.714 249.824 501.822 249.706C501.959 249.556 501.814 249.324 501.611 249.368C501.072 249.483 500.532 249.592 499.992 249.698C499.746 249.746 499.544 249.91 499.443 250.13C499.119 250.834 498.694 251.541 498.124 252.098C497.207 252.993 496.263 254.406 495.992 255.631C495.958 255.786 495.917 255.939 495.869 256.092C495.769 256.414 495.48 256.644 495.136 256.718C494.952 256.758 494.767 256.798 494.583 256.838C494.264 256.908 493.952 256.697 493.917 256.386C493.905 256.278 493.752 256.272 493.732 256.378C493.646 256.829 493.576 257.282 493.52 257.736C493.512 257.8 493.485 257.859 493.442 257.908C493.381 257.975 493.31 258.057 493.237 258.14C493.04 258.364 492.934 258.648 492.919 258.94C492.875 259.778 492.753 260.611 492.614 261.442C492.545 261.847 492.147 262.133 491.718 262.106C491.419 262.087 491.142 262.223 491.005 262.478C490.811 262.838 490.671 263.217 490.585 263.609C490.46 264.181 490.225 264.743 489.764 265.127C489.563 265.295 489.559 265.592 489.737 265.784C490.348 266.442 490.741 267.217 491.019 268.034C491.132 268.366 491.278 268.695 491.543 268.935C491.647 269.03 492.066 269.25 492.536 269.497C493.258 269.877 494.101 270.321 494.101 270.466C494.101 270.802 493.516 271.1 493.516 271.1C493.208 271.089 492.901 271.07 492.595 271.05C491.704 270.994 490.818 270.938 489.929 271.086C489.602 271.14 489.341 271.359 489.134 271.608L489.039 271.723C488.661 272.179 487.635 273.417 486.916 274.177C484.945 272.87 482.309 272.664 481.392 274.712C481.923 275.615 482.238 276.627 482.312 277.67C482.386 278.713 482.218 279.758 481.82 280.727C481.422 281.695 480.805 282.559 480.017 283.254C479.228 283.949 478.29 284.454 477.273 284.733C475.851 278.616 472.832 272.977 468.518 268.38C464.205 263.783 458.748 260.39 452.695 258.54C450.665 261.635 452.812 265.756 455.409 268.406C455.833 268.839 456.275 269.27 456.719 269.702L456.722 269.705L456.724 269.707C458.995 271.918 461.329 274.191 461.753 277.246C462.261 280.903 457.166 284.655 454.901 281.754C454.456 277.773 453.054 273.956 450.812 270.624C448.57 267.291 445.554 264.54 442.017 262.602C440.678 264.731 438 265.199 435.396 265.654C434.734 265.77 434.076 265.885 433.447 266.026C430.645 266.661 428.067 268.033 425.985 269.997C423.903 271.962 422.394 274.446 421.617 277.188C421.437 277.844 421.297 278.519 421.157 279.194C420.782 281.009 420.407 282.82 419.255 284.23C418.336 285.169 417.234 285.914 416.016 286.42C414.798 286.925 413.489 287.181 412.168 287.17C405.629 287.731 398.406 285.487 394.872 279.993C391.339 274.499 393.564 265.64 399.928 263.976C402.428 263.317 405.001 263.78 407.59 264.246C408.802 264.465 410.018 264.684 411.231 264.788C415.038 265.117 417.945 263.949 417.945 260.177C417.972 257.227 414.446 254.927 411.278 252.86C407.715 250.536 404.603 248.507 407.503 246.179C409.907 244.248 415.246 242.92 420.624 242.92C424.642 242.92 429.599 239.106 431.34 236.283C433.447 232.868 438.62 227.24 444.477 226.699C447.483 226.421 450.494 226.744 453.502 227.067C456.355 227.373 459.205 227.679 462.046 227.472C467.883 227.047 474.423 223.294 474.423 217.49C474.435 216.559 474.281 215.573 474.126 214.584C473.801 212.512 473.474 210.428 474.676 208.805C476.078 206.902 478.849 206.597 481.474 206.307C484.48 205.976 487.295 205.666 487.639 203.001C488.092 199.601 484.149 199.171 480.184 198.738C478.69 198.574 477.192 198.411 475.926 198.088C474.849 197.743 473.858 197.175 473.019 196.422C472.181 195.67 471.513 194.749 471.061 193.72C470.608 192.692 470.382 191.581 470.396 190.459C470.41 189.338 470.665 188.232 471.143 187.216C471.708 186.163 472.503 185.263 473.296 184.366C474.119 183.435 474.939 182.506 475.496 181.413C476.589 179.265 475.789 175.725 473.349 175.725C462.69 177.234 457.341 190.195 459.079 200.738C459.201 201.497 459.346 202.259 459.492 203.023C460.023 205.804 460.559 208.607 459.977 211.339C459.235 214.821 455.487 217.993 452.168 216.581C450.414 215.841 449.444 214.174 448.459 212.48C447.821 211.385 447.178 210.278 446.312 209.404C444.846 207.932 442.874 207.197 440.906 206.463C438.969 205.741 437.037 205.021 435.594 203.601C432.002 200.061 433.291 193.948 436.199 189.769C437.522 187.87 439.126 186.194 440.726 184.524C442.644 182.521 444.555 180.526 445.96 178.163C448.021 174.723 448.862 170.766 449.703 166.809C450.551 162.82 451.398 158.832 453.496 155.375C458.376 147.424 469.035 144.232 478.405 145.489C487.775 146.747 496.248 151.544 504.466 156.226C508.937 158.799 514.032 164.254 510.596 168.123C508.61 170.338 505.426 169.904 502.219 169.468C499.152 169.05 496.064 168.63 493.983 170.521C494.276 176.75 501.753 180.658 507.941 179.633C514.129 178.608 519.205 174.255 523.89 170.077C528.575 165.898 531.812 178.163 525.11 198.088C520.312 212.352 521.135 219.291 521.901 225.746C522.205 228.307 522.5 230.792 522.431 233.628C522.187 243.61 517.949 249.02 517.333 249.1Z" fill="#F9FCFB"/>
<path d="M504.959 288.327C510.188 288.003 517.721 291.755 517.721 291.755C517.721 291.755 518.412 288.053 516.854 280.252C516.034 276.146 517.243 273.897 518.017 272.457C518.714 271.162 519.058 270.522 517.252 269.775C517.093 269.709 516.927 269.7 516.77 269.692C516.529 269.678 516.312 269.667 516.181 269.451L516.034 269.208C515.75 268.737 515.152 268.55 514.583 268.562C514.482 268.564 514.383 268.561 514.284 268.553C513.737 268.507 513.05 268.254 512.358 267.999C511.61 267.724 510.855 267.446 510.262 267.424C509.929 267.412 509.595 267.386 509.261 267.36C508.157 267.273 507.052 267.186 506.012 267.601C504.713 268.03 503.415 268.583 502.29 269.33C501.211 270.046 499.974 270.602 498.668 270.466C498.183 270.415 497.55 270.525 496.936 270.631C496.469 270.712 496.012 270.791 495.639 270.796C494.775 270.809 493.819 271.222 493.935 271.225C493.958 271.226 493.975 271.226 493.988 271.226C494 271.226 494.008 271.226 494.014 271.226C494.034 271.226 494.023 271.225 494.023 271.225C494.331 271.479 494.678 271.683 495.05 271.846C495.203 271.913 495.177 272.123 495.009 272.135C494.725 272.155 494.425 272.175 494.15 272.227C493.772 272.297 493.387 272.493 492.998 272.69C492.494 272.946 491.986 273.204 491.487 273.192L491.188 273.184C491.072 273.182 490.959 273.145 490.864 273.08C490.723 272.986 490.58 272.896 490.433 272.809C490.251 272.701 490.023 272.834 490.032 273.039C490.043 273.278 489.845 273.482 489.598 273.447C489.45 273.427 489.377 273.516 489.31 273.597C489.239 273.683 489.176 273.761 489.039 273.69C488.946 273.642 488.672 273.881 488.321 274.185C488.102 274.375 487.854 274.591 487.602 274.779C488.392 275.327 488.493 275.53 488.888 276.356C489.474 277.583 489.774 278.921 490.072 280.252C490.48 282.069 490.885 283.875 492.011 285.371C494.816 288.957 499.926 288.64 504.959 288.327Z" fill="#F9FCFB"/>
<path d="M411.473 204.439C408.814 204.268 406.366 205.647 405.509 208.274L405.422 208.545C405.328 208.835 405.234 209.124 405.136 209.409C404.966 209.904 404.356 209.996 404.038 209.587L403.898 209.407C403.71 209.165 403.36 209.152 403.157 209.38C402.971 209.59 402.989 209.917 403.195 210.105C403.748 210.609 404.301 211.111 404.855 211.615C405.009 211.754 405.054 211.983 404.967 212.174C404.735 212.689 404.514 213.208 404.314 213.736C404.132 214.216 404.628 214.619 405.048 214.345C405.428 214.098 405.836 214.5 405.591 214.891C405.239 215.451 404.854 215.988 404.454 216.513C404.163 216.894 404.533 217.428 404.966 217.242C405.105 217.182 405.261 217.28 405.275 217.436L405.35 218.227C405.372 218.458 405.546 218.641 405.767 218.668C406.142 218.712 406.419 218.307 406.248 217.957L406.113 217.68C405.962 217.37 406.066 216.991 406.353 216.814L406.446 216.757C406.941 216.451 407.556 216.827 407.501 217.424C407.371 218.858 407.059 220.265 406.687 221.652C406.653 221.777 406.748 221.899 406.872 221.89L406.875 221.89L408.565 221.764C409.642 221.683 410.638 222.45 411.007 223.507C411.339 224.457 411.669 225.403 411.638 226.411C411.458 227.824 410.163 228.001 408.978 228.163C408.44 228.237 408.123 228.786 408.284 229.325C408.507 230.072 408.743 230.814 408.983 231.555C409.075 231.841 408.98 232.158 408.747 232.338C408.146 232.802 407.544 233.266 406.946 233.734C406.692 233.933 406.586 234.277 406.683 234.593C406.739 234.778 406.887 234.916 407.07 234.953L407.275 234.995C408.664 235.281 410.066 235.57 411.481 235.579C411.728 235.58 411.827 235.977 411.6 236.082C410.002 236.82 408.576 237.894 407.417 239.257C407.17 239.547 406.926 239.84 406.683 240.132C406.415 240.454 406.146 240.777 405.874 241.095C405.711 241.287 405.84 241.593 406.087 241.593C406.127 241.593 406.167 241.584 406.204 241.567C409.102 240.198 412.193 239.3 415.32 238.701C416.167 238.531 417.027 238.432 417.887 238.333C418.939 238.212 419.991 238.091 421.016 237.838C421.767 237.654 422.05 236.752 421.628 236.079C421.33 235.605 421.372 234.986 421.721 234.551C422.177 233.982 422.619 233.4 423.019 232.787C423.21 232.495 423.303 232.147 423.303 231.794C423.303 230.956 422.772 230.214 421.994 229.999C421.839 229.956 421.683 229.914 421.528 229.873C420.572 229.622 419.831 228.836 419.491 227.873C418.929 226.282 418.077 224.836 417.223 223.388C416.399 221.991 415.575 220.592 415.007 219.059C414.942 218.865 414.861 218.685 414.766 218.517C413.71 216.645 412.484 214.445 413.407 212.498C413.636 212.015 413.846 211.523 414.034 211.021C414.452 209.903 413.591 208.789 412.439 208.808C411.011 208.831 410.105 207.199 410.861 205.937L411.602 204.7C411.668 204.59 411.597 204.447 411.473 204.439Z" fill="#F9FCFB"/>
<path d="M404.787 220.992C404.46 220.295 403.772 219.854 403.027 219.837C402.501 219.825 401.967 219.814 401.442 219.845C399.785 219.944 398.524 221.291 398.436 223.018C398.408 223.562 397.987 223.977 397.465 224.008L396.555 224.062C395.589 224.119 394.873 225.021 395.031 226.015C395.251 227.394 395.518 228.763 395.848 230.121C396.137 231.173 395.383 231.847 394.657 232.495C394.449 232.681 394.243 232.865 394.065 233.055C393.905 233.226 393.832 233.46 393.832 233.699C393.832 234.214 394.181 234.661 394.664 234.778L394.675 234.78C395.301 234.932 395.934 235.086 396.568 235.135C397.39 235.198 398.188 234.908 398.946 234.572C399.286 234.421 399.624 234.268 399.961 234.11C402.284 233.019 403.85 230.784 404.289 228.169C404.53 226.737 404.77 225.306 405.18 223.918C405.413 223.129 405.391 222.27 405.04 221.529L404.901 221.235L404.787 220.992Z" fill="#F9FCFB"/>
</g>
<g opacity="0.97">
<path d="M515.732 306.633C515.273 305.1 513.601 303.899 507.062 303.687C503.562 303.573 500.23 302.473 496.893 301.371C493.993 300.414 491.089 299.455 488.067 299.141C483.572 298.705 479.161 299.738 474.729 300.777C472.078 301.398 469.419 302.021 466.73 302.332C459.546 303.164 450.742 300.398 449.161 293.376C449.07 291.455 448.647 289.564 447.911 287.785C446.486 285.445 443.265 284.903 440.532 285.212C436.06 285.713 431.564 287.741 427.171 289.723C419.848 293.027 414.579 290.097 407.227 293.363C399.097 296.975 396.715 303.195 390.259 307.659C385.216 311.146 380.143 314.653 376.385 319.336C367.034 330.943 367.815 348.895 376.892 360.715C385.97 372.534 401.997 378.125 416.872 376.191C417.328 376.134 417.787 376.071 418.247 376.008C421.235 375.6 424.285 375.184 427.043 376.307C429.127 377.155 430.692 378.734 432.269 380.326C433.1 381.165 433.935 382.007 434.852 382.748C437.506 384.896 443.395 382.301 444.735 383.628C446.074 384.956 442.308 389.765 442.62 393.059C442.932 396.353 444.023 399.527 445.803 402.325C447.041 404.221 448.611 405.992 450.172 407.754C453.536 411.548 456.861 415.3 456.755 420.161C456.755 422.531 455.83 424.74 454.9 426.959C454.388 428.182 453.875 429.408 453.514 430.665C450.813 440.152 456.29 448.617 461.922 457.323C465.937 463.528 470.031 469.856 471.298 476.764C471.457 477.607 471.585 478.484 471.715 479.369C472.268 483.155 472.843 487.087 475.944 489.125C477.792 490.151 479.878 490.678 481.996 490.653C492.791 491.369 506.378 488.177 508.623 477.692C508.998 474.683 509.09 471.646 508.897 468.62C509.092 464.073 510.492 459.657 512.956 455.817C515.42 451.976 518.861 448.846 522.933 446.741C525.253 445.863 527.421 444.629 529.355 443.085C533.26 439.216 532.401 432.851 530.39 427.802C530.007 426.841 529.592 425.878 529.176 424.913C527.408 420.812 525.62 416.664 526.173 412.327C527.102 405.251 533.558 400.907 539.76 396.735C541.12 395.82 542.468 394.913 543.743 393.988C549.074 390.075 553.57 385.154 556.971 379.51C560.372 373.865 562.61 367.609 563.557 361.102C553.796 364.178 541.693 366.789 534.275 359.767C531.833 357.181 529.894 354.171 528.555 350.888C523.909 341.293 519.276 331.704 514.656 322.122C514.271 321.533 514.01 320.873 513.886 320.182C513.762 319.491 513.778 318.783 513.933 318.098C514.064 317.523 514.858 316.764 515.434 316.213C515.543 316.109 515.644 316.012 515.732 315.925C517.071 314.598 516.191 308.166 515.732 306.633Z" fill="#F9FCFB"/>
<path d="M555.135 437.742C555.16 437.655 555.235 437.591 555.324 437.585C555.4 437.58 555.474 437.618 555.514 437.685C556.701 439.636 557.282 441.891 557.678 444.132L557.841 446.493C557.867 446.858 557.441 447.066 557.173 446.822C556.934 446.605 556.558 446.755 556.515 447.077C555.955 451.243 554.517 455.198 553.088 459.132C552.681 460.25 552.275 461.367 551.891 462.485C551.523 463.402 551.203 464.345 550.883 465.289C550.446 466.573 550.01 467.858 549.454 469.083C548.812 470.496 547.726 471.664 546.3 472.216C546.005 472.33 545.708 472.436 545.411 472.543C545.239 472.604 545.068 472.665 544.898 472.728C544.774 472.773 544.65 472.82 544.528 472.867C544.428 472.906 544.324 472.93 544.217 472.937C543.917 472.957 543.623 472.845 543.404 472.633C543.351 472.582 543.298 472.531 543.245 472.481C543.201 472.438 543.157 472.396 543.112 472.354C542.833 472.087 542.553 471.82 542.286 471.541C541.822 471.056 541.543 470.426 541.404 469.764L541.371 469.608C541.114 468.393 540.857 467.175 540.505 465.984C540.415 465.677 540.353 465.362 540.331 465.042C540.273 464.214 540.475 463.389 540.918 462.695L540.962 462.626C541.528 461.739 542.095 460.85 542.58 459.917C543.073 458.968 543.349 457.91 543.321 456.833C543.304 456.191 543.244 455.543 543.184 454.895C543.031 453.237 542.877 451.578 543.446 450.015C543.47 449.938 543.497 449.864 543.525 449.792C543.553 449.723 543.583 449.656 543.615 449.591C544.363 448.079 546.053 447.338 547.732 446.601C549.505 445.823 551.266 445.049 551.896 443.381C552.266 442.436 552.849 441.624 553.431 440.813C554.115 439.859 554.798 438.907 555.135 437.742Z" fill="#F9FCFB"/>
</g>
<path d="M732.659 434.765C729.77 437.957 727.076 441.883 722.898 442.87C720.399 443.47 717.744 442.87 715.246 443.47C707.905 445.153 706.207 454.941 707.886 462.215C709.565 469.488 712.981 477.13 710.248 484.074C709.526 485.399 709.075 486.852 708.921 488.35C709.006 489.248 709.297 490.115 709.77 490.886C710.244 491.657 710.888 492.311 711.654 492.799C718.349 497.79 727.856 494.211 735.216 490.265C742.576 486.318 751.517 482.024 758.857 486.009C766.665 490.265 767.466 501.04 772.327 508.507C776.582 515.084 785.992 519.011 792.629 514.832C794.801 513.27 796.684 511.345 798.193 509.145L808.188 496.203C812.58 490.4 817.148 484.423 817.948 477.284C819.588 463.492 807.25 452.426 796.143 443.992C795.845 439.561 794.657 435.233 792.648 431.263C788.119 423.525 778.866 422.771 781.384 433.643C774.122 433.875 768.266 423.216 760.184 422.191C750.384 420.933 738.906 427.82 732.659 434.765Z" fill="#F9FCFB"/>
</svg>
